<?xml version="1.0" encoding="utf-8"?>
<!-- Generator: Adobe Illustrator 28.1.0, SVG Export Plug-In . SVG Version: 6.00 Build 0)  -->
<svg version="1.1" id="Слой_1" xmlns="http://www.w3.org/2000/svg" xmlns:xlink="http://www.w3.org/1999/xlink" x="0px" y="0px"
	 width="554.8px" height="78.8px" viewBox="0 0 554.8 78.8" style="enable-background:new 0 0 554.8 78.8;" xml:space="preserve">
<style type="text/css">
	.st0{fill:#CCCBCB;}
	.st1{fill:#FFFFFF;}
	.st2{fill:#E2E2E2;}
</style>
<g>
	<g>
		<g>
			<path class="st0" d="M63.9,30.2L63.9,30.2c-0.6-0.9-1.3-1.7-2.1-2.4c-1.8-1.8-3.6-2.9-4-3.1L22,4c-1.1-0.6-2.1-1.1-3.2-1.6
				c-1.7-0.8-3.5-1.2-5.4-1.2c-0.1,0-0.2,0-0.4,0C10.5,1.3,8,2.2,5.9,3.8C4.4,4.9,3.1,6.4,2.2,8.1c-0.9,1.8-1.4,3.8-1.4,5.8
				c0,0.2,0,13.6,0,23.7l0,13.5c0,5.1,0,8.6,0,8.6c0,2.6,0.8,5,2.2,7.1c2.4,3.5,6.3,5.5,10.5,5.5c0.7,0,1.2-0.1,1.5-0.1l0.2,0
				c0.4-0.1,0.8-0.1,1.2-0.2c2.9-0.6,5.2-1.9,5.6-2.2l35.8-20.7c0.9-0.5,1.8-1.1,2.6-1.7c0.8-0.5,1.5-1.1,2.1-1.9
				c2.2-2.4,3.4-5.4,3.4-8.6C66,34.7,65.3,32.3,63.9,30.2z"/>
		</g>
	</g>
</g>
<g>
	<path class="st1" d="M111.2,39.6c1.2,1.6,1.8,3.5,1.8,5.7c0,3.3-1.4,5.8-4.1,7.6c-2.7,1.8-6.6,2.7-11.7,2.7h-21V18.2h20
		c5,0,8.7,0.9,11.3,2.7c2.5,1.8,3.8,4.1,3.8,7.1c0,1.7-0.4,3.3-1.3,4.7c-0.9,1.4-2.2,2.5-3.9,3.4C108.3,36.9,110,38,111.2,39.6z
		 M88.6,27v5.6h5.9c2.7,0,4.1-0.9,4.1-2.8c0-1.9-1.4-2.8-4.1-2.8H88.6z M100.3,43.8c0-2-1.4-2.9-4.2-2.9h-7.6v5.9h7.6
		C98.9,46.8,100.3,45.8,100.3,43.8z"/>
	<path class="st1" d="M132.4,46.2H129v9.4h-12.6V18.2h18c3.5,0,6.5,0.6,9,1.7c2.6,1.1,4.5,2.8,5.9,4.9c1.4,2.1,2.1,4.6,2.1,7.5
		c0,2.7-0.6,5-1.8,7c-1.2,2-3,3.6-5.2,4.8l7.9,11.5h-13.5L132.4,46.2z M137.4,29.1c-0.9-0.8-2.1-1.1-3.8-1.1H129v8.8h4.6
		c1.7,0,3-0.4,3.8-1.1c0.9-0.8,1.3-1.8,1.3-3.2C138.7,30.9,138.3,29.8,137.4,29.1z"/>
	<path class="st1" d="M155.1,18.2h12.6v37.4h-12.6V18.2z"/>
	<path class="st1" d="M197.5,35.9h10.9v15.8c-2.2,1.5-4.8,2.7-7.7,3.5c-2.9,0.8-5.8,1.2-8.6,1.2c-4,0-7.6-0.8-10.7-2.5
		c-3.2-1.7-5.7-4-7.5-6.9c-1.8-3-2.7-6.3-2.7-10.1c0-3.8,0.9-7.1,2.7-10.1c1.8-3,4.3-5.3,7.5-6.9c3.2-1.7,6.9-2.5,10.9-2.5
		c3.7,0,7,0.6,9.9,1.8c2.9,1.2,5.3,3,7.2,5.4l-8.1,7.1c-2.3-2.7-5.1-4.1-8.4-4.1c-2.8,0-5,0.8-6.6,2.5c-1.6,1.7-2.5,4-2.5,6.8
		c0,2.8,0.8,5.1,2.4,6.8c1.6,1.7,3.8,2.6,6.5,2.6c1.6,0,3.1-0.3,4.6-0.9V35.9z"/>
	<path class="st1" d="M249.6,18.2v37.4H237V41.8h-11.6v13.8h-12.6V18.2h12.6v13.2H237V18.2H249.6z"/>
	<path class="st1" d="M262.7,28h-10.9v-9.8h34.5V28h-10.9v27.6h-12.6V28z"/>
	<path class="st1" d="M319.5,46.1v9.5h-31.1V18.2h30.4v9.5h-18v4.4h15.8v9.1h-15.8v4.9H319.5z"/>
	<path class="st1" d="M332.1,53.9c-3.2-1.7-5.7-4-7.5-7c-1.8-3-2.7-6.3-2.7-10.1c0-3.7,0.9-7.1,2.7-10.1c1.8-3,4.3-5.3,7.5-7
		c3.2-1.7,6.8-2.5,10.8-2.5c4,0,7.6,0.8,10.8,2.5c3.2,1.7,5.7,4,7.5,7c1.8,3,2.7,6.3,2.7,10.1c0,3.7-0.9,7.1-2.7,10.1
		c-1.8,3-4.3,5.3-7.5,7s-6.8,2.5-10.8,2.5C338.9,56.4,335.3,55.6,332.1,53.9z M347.2,45.1c1.3-0.8,2.3-1.9,3-3.3
		c0.7-1.4,1.1-3.1,1.1-4.9c0-1.9-0.4-3.5-1.1-4.9c-0.7-1.4-1.8-2.5-3-3.3c-1.3-0.8-2.7-1.1-4.2-1.1c-1.6,0-3,0.4-4.2,1.1
		c-1.3,0.8-2.3,1.9-3,3.3c-0.7,1.4-1.1,3.1-1.1,4.9c0,1.9,0.4,3.5,1.1,4.9c0.7,1.4,1.8,2.5,3,3.3c1.3,0.8,2.7,1.1,4.2,1.1
		C344.5,46.2,345.9,45.9,347.2,45.1z"/>
	<path class="st1" d="M404.4,18.2v37.4H394l-14.2-17v17h-12.3V18.2h10.4l14.2,17v-17H404.4z"/>
	<path class="st1" d="M409.5,54.2c-1.3-1.3-2-3-2-5c0-2,0.7-3.7,2-4.9c1.3-1.3,3-1.9,5-1.9c2,0,3.7,0.6,5,1.9c1.3,1.3,2,2.9,2,4.9
		c0,2-0.7,3.7-2,5c-1.3,1.3-3,1.9-5,1.9C412.5,56.1,410.8,55.5,409.5,54.2z"/>
	<path class="st1" d="M424.6,18.2h12.6v37.4h-12.6V18.2z"/>
	<path class="st1" d="M451,53.9c-3.2-1.7-5.7-4-7.5-7c-1.8-3-2.7-6.3-2.7-10.1c0-3.7,0.9-7.1,2.7-10.1c1.8-3,4.3-5.3,7.5-7
		c3.2-1.7,6.8-2.5,10.8-2.5c4,0,7.6,0.8,10.8,2.5c3.2,1.7,5.7,4,7.5,7c1.8,3,2.7,6.3,2.7,10.1c0,3.7-0.9,7.1-2.7,10.1
		c-1.8,3-4.3,5.3-7.5,7s-6.8,2.5-10.8,2.5C457.8,56.4,454.2,55.6,451,53.9z M466.1,45.1c1.3-0.8,2.3-1.9,3-3.3
		c0.7-1.4,1.1-3.1,1.1-4.9c0-1.9-0.4-3.5-1.1-4.9c-0.7-1.4-1.8-2.5-3-3.3c-1.3-0.8-2.7-1.1-4.2-1.1c-1.6,0-3,0.4-4.2,1.1
		c-1.3,0.8-2.3,1.9-3,3.3c-0.7,1.4-1.1,3.1-1.1,4.9c0,1.9,0.4,3.5,1.1,4.9c0.7,1.4,1.8,2.5,3,3.3c1.3,0.8,2.7,1.1,4.2,1.1
		C463.4,46.2,464.8,45.9,466.1,45.1z"/>
</g>
<g>
	<path class="st1" d="M86.1,67.1c0,2.5-1.9,4.1-4.9,4.1h-2.6v3.3h-2.1V63h4.7C84.2,63,86.1,64.5,86.1,67.1z M84,67.1
		c0-1.4-1-2.3-2.8-2.3h-2.5v4.6h2.5C83,69.4,84,68.5,84,67.1z"/>
	<path class="st1" d="M86.9,70.1c0-2.6,2-4.5,4.7-4.5c2.7,0,4.7,1.9,4.7,4.5c0,2.6-2,4.5-4.7,4.5C88.8,74.6,86.9,72.7,86.9,70.1z
		 M94.2,70.1c0-1.7-1.1-2.7-2.6-2.7c-1.5,0-2.6,1.1-2.6,2.7c0,1.7,1.1,2.7,2.6,2.7C93,72.8,94.2,71.8,94.2,70.1z"/>
	<path class="st1" d="M111.2,65.7l-3.2,8.8h-2l-2.3-6l-2.3,6h-2l-3.2-8.8h1.9l2.3,6.5l2.4-6.5h1.7l2.4,6.5l2.4-6.5H111.2z"/>
	<path class="st1" d="M120.2,70.7h-6.9c0.2,1.3,1.3,2.1,2.8,2.1c1,0,1.8-0.3,2.4-1l1.1,1.3c-0.8,0.9-2,1.4-3.5,1.4
		c-2.9,0-4.8-1.9-4.8-4.5c0-2.6,1.9-4.5,4.5-4.5c2.6,0,4.4,1.8,4.4,4.5C120.2,70.3,120.2,70.6,120.2,70.7z M113.3,69.4h5
		c-0.2-1.3-1.1-2.1-2.5-2.1C114.5,67.2,113.5,68.1,113.3,69.4z"/>
	<path class="st1" d="M126.8,65.6v2c-0.2,0-0.3,0-0.5,0c-1.6,0-2.5,0.9-2.5,2.7v4.3h-2.1v-8.8h2V67
		C124.2,66.1,125.3,65.6,126.8,65.6z"/>
	<path class="st1" d="M136.2,70.7h-6.9c0.2,1.3,1.3,2.1,2.8,2.1c1,0,1.8-0.3,2.4-1l1.1,1.3c-0.8,0.9-2,1.4-3.5,1.4
		c-2.9,0-4.8-1.9-4.8-4.5c0-2.6,1.9-4.5,4.5-4.5c2.6,0,4.4,1.8,4.4,4.5C136.2,70.3,136.2,70.6,136.2,70.7z M129.3,69.4h5
		c-0.2-1.3-1.1-2.1-2.5-2.1C130.5,67.2,129.5,68.1,129.3,69.4z"/>
	<path class="st1" d="M146.4,62.3v12.2h-2v-1.1c-0.7,0.8-1.7,1.2-2.9,1.2c-2.5,0-4.4-1.8-4.4-4.5c0-2.7,1.9-4.5,4.4-4.5
		c1.1,0,2.1,0.4,2.8,1.2v-4.5H146.4z M144.4,70.1c0-1.7-1.1-2.7-2.6-2.7s-2.6,1.1-2.6,2.7c0,1.7,1.1,2.7,2.6,2.7
		S144.4,71.8,144.4,70.1z"/>
	<path class="st1" d="M162.5,70.1c0,2.7-1.9,4.5-4.5,4.5c-1.2,0-2.2-0.4-2.9-1.2v1.1h-2V62.3h2.1v4.5c0.7-0.8,1.7-1.2,2.8-1.2
		C160.6,65.6,162.5,67.4,162.5,70.1z M160.4,70.1c0-1.7-1.1-2.7-2.6-2.7s-2.6,1.1-2.6,2.7c0,1.7,1.1,2.7,2.6,2.7
		S160.4,71.8,160.4,70.1z"/>
	<path class="st1" d="M172,65.7l-4.1,9.5c-0.8,2-1.9,2.6-3.4,2.6c-0.9,0-1.8-0.3-2.3-0.8l0.8-1.5c0.4,0.4,1,0.6,1.5,0.6
		c0.7,0,1.2-0.3,1.5-1.2l0.1-0.3l-3.8-8.8h2.1l2.8,6.5l2.8-6.5H172z"/>
	<path class="st1" d="M187.7,71.4c0,2-1.5,3.1-4.5,3.1h-5.7V63h5.4c2.8,0,4.2,1.2,4.2,3c0,1.2-0.6,2.1-1.5,2.5
		C186.9,68.9,187.7,69.9,187.7,71.4z M179.6,64.7v3.2h3c1.5,0,2.3-0.5,2.3-1.6c0-1.1-0.8-1.6-2.3-1.6H179.6z M185.5,71.1
		c0-1.2-0.9-1.7-2.5-1.7h-3.5v3.3h3.5C184.7,72.8,185.5,72.3,185.5,71.1z"/>
	<path class="st1" d="M196.8,69.3v5.1h-1.9v-1.1c-0.5,0.8-1.4,1.2-2.8,1.2c-2,0-3.3-1.1-3.3-2.6c0-1.5,1-2.6,3.6-2.6h2.3v-0.1
		c0-1.2-0.7-1.9-2.2-1.9c-1,0-2,0.3-2.7,0.9l-0.8-1.5c0.9-0.7,2.3-1.1,3.7-1.1C195.3,65.6,196.8,66.8,196.8,69.3z M194.7,71.7v-1
		h-2.1c-1.4,0-1.8,0.5-1.8,1.2c0,0.7,0.6,1.2,1.7,1.2C193.5,73.1,194.4,72.6,194.7,71.7z"/>
	<path class="st1" d="M198,73.6l0.8-1.6c0.8,0.5,2,0.9,3.1,0.9c1.3,0,1.8-0.4,1.8-1c0-1.7-5.4-0.1-5.4-3.6c0-1.7,1.5-2.7,3.9-2.7
		c1.2,0,2.5,0.3,3.3,0.8l-0.8,1.6c-0.8-0.5-1.7-0.7-2.5-0.7c-1.2,0-1.8,0.4-1.8,1c0,1.8,5.4,0.2,5.4,3.6c0,1.6-1.5,2.7-4,2.7
		C200.2,74.6,198.8,74.2,198,73.6z"/>
	<path class="st1" d="M212.5,74c-0.5,0.4-1.2,0.6-2,0.6c-1.9,0-3-1-3-3v-4.2h-1.4v-1.6h1.4v-2h2.1v2h2.3v1.6h-2.3v4.2
		c0,0.9,0.4,1.3,1.2,1.3c0.4,0,0.8-0.1,1.2-0.4L212.5,74z"/>
	<path class="st1" d="M222.3,65.7l-4.1,9.5c-0.8,2-1.9,2.6-3.4,2.6c-0.9,0-1.8-0.3-2.3-0.8l0.8-1.5c0.4,0.4,1,0.6,1.5,0.6
		c0.7,0,1.2-0.3,1.5-1.2l0.1-0.3l-3.8-8.8h2.1l2.8,6.5l2.8-6.5H222.3z"/>
	<path class="st1" d="M222.1,70.1c0-2.6,2-4.5,4.7-4.5c2.7,0,4.7,1.9,4.7,4.5c0,2.6-2,4.5-4.7,4.5C224.1,74.6,222.1,72.7,222.1,70.1
		z M229.4,70.1c0-1.7-1.1-2.7-2.6-2.7c-1.5,0-2.6,1.1-2.6,2.7c0,1.7,1.1,2.7,2.6,2.7C228.3,72.8,229.4,71.8,229.4,70.1z"/>
	<path class="st1" d="M241.6,69.4v5h-2.1v-4.8c0-1.6-0.8-2.3-2.1-2.3c-1.5,0-2.4,0.9-2.4,2.6v4.4h-2.1v-8.8h2v1.1
		c0.7-0.8,1.7-1.2,3-1.2C240,65.6,241.6,66.8,241.6,69.4z"/>
</g>
<path class="st1" d="M13.4,71.7c-3.9,0-7.6-1.9-9.8-5.2c-1.3-2-2.1-4.3-2.1-6.7c0-0.1,0.1-45.7,0.1-45.9c0-1.9,0.5-3.8,1.3-5.4
	c0.8-1.6,2-3,3.5-4.1c2-1.5,4.3-2.3,6.7-2.3c0.1,0,0.2,0,0.3,0c1.7,0,3.4,0.4,5,1.2c1,0.4,2,0.9,3.1,1.5l35.8,20.7
	c0.2,0.1,2,1.2,3.8,3c0.7,0.7,1.4,1.4,1.9,2.2l0,0c1.2,1.9,1.9,4.1,1.9,6.4c0,3-1.1,5.8-3.1,8c-0.6,0.7-1.3,1.3-2,1.8
	c-0.8,0.6-1.6,1.1-2.5,1.7L21.6,69.3c-0.4,0.2-2.6,1.4-5.4,2.1c-0.4,0.1-0.8,0.2-1.2,0.2l-0.2,0C14.5,71.6,14,71.7,13.4,71.7z"/>
<path class="st2" d="M57.7,32.2c-1.4-1.4-2.9-2.2-2.9-2.2L36.5,19.3l2.8,8l8.6,5.1l-5.7,6.5l1.7,11.5l11-6.4
	c0.8-0.5,1.5-0.9,2.1-1.4c0.5-0.3,0.9-0.7,1.2-1.1c1.1-1.2,1.8-2.8,1.8-4.5c0-1.3-0.4-2.6-1.1-3.6C58.5,33,58.1,32.6,57.7,32.2z"/>
<path class="st0" d="M22.3,50.8l3.6-16.5L16.3,20l13.6,3.4l5-8.6l-2.8,2L19,9.2c-0.9-0.5-1.8-0.9-2.6-1.3c-0.9-0.4-1.9-0.7-3-0.7
	c0,0,0,0-0.1,0c-1.5,0-2.8,0.5-3.9,1.3c-1.6,1.2-2.7,3.1-2.7,5.3c0,0.3-0.1,45.6-0.1,45.9c0,1.4,0.4,2.7,1.2,3.8
	c1.2,1.8,3.2,2.9,5.5,2.9c0.3,0,0.6,0,0.9-0.1c0.3,0,0.5-0.1,0.8-0.1c2.2-0.5,3.9-1.5,3.9-1.5l19.6-11.3l5.7-0.3l-9.6-8.6L22.3,50.8
	z"/>
</svg>
