<?xml version="1.0" encoding="utf-8"?>
<!-- Generator: Adobe Illustrator 28.1.0, SVG Export Plug-In . SVG Version: 6.00 Build 0)  -->
<svg version="1.1" id="Слой_1" xmlns="http://www.w3.org/2000/svg" xmlns:xlink="http://www.w3.org/1999/xlink" x="0px" y="0px"
	 width="686.1px" height="103.2px" viewBox="0 0 686.1 103.2" style="enable-background:new 0 0 686.1 103.2;" xml:space="preserve"
	>
<style type="text/css">
	.st0{fill:none;}
	.st1{fill:#CCCBCB;}
	.st2{fill:#FFFFFF;}
	.st3{fill:#E0203C;}
	.st4{fill:#1B2E5A;}
</style>
<g>
	<g>
		<g>
			<path class="st0" d="M29.7,66.7l4.7-21.5L22,26.7l17.6,4.4L46.2,20l-3.6,2.5l-17.1-9.9c-1.2-0.7-2.3-1.2-3.4-1.6
				c-1.2-0.6-2.5-0.9-3.9-0.9c0,0-0.1,0-0.1,0c-1.9,0-3.6,0.7-5.1,1.7c-2.1,1.6-3.5,4.1-3.5,6.9c0,0.4-0.1,59.3-0.1,59.7
				c0,1.8,0.6,3.5,1.5,4.9c1.6,2.3,4.2,3.8,7.2,3.8c0.4,0,0.8-0.1,1.1-0.1c0.3-0.1,0.7-0.1,1-0.2c2.8-0.6,5.1-2,5.1-2l25.4-14.7
				l7.4-0.3L45.9,58.6L29.7,66.7z"/>
			<path class="st0" d="M51.8,36.1L63,42.8l-7.4,8.4l2.2,15l14.3-8.3c1.1-0.6,2-1.2,2.7-1.8c0.6-0.4,1.1-0.9,1.6-1.4
				c1.4-1.5,2.3-3.6,2.3-5.8c0-1.7-0.5-3.4-1.4-4.7c-0.4-0.6-0.9-1.2-1.5-1.7c-1.8-1.8-3.7-2.9-3.7-2.9L48.2,25.8L51.8,36.1z"/>
			<path class="st1" d="M83.9,39.9L83.9,39.9c-0.8-1.2-1.7-2.2-2.7-3.2c-2.4-2.3-4.7-3.7-5.2-4L29.4,5.9c-1.4-0.8-2.8-1.5-4.1-2
				c-2.2-1.1-4.6-1.6-7-1.6c-0.2,0-0.3,0-0.5,0c-3.4,0.1-6.6,1.2-9.4,3.3C6.5,7,4.8,9,3.6,11.2c-1.2,2.3-1.8,4.9-1.8,7.6
				c0,0.3,0,17.7,0,30.8l0,17.6c0,6.6,0,11.1,0,11.2c0,3.3,1,6.5,2.9,9.3c3.1,4.5,8.2,7.2,13.6,7.2c0.9,0,1.6-0.1,2-0.2l0.3,0
				c0.5-0.1,1.1-0.2,1.6-0.3c3.8-0.8,6.7-2.5,7.3-2.8L76,64.7c1.2-0.7,2.4-1.5,3.4-2.2c1-0.7,1.9-1.5,2.8-2.5
				c2.8-3.1,4.4-7,4.4-11.1C86.6,45.7,85.7,42.6,83.9,39.9z"/>
			<path class="st2" d="M18.2,93.9c-5.1,0-9.9-2.5-12.7-6.7c-1.8-2.6-2.7-5.6-2.7-8.7c0-0.2,0.1-59.4,0.1-59.7
				c0-2.5,0.6-4.9,1.7-7.1c1.1-2.1,2.6-3.9,4.5-5.3c2.6-1.9,5.6-3,8.8-3.1c0.1,0,0.3,0,0.4,0c2.3,0,4.5,0.5,6.6,1.5
				c1.3,0.5,2.7,1.2,4,2l46.6,26.9c0.3,0.2,2.7,1.6,5,3.9c1,0.9,1.8,1.9,2.5,2.9l0,0.1c1.6,2.5,2.5,5.4,2.5,8.4
				c0,3.8-1.4,7.5-4.1,10.4c-0.8,0.9-1.7,1.7-2.6,2.3c-1,0.7-2.1,1.5-3.3,2.2L28.9,90.7c-0.5,0.3-3.4,1.9-7,2.7
				c-0.5,0.1-1,0.2-1.5,0.3l-0.3,0C19.7,93.8,19,93.9,18.2,93.9z"/>
			<path class="st3" d="M75.8,42.5c-1.8-1.8-3.7-2.9-3.7-2.9L48.2,25.8l3.6,10.4L63,42.8l-7.4,8.4l2.2,15l14.3-8.3
				c1.1-0.6,2-1.2,2.7-1.8c0.6-0.4,1.1-0.9,1.6-1.4c1.4-1.5,2.3-3.6,2.3-5.8c0-1.7-0.5-3.4-1.4-4.7C76.9,43.5,76.4,43,75.8,42.5z"/>
			<path class="st4" d="M29.7,66.7l4.7-21.5L22,26.7l17.6,4.4L46.2,20l-3.6,2.5l-17.1-9.9c-1.2-0.7-2.3-1.2-3.4-1.6
				c-1.2-0.6-2.5-0.9-3.9-0.9c0,0-0.1,0-0.1,0c-1.9,0-3.6,0.7-5.1,1.7c-2.1,1.6-3.5,4.1-3.5,6.9c0,0.4-0.1,59.3-0.1,59.7
				c0,1.8,0.6,3.5,1.5,4.9c1.6,2.3,4.2,3.8,7.2,3.8c0.4,0,0.8-0.1,1.1-0.1c0.3-0.1,0.7-0.1,1-0.2c2.8-0.6,5.1-2,5.1-2l25.4-14.7
				l7.4-0.3L45.9,58.6L29.7,66.7z"/>
		</g>
	</g>
</g>
<g>
	<path class="st2" d="M145.4,52.1c1.6,2,2.4,4.5,2.4,7.4c0,4.3-1.8,7.6-5.3,9.9c-3.5,2.3-8.6,3.5-15.3,3.5H99.9V24.3h26
		c6.5,0,11.4,1.2,14.7,3.5c3.3,2.3,5,5.4,5,9.2c0,2.3-0.6,4.3-1.7,6.1c-1.1,1.8-2.8,3.3-5,4.4C141.6,48.6,143.8,50.1,145.4,52.1z
		 M116,35.7V43h7.6c3.6,0,5.3-1.2,5.3-3.6c0-2.4-1.8-3.6-5.3-3.6H116z M131.3,57.6c0-2.5-1.8-3.8-5.4-3.8H116v7.6h9.9
		C129.4,61.4,131.3,60.2,131.3,57.6z"/>
	<path class="st2" d="M173,60.7h-4.4v12.2h-16.4V24.3h23.4c4.5,0,8.4,0.7,11.7,2.2c3.3,1.5,5.9,3.6,7.7,6.4c1.8,2.8,2.7,6,2.7,9.7
		c0,3.5-0.8,6.5-2.4,9.1c-1.6,2.6-3.8,4.7-6.8,6.2l10.2,15h-17.5L173,60.7z M179.5,38.4c-1.1-1-2.8-1.5-5-1.5h-6v11.4h6
		c2.2,0,3.9-0.5,5-1.5c1.1-1,1.7-2.4,1.7-4.2C181.2,40.8,180.6,39.4,179.5,38.4z"/>
	<path class="st2" d="M202.5,24.3h16.4v48.6h-16.4V24.3z"/>
	<path class="st2" d="M257.6,47.3h14.2v20.6c-2.9,2-6.2,3.5-10,4.6c-3.8,1.1-7.5,1.6-11.2,1.6c-5.2,0-9.8-1.1-14-3.2
		c-4.1-2.2-7.4-5.2-9.7-9c-2.3-3.9-3.5-8.3-3.5-13.2c0-4.9,1.2-9.3,3.5-13.2c2.3-3.9,5.6-6.9,9.8-9c4.2-2.2,8.9-3.2,14.2-3.2
		c4.8,0,9,0.8,12.8,2.4c3.8,1.6,6.9,3.9,9.4,7l-10.5,9.2c-3.1-3.6-6.7-5.3-10.9-5.3c-3.6,0-6.5,1.1-8.6,3.3
		c-2.1,2.2-3.2,5.1-3.2,8.9c0,3.7,1.1,6.6,3.2,8.8c2.1,2.2,4.9,3.3,8.4,3.3c2.1,0,4.1-0.4,6-1.2V47.3z"/>
	<path class="st2" d="M325.4,24.3v48.6H309V55h-15.1v17.9h-16.4V24.3h16.4v17.2H309V24.3H325.4z"/>
	<path class="st2" d="M342.5,37h-14.2V24.3h44.9V37h-14.2v35.9h-16.4V37z"/>
	<path class="st2" d="M416.4,60.5v12.4H376V24.3h39.5v12.4h-23.4v5.7h20.6v11.8h-20.6v6.4H416.4z"/>
	<path class="st2" d="M432.7,70.8c-4.2-2.2-7.4-5.2-9.8-9.1c-2.4-3.9-3.5-8.2-3.5-13.1s1.2-9.2,3.5-13.1c2.4-3.9,5.6-6.9,9.8-9.1
		c4.2-2.2,8.9-3.3,14.1-3.3c5.2,0,9.9,1.1,14.1,3.3c4.2,2.2,7.4,5.2,9.8,9.1c2.4,3.9,3.5,8.2,3.5,13.1s-1.2,9.2-3.5,13.1
		c-2.4,3.9-5.6,6.9-9.8,9.1c-4.2,2.2-8.9,3.3-14.1,3.3C441.6,74,436.9,72.9,432.7,70.8z M452.3,59.3c1.6-1,3-2.4,3.9-4.2
		c1-1.8,1.5-4,1.5-6.4c0-2.5-0.5-4.6-1.5-6.4c-1-1.8-2.3-3.2-3.9-4.2c-1.6-1-3.5-1.5-5.5-1.5c-2,0-3.9,0.5-5.5,1.5
		c-1.6,1-3,2.4-3.9,4.2c-1,1.8-1.5,4-1.5,6.4c0,2.5,0.5,4.6,1.5,6.4c1,1.8,2.3,3.2,3.9,4.2c1.6,1,3.5,1.5,5.5,1.5
		C448.9,60.8,450.7,60.3,452.3,59.3z"/>
	<path class="st2" d="M526.8,24.3v48.6h-13.5l-18.5-22.1v22.1h-16V24.3h13.5l18.5,22.1V24.3H526.8z"/>
	<path class="st2" d="M533.3,71.1c-1.7-1.7-2.6-3.9-2.6-6.5c0-2.6,0.9-4.8,2.6-6.4c1.7-1.6,3.9-2.5,6.6-2.5c2.6,0,4.8,0.8,6.6,2.5
		c1.7,1.6,2.6,3.8,2.6,6.4c0,2.6-0.9,4.8-2.6,6.5c-1.7,1.7-3.9,2.5-6.6,2.5C537.3,73.6,535.1,72.8,533.3,71.1z"/>
	<path class="st2" d="M553,24.3h16.4v48.6H553V24.3z"/>
	<path class="st2" d="M587.3,70.8c-4.2-2.2-7.4-5.2-9.8-9.1c-2.4-3.9-3.5-8.2-3.5-13.1s1.2-9.2,3.5-13.1c2.4-3.9,5.6-6.9,9.8-9.1
		c4.2-2.2,8.9-3.3,14.1-3.3c5.2,0,9.9,1.1,14.1,3.3c4.2,2.2,7.4,5.2,9.8,9.1c2.4,3.9,3.5,8.2,3.5,13.1s-1.2,9.2-3.5,13.1
		c-2.4,3.9-5.6,6.9-9.8,9.1c-4.2,2.2-8.9,3.3-14.1,3.3C596.2,74,591.5,72.9,587.3,70.8z M607,59.3c1.6-1,3-2.4,3.9-4.2
		c1-1.8,1.5-4,1.5-6.4c0-2.5-0.5-4.6-1.5-6.4c-1-1.8-2.3-3.2-3.9-4.2c-1.6-1-3.5-1.5-5.5-1.5c-2,0-3.9,0.5-5.5,1.5
		c-1.6,1-3,2.4-3.9,4.2c-1,1.8-1.5,4-1.5,6.4c0,2.5,0.5,4.6,1.5,6.4c1,1.8,2.3,3.2,3.9,4.2c1.6,1,3.5,1.5,5.5,1.5
		C603.5,60.8,605.3,60.3,607,59.3z"/>
</g>
<g>
	<path class="st2" d="M112.8,87.9c0,3.3-2.4,5.3-6.4,5.3H103v4.3h-2.8v-15h6.2C110.3,82.5,112.8,84.5,112.8,87.9z M110,87.9
		c0-1.9-1.3-3-3.7-3H103v5.9h3.2C108.7,90.8,110,89.7,110,87.9z"/>
	<path class="st2" d="M113.8,91.8c0-3.4,2.6-5.8,6.1-5.8c3.5,0,6.1,2.4,6.1,5.8c0,3.4-2.5,5.9-6.1,5.9
		C116.3,97.6,113.8,95.2,113.8,91.8z M123.2,91.8c0-2.2-1.5-3.6-3.4-3.6c-1.9,0-3.4,1.4-3.4,3.6c0,2.2,1.5,3.6,3.4,3.6
		C121.8,95.4,123.2,94,123.2,91.8z"/>
	<path class="st2" d="M145.4,86.1l-4.2,11.4h-2.6l-2.9-7.9l-3,7.9h-2.6L126,86.1h2.5l3,8.4l3.1-8.4h2.2l3.1,8.5l3.1-8.5H145.4z"/>
	<path class="st2" d="M157.1,92.6h-9c0.3,1.7,1.7,2.7,3.7,2.7c1.3,0,2.3-0.4,3.1-1.2l1.4,1.6c-1,1.2-2.6,1.9-4.6,1.9
		c-3.8,0-6.3-2.5-6.3-5.9c0-3.4,2.5-5.8,5.9-5.8c3.3,0,5.8,2.3,5.8,5.9C157.2,92.1,157.1,92.4,157.1,92.6z M148.1,90.9h6.5
		c-0.2-1.6-1.5-2.8-3.2-2.8C149.7,88.1,148.4,89.2,148.1,90.9z"/>
	<path class="st2" d="M165.7,85.9v2.5c-0.2,0-0.4-0.1-0.6-0.1c-2,0-3.3,1.2-3.3,3.5v5.5h-2.7V86.1h2.5v1.7
		C162.4,86.5,163.8,85.9,165.7,85.9z"/>
	<path class="st2" d="M177.9,92.6h-9c0.3,1.7,1.7,2.7,3.7,2.7c1.3,0,2.3-0.4,3.1-1.2l1.4,1.6c-1,1.2-2.6,1.9-4.6,1.9
		c-3.8,0-6.3-2.5-6.3-5.9c0-3.4,2.5-5.8,5.9-5.8c3.3,0,5.8,2.3,5.8,5.9C178,92.1,177.9,92.4,177.9,92.6z M168.9,90.9h6.5
		c-0.2-1.6-1.5-2.8-3.2-2.8C170.5,88.1,169.2,89.2,168.9,90.9z"/>
	<path class="st2" d="M191.2,81.6v15.9h-2.6V96c-0.9,1.1-2.2,1.6-3.8,1.6c-3.3,0-5.8-2.3-5.8-5.9c0-3.5,2.5-5.8,5.8-5.8
		c1.5,0,2.8,0.5,3.7,1.5v-5.9H191.2z M188.6,91.8c0-2.2-1.5-3.6-3.4-3.6c-1.9,0-3.4,1.4-3.4,3.6c0,2.2,1.5,3.6,3.4,3.6
		C187.1,95.4,188.6,94,188.6,91.8z"/>
	<path class="st2" d="M212.1,91.8c0,3.5-2.5,5.9-5.8,5.9c-1.6,0-2.9-0.5-3.8-1.6v1.5H200V81.6h2.7v5.8c0.9-1,2.2-1.5,3.7-1.5
		C209.6,85.9,212.1,88.2,212.1,91.8z M209.4,91.8c0-2.2-1.5-3.6-3.4-3.6c-1.9,0-3.4,1.4-3.4,3.6c0,2.2,1.5,3.6,3.4,3.6
		C207.9,95.4,209.4,94,209.4,91.8z"/>
	<path class="st2" d="M224.4,86.1l-5.3,12.3c-1,2.6-2.5,3.4-4.4,3.4c-1.1,0-2.3-0.4-3.1-1l1.1-2c0.5,0.5,1.2,0.8,2,0.8
		c0.9,0,1.5-0.4,2-1.6l0.2-0.4l-5-11.5h2.8l3.6,8.4l3.6-8.4H224.4z"/>
	<path class="st2" d="M244.9,93.4c0,2.6-2,4.1-5.9,4.1h-7.4v-15h7c3.6,0,5.5,1.5,5.5,3.9c0,1.5-0.8,2.7-1.9,3.3
		C243.8,90.2,244.9,91.5,244.9,93.4z M234.4,84.7v4.1h3.9c1.9,0,3-0.7,3-2.1c0-1.4-1.1-2.1-3-2.1H234.4z M242.1,93.2
		c0-1.5-1.1-2.2-3.2-2.2h-4.5v4.3h4.5C241,95.3,242.1,94.6,242.1,93.2z"/>
	<path class="st2" d="M256.8,90.8v6.7h-2.5v-1.4c-0.6,1-1.9,1.5-3.6,1.5c-2.6,0-4.3-1.4-4.3-3.4c0-1.9,1.3-3.4,4.7-3.4h2.9v-0.2
		c0-1.6-0.9-2.5-2.8-2.5c-1.3,0-2.6,0.4-3.5,1.1l-1-1.9c1.2-0.9,3-1.4,4.8-1.4C254.8,85.9,256.8,87.5,256.8,90.8z M254.1,93.9v-1.3
		h-2.8c-1.8,0-2.3,0.7-2.3,1.5c0,1,0.8,1.6,2.2,1.6C252.5,95.7,253.6,95.1,254.1,93.9z"/>
	<path class="st2" d="M258.3,96.4l1-2c1,0.7,2.5,1.1,4,1.1c1.7,0,2.4-0.5,2.4-1.3c0-2.2-7.1-0.1-7.1-4.7c0-2.2,1.9-3.6,5-3.6
		c1.5,0,3.2,0.4,4.3,1l-1,2c-1.1-0.6-2.2-0.9-3.3-0.9c-1.6,0-2.4,0.5-2.4,1.3c0,2.3,7.1,0.3,7.1,4.7c0,2.1-2,3.5-5.2,3.5
		C261.2,97.6,259.3,97.1,258.3,96.4z"/>
	<path class="st2" d="M277.2,96.9c-0.6,0.5-1.6,0.8-2.6,0.8c-2.5,0-3.9-1.3-3.9-3.8v-5.5h-1.9v-2.1h1.9v-2.6h2.7v2.6h3.1v2.1h-3.1
		v5.4c0,1.1,0.6,1.7,1.6,1.7c0.6,0,1.1-0.1,1.5-0.5L277.2,96.9z"/>
	<path class="st2" d="M289.9,86.1l-5.3,12.3c-1,2.6-2.5,3.4-4.4,3.4c-1.1,0-2.3-0.4-3.1-1l1.1-2c0.5,0.5,1.2,0.8,2,0.8
		c0.9,0,1.5-0.4,2-1.6l0.2-0.4l-5-11.5h2.8l3.6,8.4l3.6-8.4H289.9z"/>
	<path class="st2" d="M289.6,91.8c0-3.4,2.6-5.8,6.1-5.8c3.5,0,6.1,2.4,6.1,5.8c0,3.4-2.5,5.9-6.1,5.9
		C292.2,97.6,289.6,95.2,289.6,91.8z M299.1,91.8c0-2.2-1.5-3.6-3.4-3.6c-1.9,0-3.4,1.4-3.4,3.6c0,2.2,1.5,3.6,3.4,3.6
		C297.7,95.4,299.1,94,299.1,91.8z"/>
	<path class="st2" d="M315,91v6.5h-2.7v-6.2c0-2-1-3-2.7-3c-1.9,0-3.2,1.2-3.2,3.4v5.8h-2.7V86.1h2.5v1.5c0.9-1,2.3-1.6,3.9-1.6
		C312.9,85.9,315,87.5,315,91z"/>
</g>
</svg>
