<svg id="Слой_1" data-name="Слой 1" xmlns="http://www.w3.org/2000/svg" xmlns:xlink="http://www.w3.org/1999/xlink" viewBox="0 0 509.97 508.81"><defs><style>.cls-1{fill:url(#Безымянный_градиент_72);}.cls-2{fill:url(#Безымянный_градиент_72-2);}.cls-3{fill:url(#Безымянный_градиент_72-3);}.cls-4{fill:url(#Безымянный_градиент_72-4);}</style><linearGradient id="Безымянный_градиент_72" x1="88.89" y1="259.37" x2="88.89" y2="2.91" gradientUnits="userSpaceOnUse"><stop offset="0" stop-color="#60d6ce"/><stop offset="1" stop-color="#142163"/></linearGradient><linearGradient id="Безымянный_градиент_72-2" x1="257.6" y1="85.89" x2="509.73" y2="85.89" xlink:href="#Безымянный_градиент_72"/><linearGradient id="Безымянный_градиент_72-3" x1="427.42" y1="252.18" x2="431.28" y2="512.83" xlink:href="#Безымянный_градиент_72"/><linearGradient id="Безымянный_градиент_72-4" x1="258.57" y1="423.05" x2="3.44" y2="423.05" xlink:href="#Безымянный_градиент_72"/></defs><title>pocketnet logo цвет</title><path class="cls-1" d="M109.31,337.29c-.24-.44-.48-.88-.73-1.32h0a169.39,169.39,0,0,1,66.19-229.64l-43-64.25C112.3,53,99.2,63.59,83,79.83a246.84,246.84,0,0,0-41,294.49h0a38.85,38.85,0,0,1-6.36,46.5L3,453.34l54.45,54.45L91,474.1a116.15,116.15,0,0,0,17.51-23.2,115.8,115.8,0,0,0,.8-113.61Z"/><path class="cls-2" d="M432.9,80a246.84,246.84,0,0,0-294.49-41h0a38.66,38.66,0,0,1-19.06,5A38.71,38.71,0,0,1,91.91,32.56L59.39,0,4.94,54.45,38.63,88a115.35,115.35,0,0,0,80.72,32.8,115.2,115.2,0,0,0,57.41-15.22h0a169.39,169.39,0,0,1,229.64,66.19l65.52-41.18C461,111.11,449.14,96.2,432.9,80Z"/><path class="cls-3" d="M433,429.38a246.84,246.84,0,0,0,41-294.49h0a38.85,38.85,0,0,1,6.36-46.5L513,55.87,458.53,1.42,425,35.11a115.79,115.79,0,0,0-17.58,138.13h0A169.39,169.39,0,0,1,341.2,402.89l44.33,63.64C405,455.59,416.77,445.62,433,429.38Z"/><path class="cls-4" d="M477.55,420.8a115.79,115.79,0,0,0-138.13-17.58h0a170.11,170.11,0,0,1-230.1-65.92h0a115.8,115.8,0,0,1-.8,113.61,247,247,0,0,0,269.25,19h0a38.85,38.85,0,0,1,46.5,6.36l32.52,32.56,54.45-54.45Z"/></svg>