<?xml version="1.0" encoding="utf-8"?>
<!-- Generator: Adobe Illustrator 28.1.0, SVG Export Plug-In . SVG Version: 6.00 Build 0)  -->
<svg version="1.1" id="Слой_1" xmlns="http://www.w3.org/2000/svg" xmlns:xlink="http://www.w3.org/1999/xlink" x="0px" y="0px"
	 width="510px" height="508.8px" viewBox="0 0 510 508.8" style="enable-background:new 0 0 510 508.8;" xml:space="preserve">
<style type="text/css">
	.st0{fill:none;}
	.st1{fill:#669933;}
	.st2{fill:#FFFFFF;}
	.st3{fill:#99D138;}
</style>
<g>
	<g>
		<g>
			<path class="st0" d="M186.7,351l24.4-112.3l-64.7-96.8l92.2,23.1l34.1-58.1l-18.9,13.3l-89.2-51.5c-6.4-3.7-12.1-6.4-17.6-8.5
				c-6.1-3-12.9-4.9-20.1-4.9c-0.2,0-0.3,0-0.4,0c-9.9,0.1-19,3.5-26.5,9c-11.1,8.2-18.4,21.4-18.4,36.3c0,1.9-0.4,310.1-0.4,311.8
				c0,9.5,2.9,18.2,7.9,25.5c8.2,12,21.9,19.8,37.4,19.8c2.1,0,4-0.3,6-0.6c1.8-0.3,3.6-0.6,5.3-1c14.8-3.3,26.8-10.2,26.8-10.2
				l132.9-76.7l38.7-1.7l-65.1-58.6L186.7,351z"/>
			<path class="st0" d="M302.2,191.4l58.1,34.8l-38.7,44l11.7,78.2l74.7-43.2c5.5-3.2,10.2-6.3,14.3-9.5c3.1-2,5.8-4.5,8.3-7.2
				c7.4-8.1,12-18.7,12-30.5c0-9.1-2.8-17.6-7.4-24.7c-2.2-3.3-4.8-6.2-7.8-8.9c-9.6-9.5-19.5-15.2-19.5-15.2l-124.8-72.1
				L302.2,191.4z"/>
			<path class="st1" d="M469.8,211.2l-0.2-0.3c-3.8-5.8-8.5-11.2-13.9-16.2c-12.4-12.1-24.7-19.5-27.1-20.9L185.1,33.3
				c-7.3-4.2-14.4-7.7-21.6-10.6c-11.7-5.5-24-8.3-36.6-8.3c-0.8,0-1.7,0-2.4,0.1c-17.7,0.5-34.6,6.4-48.9,17.1
				c-10.5,7.8-19.2,18-25.2,29.6c-6.3,12.1-9.6,25.8-9.6,39.5c0,1.4-0.1,92.6-0.2,161.2l-0.1,92c0,34.4-0.1,58.2-0.1,58.7
				c0,17.4,5.2,34.1,15,48.5c16.1,23.6,42.7,37.7,71.2,37.7c4.5,0,8.2-0.5,10.4-0.8l1.6-0.2c2.7-0.4,5.5-0.9,8.2-1.5
				c19.6-4.4,35.2-13,38.2-14.7l243.6-140.6c6.4-3.7,12.4-7.6,17.7-11.7c5.2-3.6,10-7.8,14.6-12.8c14.7-16,22.8-36.6,22.8-58.2
				C483.7,241.5,478.9,225.3,469.8,211.2z"/>
			<path class="st2" d="M126.5,493c-26.7,0-51.6-13.2-66.6-35.2c-9.2-13.4-14-29.1-14-45.4c0-0.9,0.4-310.5,0.4-311.8
				c0-12.8,3.1-25.6,9-36.9C61,52.9,69.1,43.3,78.9,36c13.4-10,29.3-15.5,45.8-16c0.6,0,1.4-0.1,2.1-0.1c11.8,0,23.3,2.6,34.3,7.9
				c7,2.8,13.9,6.2,21,10.3l243.5,140.6c1.4,0.8,13.9,8.2,26.1,20.1c5,4.6,9.5,9.7,13,15.1l0.2,0.3c8.5,13,13,28.2,13,43.8
				c0,20.1-7.6,39.4-21.3,54.4c-4.4,4.8-8.9,8.8-13.8,12.1c-5.1,3.9-11,7.7-17.2,11.3L182.2,476.5c-2.8,1.6-17.8,9.8-36.7,14.1
				c-2.6,0.6-5.2,1.1-7.8,1.5l-1.5,0.2C134.1,492.5,130.6,493,126.5,493z"/>
			<path class="st3" d="M427.6,224.4c-9.6-9.5-19.5-15.2-19.5-15.2l-124.8-72.1l19,54.2l58.1,34.8l-38.7,44l11.7,78.2l74.7-43.2
				c5.5-3.2,10.2-6.3,14.3-9.5c3.1-2,5.8-4.5,8.3-7.2c7.4-8.1,12-18.7,12-30.5c0-9.1-2.8-17.6-7.4-24.7
				C433.2,230,430.5,227.1,427.6,224.4z"/>
			<path class="st1" d="M186.7,351l24.4-112.3l-64.7-96.8l92.2,23.1l34.1-58.1l-18.9,13.3l-89.2-51.5c-6.4-3.7-12.1-6.4-17.6-8.5
				c-6.1-3-12.9-4.9-20.1-4.9c-0.2,0-0.3,0-0.4,0c-9.9,0.1-19,3.5-26.5,9c-11.1,8.2-18.4,21.4-18.4,36.3c0,1.9-0.4,310.1-0.4,311.8
				c0,9.5,2.9,18.2,7.9,25.5c8.2,12,21.9,19.8,37.4,19.8c2.1,0,4-0.3,6-0.6c1.8-0.3,3.6-0.6,5.3-1c14.8-3.3,26.8-10.2,26.8-10.2
				l132.9-76.7l38.7-1.7l-65.1-58.6L186.7,351z"/>
		</g>
	</g>
</g>
</svg>
