<svg id="Слой_1" data-name="Слой 1" xmlns="http://www.w3.org/2000/svg" xmlns:xlink="http://www.w3.org/1999/xlink" viewBox="0 0 509.97 508.81"><defs><style>.cls-1{fill:url(#Безымянный_градиент_50);}.cls-2{fill:url(#Безымянный_градиент_50-2);}.cls-3{fill:url(#Безымянный_градиент_50-3);}.cls-4{fill:url(#Безымянный_градиент_50-4);}</style><linearGradient id="Безымянный_градиент_50" x1="85.89" y1="259.37" x2="85.89" y2="2.91" gradientUnits="userSpaceOnUse"><stop offset="0" stop-color="#99d138"/><stop offset="1" stop-color="#142163"/></linearGradient><linearGradient id="Безымянный_градиент_50-2" x1="254.6" y1="85.89" x2="506.73" y2="85.89" xlink:href="#Безымянный_градиент_50"/><linearGradient id="Безымянный_градиент_50-3" x1="424.42" y1="252.18" x2="428.28" y2="512.83" xlink:href="#Безымянный_градиент_50"/><linearGradient id="Безымянный_градиент_50-4" x1="255.57" y1="423.05" x2="0.44" y2="423.05" xlink:href="#Безымянный_градиент_50"/></defs><title>pocketnet logo цвет</title><path class="cls-1" d="M106.31,337.29c-.24-.44-.48-.88-.73-1.32h0a169.39,169.39,0,0,1,66.19-229.64l-43-64.25C109.3,53,96.2,63.59,80,79.83a246.84,246.84,0,0,0-41,294.49h0a38.65,38.65,0,0,1,5,19.06,38.71,38.71,0,0,1-11.35,27.44L0,453.34l54.45,54.45L88,474.1a116.15,116.15,0,0,0,17.51-23.2,115.8,115.8,0,0,0,.8-113.61Z"/><path class="cls-2" d="M429.9,80a246.84,246.84,0,0,0-294.49-41h0a38.66,38.66,0,0,1-19.06,5A38.71,38.71,0,0,1,88.91,32.56L56.39,0,1.94,54.45,35.63,88a115.35,115.35,0,0,0,80.72,32.8,115.2,115.2,0,0,0,57.41-15.22h0a169.39,169.39,0,0,1,229.64,66.19l65.52-41.18C458,111.11,446.14,96.2,429.9,80Z"/><path class="cls-3" d="M430,429.38a246.84,246.84,0,0,0,41-294.49h0a38.85,38.85,0,0,1,6.36-46.5L510,55.87,455.53,1.42,422,35.11a115.79,115.79,0,0,0-17.58,138.13h0a169.39,169.39,0,0,1-66.19,229.64l44.33,63.64C402,455.59,413.77,445.62,430,429.38Z"/><path class="cls-4" d="M474.55,420.8a115.79,115.79,0,0,0-138.13-17.58h0a170.11,170.11,0,0,1-230.1-65.92h0a115.8,115.8,0,0,1-.8,113.61,247,247,0,0,0,269.25,19h0a38.85,38.85,0,0,1,46.5,6.36l32.52,32.56,54.45-54.45Z"/></svg>