<svg fill="#fafafa" xmlns="http://www.w3.org/2000/svg"  viewBox="0 0 24 24" width="6px" height="6px"><path d="M 6.2695312 2 C 3.9231104 2 2 3.9231104 2 6.2695312 L 2 17.730469 C 2 20.07689 3.9231104 22 6.2695312 22 L 17.730469 22 C 20.07689 22 22 20.07689 22 17.730469 L 22 6.2695312 C 22 3.9231104 20.07689 2 17.730469 2 L 6.2695312 2 z M 6.2695312 4 L 17.716797 4 L 17.730469 4 C 18.99605 4 20 5.0039521 20 6.2695312 L 20 17.730469 C 20 18.996048 18.996048 20 17.730469 20 L 6.2695312 20 C 5.0039521 20 4 18.996048 4 17.730469 L 4 6.2695312 C 4 5.0039521 5.0039521 4 6.2695312 4 z M 16.984375 5.9863281 A 1.0001 1.0001 0 0 0 16.841797 6 L 7 6 A 1.0001 1.0001 0 0 0 6 7 L 6 17 A 1.0001 1.0001 0 0 0 7 18 L 17 18 A 1.0001 1.0001 0 0 0 18 17 L 18 7.1679688 A 1.0001 1.0001 0 0 0 17.710938 6.2832031 A 1.0001 1.0001 0 0 0 17.707031 6.2792969 A 1.0001 1.0001 0 0 0 17.699219 6.2714844 A 1.0001 1.0001 0 0 0 17.691406 6.2636719 A 1.0001 1.0001 0 0 0 16.984375 5.9863281 z M 8 8 L 16 8 L 16 16 L 8 16 L 8 8 z M 10 10 L 10 14 L 14 14 L 14 10 L 10 10 z"/></svg>