<svg id="Слой_1" data-name="Слой 1" xmlns="http://www.w3.org/2000/svg" xmlns:xlink="http://www.w3.org/1999/xlink" viewBox="0 0 170.56 170.17"><defs><style>.cls-1{fill:url(#Безымянный_градиент_7);}.cls-2{fill:url(#Безымянный_градиент_7-2);}.cls-3{fill:url(#Безымянный_градиент_7-3);}.cls-4{fill:url(#Безымянный_градиент_7-4);}</style><linearGradient id="Безымянный_градиент_7" x1="28.72" y1="86.74" x2="28.72" y2="0.97" gradientUnits="userSpaceOnUse"><stop offset="0" stop-color="#00a4ff"/><stop offset="1" stop-color="#142163"/></linearGradient><linearGradient id="Безымянный_градиент_7-2" x1="85.15" y1="28.72" x2="169.47" y2="28.72" xlink:href="#Безымянный_градиент_7"/><linearGradient id="Безымянный_градиент_7-3" x1="141.94" y1="84.34" x2="143.23" y2="171.51" xlink:href="#Безымянный_градиент_7"/><linearGradient id="Безымянный_градиент_7-4" x1="85.47" y1="141.48" x2="0.15" y2="141.48" xlink:href="#Безымянный_градиент_7"/></defs><title>pocketnet logo</title><path class="cls-1" d="M35.55,112.8l-.24-.44h0a56.65,56.65,0,0,1,22.14-76.8L43.07,14.07A69.19,69.19,0,0,0,26.74,26.7,82.55,82.55,0,0,0,13,125.19h0a12.93,12.93,0,0,1,1.67,6.37,13,13,0,0,1-3.8,9.18L0,151.62l18.21,18.21,11.22-11.27a38.84,38.84,0,0,0,5.86-7.76,38.73,38.73,0,0,0,.27-38Z"/><path class="cls-2" d="M143.78,26.74A82.55,82.55,0,0,0,45.29,13h0a12.93,12.93,0,0,1-6.37,1.67,13,13,0,0,1-9.18-3.8L18.86,0,.65,18.21,11.92,29.43a38.58,38.58,0,0,0,27,11,38.53,38.53,0,0,0,19.2-5.09h0a56.65,56.65,0,0,1,76.8,22.14l21.91-13.77A74.2,74.2,0,0,0,143.78,26.74Z"/><path class="cls-3" d="M143.81,143.6a82.55,82.55,0,0,0,13.73-98.49h0a13,13,0,0,1,2.13-15.55l10.89-10.88L152.35.48,141.12,11.74a38.72,38.72,0,0,0-5.88,46.2h0a56.65,56.65,0,0,1-22.14,76.8L127.93,156C134.45,152.37,138.38,149,143.81,143.6Z"/><path class="cls-4" d="M158.71,140.73a38.72,38.72,0,0,0-46.2-5.88h0a56.89,56.89,0,0,1-77-22h0a38.73,38.73,0,0,1-.27,38,82.59,82.59,0,0,0,90,6.35h0a13,13,0,0,1,15.55,2.13l10.88,10.89L170,152Z"/></svg>