<svg xmlns="http://www.w3.org/2000/svg" xmlns:xlink="http://www.w3.org/1999/xlink" viewBox="0 0 24 24">
  <defs>
    <linearGradient id="a" x1="4.03" y1="-66.6" x2="4.03" y2="-54.53" gradientTransform="matrix(1 0 0 -1 0 -54.38)" gradientUnits="userSpaceOnUse">
      <stop offset="0" stop-color="#00a4ff"/>
      <stop offset="1" stop-color="#142163"/>
    </linearGradient>
    <linearGradient id="b" x1="11.98" y1="-58.43" x2="23.85" y2="-58.43" xlink:href="#a"/>
    <linearGradient id="c" x1="19.97" y1="-66.28" x2="20.15" y2="-78.55" xlink:href="#a"/>
    <linearGradient id="d" x1="12.08" y1="-74.32" x2=".05" y2="-74.32" xlink:href="#a"/>
  </defs>
  <path d="M5 15.89v-.07A8 8 0 0 1 8.07 5l-2-3a9.55 9.55 0 0 0-2.3 1.74 11.6 11.6 0 0 0-2 13.93 1.84 1.84 0 0 1 .22.88 1.85 1.85 0 0 1-.51 1.26L0 21.36l2.56 2.57 1.58-1.57A5.4 5.4 0 0 0 5 21.28a5.49 5.49 0 0 0 0-5.37Z" style="fill:url(#a)"/>
  <path d="M20.18 3.78A11.61 11.61 0 0 0 6.39 1.85a1.78 1.78 0 0 1-.92.24 1.85 1.85 0 0 1-1.3-.55L2.65 0 .09 2.59l1.58 1.57A5.07 5.07 0 0 0 5.48 5.7a5.41 5.41 0 0 0 2.7-.7A8 8 0 0 1 19 8.1l3.08-1.94a10.64 10.64 0 0 0-1.9-2.38Z" style="fill:url(#b)"/>
  <path d="M20.24 20.25a11.62 11.62 0 0 0 2-13.86 1.81 1.81 0 0 1 .29-2.18L24 2.66 21.44.1l-1.58 1.56A5.33 5.33 0 0 0 19 8.15 8 8 0 0 1 15.91 19L18 22a9.27 9.27 0 0 0 2.24-1.75Z" style="fill:url(#c)"/>
  <path d="M22.36 19.81a5.46 5.46 0 0 0-6.53-.8A8 8 0 0 1 5 15.89a5.48 5.48 0 0 1 0 5.35 11.54 11.54 0 0 0 12.63.91 1.86 1.86 0 0 1 2.22.26L21.39 24 24 21.41Z" style="fill:url(#d)"/>
</svg>
