<?xml version="1.0" encoding="utf-8"?>
<!-- Generator: Adobe Illustrator 28.1.0, SVG Export Plug-In . SVG Version: 6.00 Build 0)  -->
<svg version="1.1" id="Слой_1" xmlns="http://www.w3.org/2000/svg" xmlns:xlink="http://www.w3.org/1999/xlink" x="0px" y="0px"
	 width="240px" height="240px" viewBox="0 0 240 240" style="enable-background:new 0 0 240 240;" xml:space="preserve">
<style type="text/css">
	.st0{fill:none;}
	.st1{fill:#CCCBCB;}
	.st2{fill:#FFFFFF;}
	.st3{fill:#E0203C;}
	.st4{fill:#1B2E5A;}
</style>
<g>
	<g>
		<g>
			<path class="st0" d="M89,165.2l11.7-53.7l-31-46.3l44.1,11.1l16.3-27.8l-9,6.3L78.4,30.2c-3-1.8-5.8-3.1-8.4-4.1
				c-2.9-1.5-6.1-2.4-9.6-2.4c-0.1,0-0.1,0-0.2,0c-4.8,0-9.1,1.7-12.7,4.3c-5.3,3.9-8.8,10.2-8.8,17.3c0,0.9-0.2,148.3-0.2,149.1
				c0,4.5,1.4,8.7,3.8,12.2c3.9,5.7,10.5,9.5,17.9,9.5c1,0,1.9-0.2,2.9-0.3c0.9-0.1,1.7-0.3,2.6-0.5c7.1-1.6,12.8-4.9,12.8-4.9
				l63.5-36.7l18.5-0.8l-31.1-28L89,165.2z"/>
			<path class="st0" d="M144.2,88.9l27.8,16.6l-18.5,21.1l5.6,37.4l35.7-20.6c2.6-1.5,4.9-3,6.8-4.5c1.5-1,2.8-2.2,4-3.5
				c3.5-3.9,5.7-8.9,5.7-14.6c0-4.4-1.3-8.4-3.5-11.8c-1-1.6-2.3-3-3.7-4.3c-4.6-4.5-9.3-7.3-9.3-7.3l-59.7-34.5L144.2,88.9z"/>
			<path class="st1" d="M224.4,98.4l-0.1-0.2c-1.8-2.8-4-5.4-6.6-7.7c-5.9-5.8-11.8-9.3-13-10L88.2,13.3c-3.5-2-6.9-3.7-10.3-5
				c-5.6-2.6-11.5-4-17.5-4c-0.4,0-0.8,0-1.2,0c-8.4,0.2-16.5,3.1-23.4,8.2c-5,3.7-9.2,8.6-12.1,14.1c-3,5.8-4.6,12.3-4.6,18.9
				c0,0.6-0.1,44.3-0.1,77.1l-0.1,44c0,16.5,0,27.8,0,28.1c0,8.3,2.5,16.3,7.2,23.2c7.7,11.3,20.4,18,34.1,18c2.2,0,3.9-0.2,5-0.4
				l0.8-0.1c1.3-0.2,2.6-0.4,3.9-0.7c9.4-2.1,16.9-6.2,18.3-7l116.5-67.2c3-1.8,5.9-3.6,8.5-5.6c2.5-1.7,4.8-3.7,7-6.1
				c7-7.6,10.9-17.5,10.9-27.8C231,112.8,228.7,105.1,224.4,98.4z"/>
			<path class="st2" d="M60.2,233.1c-12.8,0-24.7-6.3-31.8-16.8c-4.4-6.4-6.7-13.9-6.7-21.7c0-0.4,0.2-148.5,0.2-149.1
				c0-6.1,1.5-12.2,4.3-17.6c2.7-5.2,6.6-9.7,11.3-13.2c6.4-4.8,14-7.4,21.9-7.6c0.3,0,0.7,0,1,0c5.6,0,11.2,1.3,16.4,3.8
				c3.4,1.3,6.6,2.9,10.1,4.9l116.4,67.2c0.7,0.4,6.6,3.9,12.5,9.6c2.4,2.2,4.5,4.7,6.2,7.2l0.1,0.1c4,6.2,6.2,13.5,6.2,20.9
				c0,9.6-3.6,18.9-10.2,26c-2.1,2.3-4.3,4.2-6.6,5.8c-2.4,1.9-5.2,3.7-8.2,5.4L86.9,225.2c-1.4,0.8-8.5,4.7-17.5,6.7
				c-1.2,0.3-2.5,0.5-3.7,0.7l-0.7,0.1C63.9,232.9,62.2,233.1,60.2,233.1z"/>
			<path class="st3" d="M204.2,104.7c-4.6-4.5-9.3-7.3-9.3-7.3l-59.7-34.5l9.1,25.9l27.8,16.6l-18.5,21.1l5.6,37.4l35.7-20.6
				c2.6-1.5,4.9-3,6.8-4.5c1.5-1,2.8-2.2,4-3.5c3.5-3.9,5.7-8.9,5.7-14.6c0-4.4-1.3-8.4-3.5-11.8
				C206.9,107.3,205.6,105.9,204.2,104.7z"/>
			<path class="st4" d="M89,165.2l11.7-53.7l-31-46.3l44.1,11.1l16.3-27.8l-9,6.3L78.4,30.2c-3-1.8-5.8-3.1-8.4-4.1
				c-2.9-1.5-6.1-2.4-9.6-2.4c-0.1,0-0.1,0-0.2,0c-4.8,0-9.1,1.7-12.7,4.3c-5.3,3.9-8.8,10.2-8.8,17.3c0,0.9-0.2,148.3-0.2,149.1
				c0,4.5,1.4,8.7,3.8,12.2c3.9,5.7,10.5,9.5,17.9,9.5c1,0,1.9-0.2,2.9-0.3c0.9-0.1,1.7-0.3,2.6-0.5c7.1-1.6,12.8-4.9,12.8-4.9
				l63.5-36.7l18.5-0.8l-31.1-28L89,165.2z"/>
		</g>
	</g>
</g>
</svg>
