<?xml version="1.0" encoding="UTF-8"?>
<svg fill="#FFF" id="Combined-Shape" xmlns="http://www.w3.org/2000/svg"  viewBox="0 0 24 24" width="24px" height="24px"><path d="M 12.0625 0 C 9.773438 0 9.8125 0.21875 9.8125 0.21875 C 9.539063 1.539063 9.253906 2.433594 9.0625 2.96875 C 7.898438 3.351563 6.824219 3.949219 5.90625 4.71875 C 5.351563 4.609375 4.457031 4.40625 3.21875 3.96875 C 3.21875 3.96875 3.050781 3.824219 1.875 5.8125 C 0.695313 7.800781 0.875 7.90625 0.875 7.90625 C 1.789063 8.765625 2.386719 9.425781 2.75 9.875 C 2.59375 10.558594 2.5 11.269531 2.5 12 C 2.5 12.664063 2.558594 13.3125 2.6875 13.9375 C 2.316406 14.378906 1.707031 15.042969 0.78125 15.875 C 0.78125 15.875 0.613281 15.957031 1.75 17.96875 C 2.886719 19.980469 3.03125 19.84375 3.03125 19.84375 C 4.28125 19.429688 5.191406 19.253906 5.75 19.15625 C 6.664063 19.960938 7.730469 20.5625 8.90625 20.96875 C 9.101563 21.496094 9.40625 22.414063 9.6875 23.78125 C 9.6875 23.78125 9.652344 24 11.9375 24 C 14.222656 24 14.21875 23.78125 14.21875 23.78125 C 14.492188 22.464844 14.742188 21.566406 14.9375 21.03125 C 16.101563 20.648438 17.175781 20.050781 18.09375 19.28125 C 18.648438 19.390625 19.542969 19.59375 20.78125 20.03125 C 20.78125 20.03125 20.945313 20.175781 22.125 18.1875 C 23.300781 16.199219 23.125 16.09375 23.125 16.09375 C 22.210938 15.234375 21.613281 14.574219 21.25 14.125 C 21.40625 13.4375 21.5 12.730469 21.5 12 C 21.5 11.335938 21.441406 10.6875 21.3125 10.0625 C 21.683594 9.621094 22.292969 8.957031 23.21875 8.125 C 23.21875 8.125 23.386719 8.042969 22.25 6.03125 C 21.113281 4.019531 20.96875 4.15625 20.96875 4.15625 C 19.71875 4.570313 18.808594 4.746094 18.25 4.84375 C 17.335938 4.042969 16.269531 3.4375 15.09375 3.03125 C 14.902344 2.503906 14.59375 1.585938 14.3125 0.21875 C 14.3125 0.21875 14.347656 0 12.0625 0 Z M 12 4 C 16.417969 4 20 7.582031 20 12 C 20 16.417969 16.417969 20 12 20 C 7.582031 20 4 16.417969 4 12 C 4 7.582031 7.582031 4 12 4 Z M 12 5 C 8.132813 5 5 8.132813 5 12 C 5 15.867188 8.132813 19 12 19 C 15.867188 19 19 15.867188 19 12 C 19 8.132813 15.867188 5 12 5 Z M 12 8 C 14.210938 8 16 9.789063 16 12 C 16 14.210938 14.210938 16 12 16 C 9.789063 16 8 14.210938 8 12 C 8 9.789063 9.789063 8 12 8 Z"/></svg>



