<svg id="Слой_1" data-name="Слой 1" xmlns="http://www.w3.org/2000/svg" viewBox="0 0 549.28 547.39"><title>Донат</title><path d="M513.52,376.39H479.41A255.73,255.73,0,0,1,402.29,445H470.6a9.38,9.38,0,0,1,9.38,9.38v15a9.38,9.38,0,0,1-9.38,9.38H78.68a9.38,9.38,0,0,1-9.38-9.38v-15A9.38,9.38,0,0,1,78.68,445H148.2a255.73,255.73,0,0,1-77.12-68.62H35.76A35.75,35.75,0,0,0,0,412.15v99.49a35.75,35.75,0,0,0,35.76,35.75H513.52a35.75,35.75,0,0,0,35.76-35.75V412.15A35.75,35.75,0,0,0,513.52,376.39Z"/><path d="M274.64,0c-124,0-224.5,100.51-224.5,224.5S150.65,449,274.64,449s224.5-100.51,224.5-224.5S398.63,0,274.64,0Zm114,161.47h0a130.25,130.25,0,0,1-9.89,141.85,61.26,61.26,0,0,1,11.74,8.94L408.2,330l-28.72,28.72L362.33,341.5a20.49,20.49,0,0,0-24.52-3.36h0a130.24,130.24,0,0,1-142-10,61.27,61.27,0,0,1-9.23,12.24l-17.7,17.77-28.72-28.72,17.17-17.15a20.49,20.49,0,0,0,3.36-24.52h0a130.24,130.24,0,0,1,10-142,61.28,61.28,0,0,1-11.78-9L141.18,119,169.9,90.33l17.15,17.17a20.49,20.49,0,0,0,24.52,3.36h0a130.24,130.24,0,0,1,142,10,61.25,61.25,0,0,1,9.12-12l17.7-17.77,28.72,28.72-17.17,17.15a20.49,20.49,0,0,0-3.36,24.52Z"/><path d="M353.44,181.7c-.15-.27-.3-.54-.45-.81l-.07,0A89.34,89.34,0,0,0,231.81,146h0q-1.86,1.06-3.8,2a89.32,89.32,0,0,0-32.16,119.51h0l.38.69.07.13A89.72,89.72,0,0,0,317.58,303h0q2.31-1.32,4.75-2.44a89.31,89.31,0,0,0,31.1-118.85Z"/></svg>