<svg width="122" height="32" viewBox="0 0 122 32" fill="none" xmlns="http://www.w3.org/2000/svg">
<path d="M0 16C0 12.2801 0 10.4202 0.40889 8.89417C1.5185 4.75307 4.75307 1.5185 8.89417 0.40889C10.4202 0 12.2801 0 16 0C19.7199 0 21.5798 0 23.1058 0.40889C27.2469 1.5185 30.4815 4.75307 31.5911 8.89417C32 10.4202 32 12.2801 32 16C32 19.7199 32 21.5798 31.5911 23.1058C30.4815 27.2469 27.2469 30.4815 23.1058 31.5911C21.5798 32 19.7199 32 16 32C12.2801 32 10.4202 32 8.89417 31.5911C4.75307 30.4815 1.5185 27.2469 0.40889 23.1058C0 21.5798 0 19.7199 0 16Z" fill="#14C393"/>
<path fill-rule="evenodd" clip-rule="evenodd" d="M19.4923 19.2688C19.4923 21.2835 17.8862 22.9224 15.9124 22.9224C13.9381 22.9224 12.3321 21.2835 12.3321 19.2688V15.4449H19.4923V19.2688ZM26.3791 9.14282C26.3791 10.8 25.0668 12.1263 23.4558 12.1263H22.8039V9.14282H19.4968V12.1263H12.3387V9.14282H9.03154V12.1263H8.52801C6.91503 12.1263 5.60267 10.7879 5.60267 9.14282H2.28564C2.28564 12.7621 5.02255 15.4417 8.56924 15.4417H9.03154V19.2623C9.03154 23.135 12.1208 26.2857 15.918 26.2857C19.715 26.2857 22.8039 23.135 22.8039 19.2623V15.4417H23.4972C27.0458 15.4417 29.7142 12.7736 29.7142 9.14282H26.3791Z" fill="white"/>
<path d="M40.0946 24V10.016H47.1735C48.5777 10.016 49.62 10.349 50.3004 11.0149C50.9952 11.6663 51.3426 12.5928 51.3426 13.7943C51.3426 14.547 51.1979 15.1768 50.9084 15.6834C50.6188 16.1756 50.228 16.5592 49.7358 16.8343C50.3872 17.037 50.9011 17.3771 51.2775 17.8549C51.6684 18.3181 51.8638 19.0057 51.8638 19.9177C51.8638 21.264 51.4802 22.2846 50.7129 22.9794C49.9602 23.6598 48.8672 24 47.4341 24H40.0946ZM43.0261 15.8137H46.6306C47.34 15.8137 47.8466 15.6617 48.1506 15.3577C48.4546 15.0392 48.6066 14.5977 48.6066 14.0331C48.6066 13.4107 48.4474 12.9474 48.1289 12.6434C47.8249 12.3394 47.2531 12.1874 46.4135 12.1874H43.0261V15.8137ZM43.0261 21.8503H46.7392C47.4775 21.8503 48.0204 21.6983 48.3678 21.3943C48.7152 21.0903 48.8889 20.5547 48.8889 19.7874C48.8889 19.165 48.7152 18.7017 48.3678 18.3977C48.0348 18.0937 47.4268 17.9417 46.5438 17.9417H43.0261V21.8503ZM54.2978 11.8183V9.51657H57.4898V11.8183H54.2978ZM54.5367 24V15.8789H52.995L53.2555 13.7074H57.4681V24H54.5367ZM64.0464 24.2171C62.8593 24.2171 61.9763 23.9059 61.3972 23.2834C60.8326 22.661 60.5504 21.8141 60.5504 20.7429V15.9657H59.0955V13.7074H60.5504V11.4926L63.4818 10.624V13.7074H66.0875L65.9138 15.9657H63.4818V20.5474C63.4818 21.112 63.6121 21.5029 63.8726 21.72C64.1332 21.9227 64.5385 22.024 65.0886 22.024C65.494 22.024 65.9138 21.9516 66.3481 21.8069V23.8263C66.0296 23.9566 65.6822 24.0507 65.3058 24.1086C64.9294 24.181 64.5096 24.2171 64.0464 24.2171ZM67.8525 24V10.016H77.689V12.296H70.7839V15.8789H76.8856V18.1371H70.7839V24H67.8525ZM83.7923 24.2171C81.8669 24.2171 80.4555 23.7539 79.558 22.8274C78.6605 21.8865 78.2117 20.5619 78.2117 18.8537C78.2117 17.1455 78.6605 15.8282 79.558 14.9017C80.47 13.9608 81.8814 13.4903 83.7923 13.4903C85.7176 13.4903 87.129 13.9608 88.0266 14.9017C88.9386 15.8282 89.3946 17.1455 89.3946 18.8537C89.3946 20.5619 88.9458 21.8865 88.0483 22.8274C87.1507 23.7539 85.7321 24.2171 83.7923 24.2171ZM83.7923 21.72C84.7332 21.72 85.4064 21.5101 85.8117 21.0903C86.217 20.656 86.4197 19.9105 86.4197 18.8537C86.4197 17.797 86.217 17.0587 85.8117 16.6389C85.4064 16.2046 84.7332 15.9874 83.7923 15.9874C82.8658 15.9874 82.1999 16.2046 81.7946 16.6389C81.3892 17.0587 81.1866 17.797 81.1866 18.8537C81.1866 19.9105 81.3892 20.656 81.7946 21.0903C82.1999 21.5101 82.8658 21.72 83.7923 21.72ZM91.4328 24V13.7074H94.1471L94.2774 14.7714C94.7406 14.4819 95.3124 14.2213 95.9928 13.9897C96.6877 13.7436 97.3681 13.5771 98.034 13.4903V15.7051C97.6431 15.763 97.2161 15.8499 96.7528 15.9657C96.2896 16.0815 95.8481 16.2118 95.4282 16.3566C95.0084 16.5013 94.6538 16.6533 94.3642 16.8126V24H91.4328ZM104.473 24.2171C102.692 24.2171 101.281 23.7756 100.238 22.8926C99.196 21.995 98.6749 20.6415 98.6749 18.832C98.6749 17.1962 99.1092 15.9006 99.9777 14.9451C100.861 13.9752 102.171 13.4903 103.908 13.4903C105.5 13.4903 106.716 13.9101 107.556 14.7497C108.41 15.5749 108.837 16.6606 108.837 18.0069V19.8743H101.389C101.548 20.6994 101.925 21.264 102.518 21.568C103.126 21.872 103.98 22.024 105.081 22.024C105.631 22.024 106.188 21.9733 106.753 21.872C107.332 21.7707 107.824 21.6404 108.229 21.4811V23.5657C107.751 23.7829 107.194 23.9421 106.557 24.0434C105.92 24.1592 105.225 24.2171 104.473 24.2171ZM101.389 18.072H106.275V17.5074C106.275 16.9139 106.101 16.4507 105.754 16.1177C105.406 15.7703 104.82 15.5966 103.995 15.5966C103.025 15.5966 102.345 15.792 101.954 16.1829C101.577 16.5737 101.389 17.2034 101.389 18.072ZM109.23 24L113.182 18.7669L109.382 13.7074H112.552L114.767 16.704L116.982 13.7074H120.152L116.374 18.7669L120.304 24H117.112L114.767 20.8514L112.422 24H109.23Z" fill="white"/>
</svg>
