<svg version="1.2" baseProfile="tiny-ps" xmlns="http://www.w3.org/2000/svg" viewBox="0 0 487 96" width="487" height="96">
	<title>bastyon_logo_white_christmas-svg</title>
	<defs>
		<linearGradient id="grd1" gradientUnits="userSpaceOnUse"  x1="28.12" y1="55.162" x2="28.12" y2="14.027">
			<stop offset="0" stop-color="#00a4ff"  />
			<stop offset="1" stop-color="#142163"  />
		</linearGradient>
		<linearGradient id="grd2" gradientUnits="userSpaceOnUse"  x1="55.178" y1="27.338" x2="95.619" y2="27.338">
			<stop offset="0" stop-color="#00a4ff"  />
			<stop offset="1" stop-color="#142163"  />
		</linearGradient>
		<linearGradient id="grd3" gradientUnits="userSpaceOnUse"  x1="82.403" y1="54.013" x2="83.014" y2="95.822">
			<stop offset="0" stop-color="#00a4ff"  />
			<stop offset="1" stop-color="#142163"  />
		</linearGradient>
		<linearGradient id="grd4" gradientUnits="userSpaceOnUse"  x1="55.333" y1="81.407" x2="14.415" y2="81.407">
			<stop offset="0" stop-color="#00a4ff"  />
			<stop offset="1" stop-color="#142163"  />
		</linearGradient>
		<radialGradient id="grd5" gradientUnits="userSpaceOnUse"  cx="15.249" cy="35.348" r="43.334">
			<stop offset="0.204" stop-color="#ffa5ab"  />
			<stop offset="0.599" stop-color="#ed1c24"  />
			<stop offset="0.931" stop-color="#691f4a"  />
		</radialGradient>
		<radialGradient id="grd6" gradientUnits="userSpaceOnUse"  cx="4.65" cy="9.835" r="20.184">
			<stop offset="0.045" stop-color="#ffffff"  />
			<stop offset="0.55" stop-color="#6b739d"  />
			<stop offset="0.94" stop-color="#ed1c24"  />
		</radialGradient>
		<linearGradient id="grd7" gradientUnits="userSpaceOnUse"  x1="3.778" y1="71.399" x2="70.76" y2="9.665">
			<stop offset="0" stop-color="#7a81a7"  />
			<stop offset="0.399" stop-color="#ffffff"  />
			<stop offset="0.843" stop-color="#6b739d"  />
			<stop offset="0.998" stop-color="#4f71ab"  />
		</linearGradient>
	</defs>
	<style>
		tspan { white-space:pre }
		.shp0 { fill: #ffffff } 
		.shp1 { fill: url(#grd1) } 
		.shp2 { fill: url(#grd2) } 
		.shp3 { fill: url(#grd3) } 
		.shp4 { fill: url(#grd4) } 
		.shp5 { fill: url(#grd5) } 
		.shp6 { fill: url(#grd6) } 
		.shp7 { fill: url(#grd7) } 
	</style>
	<g id="Layer">
		<g id="Layer">
			<g id="Layer">
				<path id="Layer" fill-rule="evenodd" class="shp0" d="M140.9 27.8C143.9 27.8 149.3 28 153.2 31.2C154.9 32.5 158 35.8 158 42.3C158.2 46.5 156.2 50.5 152.7 52.8C160.2 54.6 162.9 61.2 162.9 66.3C162.9 70.8 160.9 75.1 157.4 77.9C153.1 81.3 148.2 81.4 144.5 81.4L125.4 81.4L125.4 27.8L140.9 27.8ZM141.8 51.3C144.9 51.3 152.3 50.7 152.3 42.4C152.3 33.6 143.6 33.4 141.9 33.4L131.4 33.4L131.4 51.3L141.8 51.3ZM144.1 75.8C147.6 75.8 150.9 75.6 153.5 73.5C155.8 71.7 157.1 69 157 66.1C157.1 62.8 155.3 59.8 152.4 58.2C150.4 57.1 147.6 56.6 143.3 56.6L131.4 56.6L131.4 75.8L144.1 75.8Z" />
				<path id="Layer" class="shp0" d="M256.9 38.3C256.1 36.8 255.1 35.4 253.8 34.3C252.1 33 249.9 32.4 247.8 32.5C242.5 32.5 238.8 35.8 238.8 40.8C238.7 42.6 239.4 44.3 240.8 45.5C242.4 47 244.4 48.1 246.4 48.9L251.5 51.2C254.6 52.6 257.5 54 259.8 56.3C262.4 58.9 263.8 62.4 263.6 66.1C263.6 76 256.3 82.6 246.6 82.6C243.1 82.6 238.6 81.9 234.9 78.3C232.4 75.7 230.7 72.4 229.9 68.8L235.7 67.2C236.1 69.8 237.2 72.1 238.9 74C240.9 76 243.7 77.1 246.6 77C253.9 77 257.4 71.8 257.4 66.4C257.5 64 256.5 61.7 254.7 60.1C253.2 58.6 251.1 57.7 248.3 56.4L243.5 54.1C240.9 53.1 238.5 51.6 236.3 49.7C233.8 47.5 232.5 44.3 232.6 40.9C232.6 32.6 238.9 27.1 247.6 27.1C250.6 27 253.7 27.8 256.2 29.5C258.4 31 260.2 33 261.4 35.4L256.9 38.3Z" />
				<path id="Layer" class="shp0" d="M293 33.4L293 81.4L287 81.4L287 33.4L270.7 33.4L270.7 27.8L309.3 27.8L309.3 33.4L293 33.4L293 33.4Z" />
				<path id="Layer" fill-rule="evenodd" class="shp0" d="M372 54.5C372 38.5 384.4 26.8 399.9 26.8C415.4 26.8 427.8 38.5 427.8 54.5C427.8 70.5 415.4 82.2 399.9 82.2C384.4 82.2 372 70.4 372 54.5ZM378.2 54.5C378 66.5 387.5 76.5 399.6 76.7C411.6 76.9 421.6 67.4 421.8 55.3C421.8 55 421.8 54.7 421.8 54.5C422 42.5 412.5 32.5 400.4 32.3C388.4 32.1 378.4 41.6 378.2 53.7C378.2 53.9 378.2 54.2 378.2 54.5Z" />
				<path id="Layer" fill-rule="evenodd" class="shp0" d="M208.4 66.3L183.7 66.3L177.4 81.4L170.8 81.4L193.7 27.8L198.3 27.8L221.3 81.4L214.7 81.4L208.4 66.3ZM205.9 60.6L196 36.7L186.1 60.6L205.9 60.6Z" />
				<path id="Layer" class="shp0" d="M486.7 27.8L486.7 81.5L480.8 81.5L480.8 81.5L444.7 37.2L444.7 81.5L438.8 81.5L438.8 27.8L444.7 27.8L444.7 27.8L444.7 27.8L444.7 27.8L444.7 27.8L480.8 72.1L480.8 27.8L486.7 27.8Z" />
				<path id="Layer" fill-rule="evenodd" class="shp0" d="M345 55.7L345 81.5L338.9 81.5L338.9 55.8L317.2 29.1L321.8 25.3L341.9 50L362.1 25.2L366.7 29L345 55.7ZM342 53.7L341.8 53.7L342 53.7Z" />
			</g>
		</g>
		<g id="Layer">
			<path id="Layer" class="shp1" d="M31.4 67.7C34.5 73.3 34.5 80.2 31.3 85.9C30.5 87.2 29.6 88.5 28.5 89.6L23.1 95L14.4 86.3L19.6 81.1C20.7 80 21.4 78.4 21.4 76.8C21.4 75.7 21.1 74.6 20.6 73.7L20.6 73.7C12 58.2 14.7 38.9 27.2 26.4C29.5 24 32.1 21.9 35 20.3L41.9 30.7C28.8 37.9 24.1 54.4 31.3 67.5L31.3 67.5L31.4 67.7L31.4 67.7Z" />
			<path id="Layer" class="shp2" d="M89.5 34.5L79 41.1C71.8 28 55.3 23.3 42.1 30.6L42.1 30.6C39.3 32.2 36.1 33 32.9 33C28.1 33 23.5 31.1 20 27.7L14.6 22.3L23.4 13.6L28.6 18.8C29.8 19.9 31.4 20.6 33 20.6C34.1 20.6 35.2 20.3 36.1 19.8L36.1 19.8C51.5 11.2 70.8 13.9 83.3 26.4C85.8 28.8 87.9 31.5 89.5 34.5Z" />
			<path id="Layer" class="shp3" d="M75.7 88.4L68.6 78.2C81.7 71 86.4 54.5 79.2 41.4L79.2 41.4C75.1 34.2 76.2 25.1 82 19.2L87.4 13.7L96.1 22.5L90.9 27.7C89 29.7 88.5 32.8 89.9 35.2L89.9 35.2C98.5 50.6 95.8 69.9 83.3 82.4C81.1 84.8 78.5 86.8 75.7 88.4Z" />
			<path id="Layer" class="shp4" d="M95.9 86.4L87.2 95.1L82 89.9C80 88 76.9 87.5 74.5 88.9L74.5 88.9C60.7 96.6 43.8 95.4 31.3 85.9C34.5 80.3 34.5 73.4 31.4 67.7L31.4 67.7C38.7 80.8 55.2 85.5 68.3 78.3L68.3 78.3C75.5 74.2 84.6 75.3 90.5 81.1L95.9 86.4Z" />
		</g>
		<path id="Layer" class="shp5" d="M44.2 44.1L15.5 62.8C7.2 55.6 2.4 44.4 3.9 32.2C5.9 16.7 18.4 4.3 34 2.5C46.4 1 57.7 6.1 64.8 14.8L44.2 44.1Z" />
		<path id="Layer" class="shp6" d="M10.8 21.6C4.83 21.6 0 16.77 0 10.8C0 4.83 4.83 0 10.8 0C16.77 0 21.6 4.83 21.6 10.8C21.6 16.77 16.77 21.6 10.8 21.6Z" />
		<path id="Layer" class="shp7" d="M11.6 69.5C8.9 69.5 6.2 67.9 5 65.3C3.3 61.6 4.9 57.3 8.5 55.6C29.6 45.7 46.9 28.8 57.2 7.9C59 4.3 63.4 2.8 67 4.6C70.6 6.4 72.1 10.8 70.3 14.4C58.6 38.2 38.8 57.5 14.7 68.8C13.7 69.3 12.7 69.5 11.6 69.5Z" />
	</g>
</svg>