<?xml version="1.0" encoding="utf-8"?>
<!-- Generator: Adobe Illustrator 28.1.0, SVG Export Plug-In . SVG Version: 6.00 Build 0)  -->
<svg version="1.1" id="Слой_1" xmlns="http://www.w3.org/2000/svg" xmlns:xlink="http://www.w3.org/1999/xlink" x="0px" y="0px"
	 width="465.5px" height="78.8px" viewBox="0 0 465.5 78.8" style="enable-background:new 0 0 465.5 78.8;" xml:space="preserve">
<style type="text/css">
	.st0{fill:none;}
	.st1{fill:#CCCBCB;}
	.st2{fill:#FFFFFF;}
	.st3{fill:#E0203C;}
	.st4{fill:#1B2E5A;}
	.st5{fill:#999999;}
</style>
<g>
	<g>
		<g>
			<path class="st0" d="M22.3,49.8L25.8,34l-9.1-13.6l13,3.2l4.9-8.2l-2.7,1.8L19.2,10c-0.9-0.5-1.7-0.9-2.5-1.2
				c-0.9-0.4-1.8-0.7-2.9-0.7h-0.1c-1.4,0-2.7,0.5-3.8,1.3c-1.5,1.2-2.6,3-2.6,5.1c0,0.3-0.1,43.7-0.1,44c0,1.3,0.4,2.6,1.1,3.6
				c1.2,1.7,3.1,2.8,5.3,2.8c0.3,0,0.6-0.1,0.8-0.1c0.2-0.1,0.5-0.1,0.7-0.1c2.1-0.4,3.8-1.5,3.8-1.5l18.7-10.8l5.4-0.2l-9-8.2
				L22.3,49.8z"/>
			<path class="st0" d="M38.6,27.3l8.2,4.9l-5.4,6.2l1.6,11l10.5-6.1c0.8-0.4,1.5-0.9,2-1.3c0.4-0.3,0.8-0.7,1.2-1
				c1-1.1,1.7-2.7,1.7-4.3c0-1.3-0.4-2.5-1-3.5c-0.3-0.4-0.7-0.9-1.1-1.3c-1.3-1.3-2.7-2.1-2.7-2.1L36,19.7L38.6,27.3z"/>
			<path class="st1" d="M62.2,30.1L62.2,30.1c-0.6-0.9-1.3-1.6-2-2.4c-1.8-1.7-3.5-2.7-3.8-2.9L22.1,5c-1-0.6-2.1-1.1-3-1.5
				c-1.6-0.8-3.4-1.2-5.2-1.2c-0.1,0-0.2,0-0.4,0c-2.5,0.1-4.9,0.9-6.9,2.4C5.3,5.8,4,7.3,3.1,8.9c-0.9,1.7-1.3,3.6-1.3,5.6
				c0,0.2,0,13,0,22.7v13c0,4.9,0,8.2,0,8.2c0,2.4,0.7,4.8,2.1,6.8c2.3,3.3,6,5.3,10,5.3c0.7,0,1.2-0.1,1.5-0.1h0.2
				c0.4-0.1,0.8-0.1,1.2-0.2c2.8-0.6,4.9-1.8,5.4-2.1l34.2-19.8c0.9-0.5,1.8-1.1,2.5-1.6c0.7-0.5,1.4-1.1,2.1-1.8
				c2.1-2.3,3.2-5.2,3.2-8.2C64.2,34.3,63.6,32,62.2,30.1z"/>
			<path class="st2" d="M13.9,69.8c-3.8,0-7.3-1.8-9.4-4.9c-1.3-1.9-2-4.1-2-6.4c0-0.1,0.1-43.7,0.1-44c0-1.8,0.4-3.6,1.3-5.2
				c0.8-1.5,1.9-2.9,3.3-3.9c1.9-1.4,4.1-2.2,6.5-2.3c0.1,0,0.2,0,0.3,0c1.7,0,3.3,0.4,4.9,1.1c1,0.4,2,0.9,2.9,1.5l34.3,19.8
				c0.2,0.1,2,1.2,3.7,2.9c0.7,0.7,1.3,1.4,1.8,2.1v0.1c1.2,1.8,1.8,4,1.8,6.2c0,2.8-1,5.5-3,7.7c-0.6,0.7-1.3,1.3-1.9,1.7
				c-0.7,0.5-1.5,1.1-2.4,1.6L21.8,67.5c-0.4,0.2-2.5,1.4-5.2,2c-0.4,0.1-0.7,0.1-1.1,0.2h-0.2C15,69.7,14.5,69.8,13.9,69.8z"/>
			<path class="st3" d="M56.3,32c-1.3-1.3-2.7-2.1-2.7-2.1L36,19.7l2.7,7.7l8.2,4.9l-5.4,6.2l1.6,11l10.5-6.1c0.8-0.4,1.5-0.9,2-1.3
				c0.4-0.3,0.8-0.7,1.2-1c1-1.1,1.7-2.7,1.7-4.3c0-1.3-0.4-2.5-1-3.5C57.1,32.7,56.7,32.3,56.3,32z"/>
			<path class="st4" d="M22.3,49.8L25.8,34l-9.1-13.6l13,3.2l4.9-8.2l-2.7,1.8L19.2,10c-0.9-0.5-1.7-0.9-2.5-1.2
				c-0.9-0.4-1.8-0.7-2.9-0.7h-0.1c-1.4,0-2.7,0.5-3.8,1.3c-1.5,1.2-2.6,3-2.6,5.1c0,0.3-0.1,43.7-0.1,44c0,1.3,0.4,2.6,1.1,3.6
				c1.2,1.7,3.1,2.8,5.3,2.8c0.3,0,0.6-0.1,0.8-0.1c0.2-0.1,0.5-0.1,0.7-0.1c2.1-0.4,3.8-1.5,3.8-1.5l18.7-10.8l5.4-0.2l-9-8.2
				L22.3,49.8z"/>
		</g>
	</g>
</g>
<g>
	<path class="st4" d="M107.5,39c1.2,1.5,1.8,3.3,1.8,5.4c0,3.2-1.3,5.6-3.9,7.3c-2.6,1.7-6.3,2.6-11.3,2.6H74V18.6h19.1
		c4.8,0,8.4,0.9,10.8,2.6c2.4,1.7,3.7,4,3.7,6.8c0,1.7-0.4,3.2-1.3,4.5c-0.8,1.3-2.1,2.4-3.7,3.2C104.7,36.5,106.3,37.6,107.5,39z
		 M85.9,27v5.4h5.6c2.7,0,3.9-0.9,3.9-2.7S94.1,27,91.5,27L85.9,27L85.9,27z M97.1,43.1c0-1.8-1.3-2.8-4-2.8h-7.3v5.6h7.3
		C95.7,45.9,97.1,45,97.1,43.1z"/>
	<path class="st4" d="M127.8,45.4h-3.2v9h-12.1V18.6h17.2c3.3,0,6.2,0.5,8.6,1.6c2.4,1.1,4.3,2.7,5.7,4.7s2,4.4,2,7.1
		c0,2.6-0.6,4.8-1.8,6.7c-1.2,1.9-2.8,3.5-5,4.6l7.5,11h-12.9L127.8,45.4z M132.6,29c-0.8-0.7-2.1-1.1-3.7-1.1h-4.4v8.4h4.4
		c1.6,0,2.9-0.4,3.7-1.1c0.8-0.7,1.3-1.8,1.3-3.1C133.9,30.7,133.4,29.7,132.6,29z"/>
	<path class="st4" d="M149.6,18.6h12.1v35.8h-12.1V18.6z"/>
	<path class="st4" d="M190.1,35.5h10.5v15.2c-2.1,1.5-4.6,2.6-7.4,3.4c-2.8,0.8-5.5,1.2-8.2,1.2c-3.8,0-7.2-0.8-10.3-2.4
		c-3-1.6-5.4-3.8-7.1-6.6c-1.7-2.9-2.6-6.1-2.6-9.7c0-3.6,0.9-6.8,2.6-9.7c1.7-2.9,4.1-5.1,7.2-6.6c3.1-1.6,6.6-2.4,10.5-2.4
		c3.5,0,6.6,0.6,9.4,1.8c2.8,1.2,5.1,2.9,6.9,5.2l-7.7,6.8c-2.3-2.7-4.9-3.9-8-3.9c-2.7,0-4.8,0.8-6.3,2.4s-2.4,3.8-2.4,6.6
		c0,2.7,0.8,4.9,2.4,6.5c1.5,1.6,3.6,2.4,6.2,2.4c1.5,0,3-0.3,4.4-0.9L190.1,35.5L190.1,35.5z"/>
	<path class="st4" d="M240,18.6v35.8H228V41.2h-11.1v13.2h-12.1V18.6h12.1v12.7H228V18.6H240z"/>
	<path class="st4" d="M252.6,27.9h-10.5v-9.4h33.1v9.4h-10.5v26.4h-12.1L252.6,27.9L252.6,27.9z"/>
	<path class="st4" d="M307,45.2v9.1h-29.7V18.6h29.1v9.1h-17.2v4.2h15.2v8.7h-15.2v4.7L307,45.2L307,45.2z"/>
	<path class="st4" d="M319,52.8c-3.1-1.6-5.4-3.8-7.2-6.7c-1.8-2.9-2.6-6-2.6-9.6c0-3.6,0.9-6.8,2.6-9.6c1.8-2.9,4.1-5.1,7.2-6.7
		s6.6-2.4,10.4-2.4c3.8,0,7.3,0.8,10.4,2.4c3.1,1.6,5.4,3.8,7.2,6.7c1.8,2.9,2.6,6,2.6,9.6c0,3.6-0.9,6.8-2.6,9.6
		c-1.8,2.9-4.1,5.1-7.2,6.7c-3.1,1.6-6.6,2.4-10.4,2.4C325.6,55.2,322.1,54.4,319,52.8z M333.5,44.3c1.2-0.7,2.2-1.8,2.9-3.1
		c0.7-1.3,1.1-2.9,1.1-4.7c0-1.8-0.4-3.4-1.1-4.7c-0.7-1.3-1.7-2.4-2.9-3.1c-1.2-0.7-2.6-1.1-4-1.1c-1.5,0-2.9,0.4-4,1.1
		c-1.2,0.7-2.2,1.8-2.9,3.1c-0.7,1.3-1.1,2.9-1.1,4.7c0,1.8,0.4,3.4,1.1,4.7c0.7,1.3,1.7,2.4,2.9,3.1c1.2,0.7,2.6,1.1,4,1.1
		C331,45.4,332.3,45.1,333.5,44.3z"/>
	<path class="st4" d="M388.3,18.6v35.8h-9.9l-13.6-16.3v16.3H353V18.6h9.9l13.6,16.3V18.6H388.3z"/>
	<path class="st4" d="M393.1,53c-1.3-1.3-1.9-2.9-1.9-4.8s0.7-3.5,1.9-4.7c1.3-1.2,2.9-1.8,4.9-1.8c1.9,0,3.5,0.6,4.9,1.8
		c1.3,1.2,1.9,2.8,1.9,4.7c0,1.9-0.7,3.5-1.9,4.8c-1.3,1.3-2.9,1.8-4.9,1.8C396.1,54.9,394.4,54.3,393.1,53z"/>
	<path class="st4" d="M407.6,18.6h12.1v35.8h-12.1V18.6z"/>
	<path class="st4" d="M432.9,52.8c-3.1-1.6-5.4-3.8-7.2-6.7c-1.8-2.9-2.6-6-2.6-9.6c0-3.6,0.9-6.8,2.6-9.6c1.8-2.9,4.1-5.1,7.2-6.7
		s6.6-2.4,10.4-2.4c3.8,0,7.3,0.8,10.4,2.4c3.1,1.6,5.4,3.8,7.2,6.7s2.6,6,2.6,9.6c0,3.6-0.9,6.8-2.6,9.6c-1.8,2.9-4.1,5.1-7.2,6.7
		c-3.1,1.6-6.6,2.4-10.4,2.4C439.4,55.2,436,54.4,432.9,52.8z M447.4,44.3c1.2-0.7,2.2-1.8,2.9-3.1c0.7-1.3,1.1-2.9,1.1-4.7
		c0-1.8-0.4-3.4-1.1-4.7c-0.7-1.3-1.7-2.4-2.9-3.1c-1.2-0.7-2.6-1.1-4-1.1c-1.5,0-2.9,0.4-4,1.1c-1.2,0.7-2.2,1.8-2.9,3.1
		c-0.7,1.3-1.1,2.9-1.1,4.7c0,1.8,0.4,3.4,1.1,4.7c0.7,1.3,1.7,2.4,2.9,3.1c1.2,0.7,2.6,1.1,4,1.1C444.8,45.4,446.1,45.1,447.4,44.3
		z"/>
</g>
<g>
	<path class="st5" d="M83.5,65.4c0,2.4-1.8,3.9-4.7,3.9h-2.5v3.2h-2.1v-11h4.6C81.7,61.4,83.5,62.9,83.5,65.4z M81.5,65.4
		c0-1.4-1-2.2-2.7-2.2h-2.4v4.3h2.4C80.5,67.5,81.5,66.7,81.5,65.4z"/>
	<path class="st5" d="M84.3,68.3c0-2.5,1.9-4.3,4.5-4.3s4.5,1.8,4.5,4.3c0,2.5-1.8,4.3-4.5,4.3C86.1,72.5,84.3,70.8,84.3,68.3z
		 M91.2,68.3c0-1.6-1.1-2.7-2.5-2.7c-1.4,0-2.5,1-2.5,2.7s1.1,2.7,2.5,2.7C90.1,70.9,91.2,69.9,91.2,68.3z"/>
	<path class="st5" d="M107.5,64.1l-3.1,8.4h-1.9l-2.1-5.8l-2.2,5.8h-1.9l-3-8.4h1.8l2.2,6.2l2.3-6.2h1.6l2.3,6.3l2.3-6.3H107.5z"/>
	<path class="st5" d="M116.1,68.9h-6.6c0.2,1.3,1.3,2,2.7,2c1,0,1.7-0.3,2.3-0.9l1,1.2c-0.7,0.9-1.9,1.4-3.4,1.4
		c-2.8,0-4.6-1.8-4.6-4.3s1.8-4.3,4.3-4.3c2.4,0,4.3,1.7,4.3,4.3C116.2,68.5,116.1,68.7,116.1,68.9z M109.5,67.6h4.8
		c-0.1-1.2-1.1-2.1-2.4-2.1C110.7,65.5,109.7,66.4,109.5,67.6z"/>
	<path class="st5" d="M122.5,63.9v1.8c-0.1,0-0.3-0.1-0.4-0.1c-1.5,0-2.4,0.9-2.4,2.6v4h-2v-8.2h1.8v1.3
		C120,64.4,121.1,63.9,122.5,63.9z"/>
	<path class="st5" d="M131.5,68.9h-6.6c0.2,1.3,1.3,2,2.7,2c1,0,1.7-0.3,2.3-0.9l1,1.2c-0.7,0.9-1.9,1.4-3.4,1.4
		c-2.8,0-4.6-1.8-4.6-4.3s1.8-4.3,4.3-4.3c2.4,0,4.3,1.7,4.3,4.3C131.5,68.5,131.5,68.7,131.5,68.9z M124.8,67.6h4.8
		c-0.1-1.2-1.1-2.1-2.4-2.1S125,66.4,124.8,67.6z"/>
	<path class="st5" d="M141.2,60.8v11.7h-1.9v-1.1c-0.7,0.8-1.6,1.2-2.8,1.2c-2.4,0-4.3-1.7-4.3-4.3c0-2.6,1.8-4.3,4.3-4.3
		c1.1,0,2.1,0.4,2.7,1.1v-4.3L141.2,60.8L141.2,60.8z M139.3,68.3c0-1.6-1.1-2.7-2.5-2.7c-1.4,0-2.5,1-2.5,2.7s1.1,2.7,2.5,2.7
		C138.2,70.9,139.3,69.9,139.3,68.3z"/>
	<path class="st5" d="M156.6,68.3c0,2.6-1.8,4.3-4.3,4.3c-1.2,0-2.1-0.4-2.8-1.2v1.1h-1.8V60.8h2V65c0.7-0.7,1.6-1.1,2.7-1.1
		C154.8,63.9,156.6,65.6,156.6,68.3z M154.6,68.3c0-1.6-1.1-2.7-2.5-2.7c-1.4,0-2.5,1-2.5,2.7s1.1,2.7,2.5,2.7
		C153.5,70.9,154.6,69.9,154.6,68.3z"/>
	<path class="st5" d="M165.7,64.1l-3.9,9.1c-0.7,1.9-1.8,2.5-3.2,2.5c-0.8,0-1.7-0.3-2.3-0.7l0.8-1.5c0.4,0.4,0.9,0.6,1.5,0.6
		c0.7,0,1.1-0.3,1.5-1.2l0.1-0.3l-3.7-8.5h2.1l2.7,6.2l2.7-6.2C163.8,64.1,165.7,64.1,165.7,64.1z"/>
	<path class="st5" d="M180.8,69.4c0,1.9-1.5,3-4.3,3H171v-11h5.2c2.7,0,4,1.1,4,2.9c0,1.1-0.6,2-1.4,2.4
		C180,67.1,180.8,68,180.8,69.4z M173,63v3h2.9c1.4,0,2.2-0.5,2.2-1.5s-0.8-1.5-2.2-1.5L173,63L173,63z M178.7,69.3
		c0-1.1-0.8-1.6-2.4-1.6H173v3.2h3.3C177.9,70.8,178.7,70.3,178.7,69.3z"/>
	<path class="st5" d="M189.5,67.5v4.9h-1.8v-1c-0.4,0.7-1.4,1.1-2.7,1.1c-1.9,0-3.2-1-3.2-2.5c0-1.4,1-2.5,3.5-2.5h2.1v-0.1
		c0-1.2-0.7-1.8-2.1-1.8c-1,0-1.9,0.3-2.6,0.8l-0.7-1.4c0.9-0.7,2.2-1,3.5-1C188.1,63.9,189.5,65.1,189.5,67.5z M187.6,69.8v-1h-2.1
		c-1.3,0-1.7,0.5-1.7,1.1c0,0.7,0.6,1.2,1.6,1.2C186.4,71.1,187.2,70.7,187.6,69.8z"/>
	<path class="st5" d="M190.6,71.7l0.7-1.5c0.7,0.5,1.8,0.8,2.9,0.8c1.3,0,1.8-0.4,1.8-1c0-1.6-5.2-0.1-5.2-3.5
		c0-1.6,1.4-2.7,3.7-2.7c1.1,0,2.4,0.3,3.2,0.7l-0.7,1.5c-0.8-0.4-1.6-0.7-2.4-0.7c-1.2,0-1.8,0.4-1.8,1c0,1.7,5.2,0.2,5.2,3.5
		c0,1.5-1.5,2.6-3.8,2.6C192.8,72.5,191.4,72.2,190.6,71.7z"/>
	<path class="st5" d="M204.6,72c-0.4,0.4-1.2,0.6-1.9,0.6c-1.8,0-2.9-1-2.9-2.8v-4h-1.4v-1.5h1.4v-1.9h2v1.9h2.3v1.5h-2.3v4
		c0,0.8,0.4,1.3,1.2,1.3c0.4,0,0.8-0.1,1.1-0.4L204.6,72z"/>
	<path class="st5" d="M213.9,64.1l-3.9,9.1c-0.7,1.9-1.8,2.5-3.2,2.5c-0.8,0-1.7-0.3-2.3-0.7l0.8-1.5c0.4,0.4,0.9,0.6,1.5,0.6
		c0.7,0,1.1-0.3,1.5-1.2l0.1-0.3l-3.7-8.5h2.1l2.7,6.2l2.7-6.2C212.1,64.1,213.9,64.1,213.9,64.1z"/>
	<path class="st5" d="M213.7,68.3c0-2.5,1.9-4.3,4.5-4.3s4.5,1.8,4.5,4.3c0,2.5-1.8,4.3-4.5,4.3C215.6,72.5,213.7,70.8,213.7,68.3z
		 M220.7,68.3c0-1.6-1.1-2.7-2.5-2.7s-2.5,1-2.5,2.7s1.1,2.7,2.5,2.7C219.7,70.9,220.7,69.9,220.7,68.3z"/>
	<path class="st5" d="M232.4,67.7v4.8h-2v-4.6c0-1.5-0.7-2.2-2-2.2c-1.4,0-2.4,0.9-2.4,2.5v4.3h-2v-8.4h1.8v1.1
		c0.7-0.7,1.7-1.2,2.9-1.2C230.8,63.9,232.4,65.1,232.4,67.7z"/>
</g>
</svg>
