<?xml version="1.0" encoding="utf-8"?>
<!-- Generator: Adobe Illustrator 28.1.0, SVG Export Plug-In . SVG Version: 6.00 Build 0)  -->
<svg version="1.1" id="Слой_1" xmlns="http://www.w3.org/2000/svg" xmlns:xlink="http://www.w3.org/1999/xlink" x="0px" y="0px"
	 width="465.5px" height="78.8000031px" viewBox="0 0 465.5 78.8000031" style="enable-background:new 0 0 465.5 78.8000031;"
	 xml:space="preserve">
<style type="text/css">
	.st0{fill:none;}
	.st1{fill:#CCCBCB;}
	.st2{fill:#FFFFFF;}
	.st3{fill:#E0203C;}
	.st4{fill:#1B2E5A;}
</style>
<g>
	<g>
		<g>
			<path class="st0" d="M22.2999992,49.7999992L25.7999992,34l-9.1000004-13.6000004l13,3.2000008l4.8999996-8.1999998
				l-2.7000008,1.8000002L19.2000008,10c-0.8999996-0.5-1.7000008-0.8999996-2.5-1.1999998
				c-0.8999996-0.3999996-1.8000002-0.6999998-2.8999996-0.6999998h-0.1000004c-1.3999996,0-2.6999998,0.5-3.8000002,1.3000002
				c-1.5,1.1999998-2.5999999,3-2.5999999,5.0999994c0,0.3000002-0.0999999,43.7000008-0.0999999,44
				c0,1.2999992,0.4000001,2.5999985,1.1000004,3.5999985c1.1999998,1.7000008,3.1000004,2.8000031,5.3000002,2.8000031
				c0.3000002,0,0.6000004-0.0999985,0.8000002-0.0999985c0.1999998-0.0999985,0.5-0.0999985,0.6999998-0.0999985
				c2.0999994-0.4000015,3.8000002-1.5,3.8000002-1.5l18.7000008-10.7999992l5.4000015-0.2000008l-9-8.2000008
				L22.2999992,49.7999992z"/>
			<path class="st0" d="M38.5999985,27.2999992l8.2000008,4.9000015l-5.4000015,6.2000008l1.5999985,11l10.5-6.0999985
				c0.7999992-0.4000015,1.5-0.9000015,2-1.2999992c0.4000015-0.2999992,0.7999992-0.7000008,1.2000008-1
				c1-1.0999985,1.7000008-2.7000008,1.7000008-4.2999992c0-1.2999992-0.4000015-2.5-1-3.5
				c-0.2999992-0.4000015-0.7000008-0.9000015-1.0999985-1.2999992C55,30.6000061,53.5999985,29.800005,53.5999985,29.800005
				L36,19.7000008L38.5999985,27.2999992z"/>
			<path class="st1" d="M62.2000008,30.1000004L62.2000008,30.1000004c-0.5999985-0.8999996-1.2999992-1.6000004-2-2.3999996
				C58.4000015,26,56.7000008,25,56.4000015,24.8000011L22.1000004,5c-1-0.5999999-2.1000004-1.0999999-3-1.5
				C17.5,2.7,15.7000008,2.3,13.9000006,2.3c-0.1000004,0-0.1999998,0-0.3999996,0
				c-2.5,0.0999999-4.9000006,0.8999999-6.9000001,2.3999999C5.3000002,5.8000002,4,7.3000002,3.0999999,8.8999996
				C2.1999998,10.5999994,1.8,12.5,1.8,14.5c0,0.1999998,0,13,0,22.7000008v13c0,4.9000015,0,8.2000008,0,8.2000008
				c0,2.4000015,0.7,4.7999992,2.0999999,6.8000031c2.3,3.3000031,6,5.3000031,10,5.3000031
				c0.6999998,0,1.1999998-0.0999985,1.5-0.0999985h0.1999998c0.3999996-0.0999985,0.8000002-0.0999985,1.1999998-0.1999969
				c2.7999992-0.5999985,4.8999996-1.8000031,5.3999996-2.0999985l34.2000046-19.7999992
				c0.9000015-0.5,1.7999992-1.0999985,2.5-1.5999985S60.3000031,45.6000175,61,44.9000168
				c2.0999985-2.2999992,3.1999969-5.2000008,3.1999969-8.2000008C64.1999969,34.2999992,63.5999985,32,62.2000008,30.1000004z"/>
			<path class="st2" d="M13.8999996,69.8000031C10.0999994,69.8000031,6.5999994,68,4.5,64.9000015C3.2,63,2.5,60.8000031,2.5,58.5
				c0-0.0999985,0.0999999-43.7000008,0.0999999-44c0-1.8000002,0.4000001-3.6000004,1.3-5.1999998
				c0.8-1.5,1.8999999-2.9000001,3.3-3.9000001c1.8999996-1.4000001,4.0999994-2.2,6.5-2.3c0.1000004,0,0.1999998,0,0.3000002,0
				c1.6999998,0,3.2999992,0.4000001,4.8999996,1.1000001c1,0.4000001,2,0.9000001,2.8999996,1.5L56.0999985,25.5
				c0.2000008,0.1000004,2,1.2000008,3.7000008,2.8999996C60.5,29.1000004,61.0999985,29.7999992,61.5999985,30.5v0.1000004
				c1.2000008,1.8000011,1.7999992,3.9999981,1.7999992,6.1999989c0,2.7999992-1,5.5-3,7.7000008
				c-0.5999985,0.7000008-1.2999992,1.2999992-1.9000015,1.7000008c-0.7000008,0.5-1.5,1.0999985-2.4000015,1.5999985
				L21.7999992,67.5c-0.3999996,0.1999969-2.5,1.4000015-5.2000008,2c-0.3999996,0.0999985-0.6999998,0.0999985-1.1000004,0.1999969
				h-0.1999998C15,69.6999969,14.5,69.8000031,13.8999996,69.8000031z"/>
			<path class="st3" d="M56.2999992,32C55,30.7000008,53.5999985,29.8999996,53.5999985,29.8999996L36,19.7000008
				l2.7000008,7.7000008l8.2000008,4.9000015L41.5,38.5000038l1.5999985,11l10.5-6.0999985
				c0.7999992-0.4000015,1.5-0.9000015,2-1.2999992c0.4000015-0.2999992,0.7999992-0.7000008,1.2000008-1
				c1-1.0999985,1.7000008-2.7000008,1.7000008-4.2999992c0-1.2999992-0.4000015-2.5-1-3.5
				C57.0999985,32.7000008,56.7000008,32.2999992,56.2999992,32z"/>
			<path class="st4" d="M22.2999992,49.7999992L25.7999992,34l-9.1000004-13.6000004l13,3.2000008l4.8999996-8.1999998
				l-2.7000008,1.8000002L19.2000008,10c-0.8999996-0.5-1.7000008-0.8999996-2.5-1.1999998
				c-0.8999996-0.3999996-1.8000002-0.6999998-2.8999996-0.6999998h-0.1000004c-1.3999996,0-2.6999998,0.5-3.8000002,1.3000002
				c-1.5,1.1999998-2.5999999,3-2.5999999,5.0999994c0,0.3000002-0.0999999,43.7000008-0.0999999,44
				c0,1.2999992,0.4000001,2.5999985,1.1000004,3.5999985c1.1999998,1.7000008,3.1000004,2.8000031,5.3000002,2.8000031
				c0.3000002,0,0.6000004-0.0999985,0.8000002-0.0999985c0.1999998-0.0999985,0.5-0.0999985,0.6999998-0.0999985
				c2.0999994-0.4000015,3.8000002-1.5,3.8000002-1.5l18.7000008-10.7999992l5.4000015-0.2000008l-9-8.2000008
				L22.2999992,49.7999992z"/>
		</g>
	</g>
</g>
<g>
	<path class="st2" d="M107.5,39c1.1999969,1.5,1.8000031,3.2999992,1.8000031,5.4000015
		c0,3.2000008-1.3000031,5.5999985-3.9000015,7.2999992s-6.3000031,2.5999985-11.3000031,2.5999985H74V18.6000004h19.0999985
		c4.8000031,0,8.4000015,0.8999996,10.8000031,2.6000004s3.6999969,4,3.6999969,6.7999992
		c0,1.7000008-0.4000015,3.2000008-1.3000031,4.5c-0.8000031,1.2999992-2.0999985,2.4000015-3.6999969,3.2000008
		C104.6999969,36.5,106.3000031,37.5999985,107.5,39z M85.9000015,27v5.4000015H91.5
		c2.6999969,0,3.9000015-0.8999996,3.9000015-2.7000008S94.0999985,27,91.5,27H85.9000015L85.9000015,27z M97.0999985,43.0999985
		c0-1.7999992-1.3000031-2.7999992-4-2.7999992h-7.3000031v5.5999985h7.3000031
		C95.6999969,45.9000015,97.0999985,45,97.0999985,43.0999985z"/>
	<path class="st2" d="M127.8000031,45.4000015h-3.1999969v9h-12.0999985V18.6000004h17.2000046
		c3.3000031,0,6.1999969,0.5,8.6000061,1.6000004c2.3999939,1.1000004,4.3000031,2.7000008,5.6999969,4.7000008
		s2,4.3999996,2,7.0999985c0,2.5999985-0.6000061,4.7999992-1.8000031,6.7000008s-2.8000031,3.5-5,4.5999985l7.5,11h-12.8999939
		L127.8000031,45.4000015z M132.6000061,29c-0.8000031-0.7000008-2.1000061-1.1000004-3.6999969-1.1000004h-4.4000015v8.3999996
		h4.4000015c1.6000061,0,2.8999939-0.4000015,3.6999969-1.0999985c0.8000031-0.7000008,1.3000031-1.7999992,1.3000031-3.0999985
		C133.8999939,30.7000008,133.3999939,29.7000008,132.6000061,29z"/>
	<path class="st2" d="M149.6000061,18.6000004h12.1000061v35.8000031h-12.1000061V18.6000004z"/>
	<path class="st2" d="M190.1000061,35.5h10.5v15.2000008c-2.1000061,1.5-4.6000061,2.5999985-7.3999939,3.4000015
		c-2.8000031,0.7999992-5.5,1.2000008-8.1999969,1.2000008c-3.8000031,0-7.1999969-0.7999992-10.3000031-2.4000015
		c-3-1.5999985-5.3999939-3.7999992-7.1000061-6.5999985C165.9000092,43.4000015,165,40.2000046,165,36.6000023
		c0-3.5999985,0.8999939-6.7999992,2.6000061-9.7000008c1.6999969-2.8999996,4.1000061-5.1000004,7.1999969-6.6000004
		c3.1000061-1.6000004,6.6000061-2.3999996,10.5-2.3999996c3.5,0,6.6000061,0.6000004,9.3999939,1.7999992
		c2.8000031,1.2000008,5.1000061,2.8999996,6.8999939,5.2000008l-7.6999969,6.7999992
		c-2.3000031-2.7000008-4.8999939-3.8999996-8-3.8999996c-2.6999969,0-4.8000031,0.7999992-6.3000031,2.3999996
		S177.1999969,34,177.1999969,36.7999992c0,2.7000008,0.8000031,4.9000015,2.3999939,6.5
		c1.5,1.5999985,3.6000061,2.4000015,6.1999969,2.4000015c1.5,0,3-0.2999992,4.3999939-0.9000015L190.1000061,35.5L190.1000061,35.5
		z"/>
	<path class="st2" d="M240,18.6000004v35.8000031h-12V41.2000008h-11.1000061v13.2000008h-12.1000061V18.6000004h12.1000061
		v12.6999989H228V18.6000004H240z"/>
	<path class="st2" d="M252.6000061,27.8999996h-10.5V18.5h33.1000061v9.3999996h-10.5v26.3999996h-12.1000061V27.8999996
		L252.6000061,27.8999996z"/>
	<path class="st2" d="M307,45.2000008v9.1000023h-29.7000122V18.6000004h29.1000061v9.1000004h-17.2000122v4.2000008h15.2000122
		v8.7000008h-15.2000122v4.7000008L307,45.2000008L307,45.2000008z"/>
	<path class="st2" d="M319,52.7999992c-3.1000061-1.5999985-5.3999939-3.7999992-7.2000122-6.7000008
		c-1.7999878-2.9000015-2.6000061-6-2.6000061-9.5999985s0.8999939-6.7999992,2.6000061-9.6000004
		C313.5999756,24,315.8999939,21.7999992,319,20.2000008s6.6000061-2.3999996,10.3999939-2.3999996
		s7.2999878,0.7999992,10.3999939,2.3999996S345.1999817,24,347,26.9000015c1.7999878,2.8999996,2.6000061,6,2.6000061,9.5999985
		S348.7000122,43.2999992,347,46.0999985c-1.7999878,2.9000015-4.1000061,5.0999985-7.2000122,6.7000008
		c-3.1000061,1.5999985-6.6000061,2.4000015-10.3999939,2.4000015S322.1000061,54.4000015,319,52.7999992z M333.5,44.2999992
		c1.2000122-0.7000008,2.2000122-1.7999992,2.8999939-3.0999985C337.1000061,39.9000015,337.5,38.2999992,337.5,36.5
		s-0.3999939-3.4000015-1.1000061-4.7000008S334.6999817,29.3999996,333.5,28.6999989
		c-1.2000122-0.7000008-2.6000061-1.1000004-4-1.1000004c-1.5,0-2.8999939,0.3999996-4,1.1000004
		c-1.2000122,0.7000008-2.2000122,1.7999992-2.8999939,3.1000004C321.8999939,33.0999985,321.5,34.7000008,321.5,36.5
		s0.3999939,3.4000015,1.1000061,4.7000008s1.7000122,2.4000015,2.8999939,3.0999985
		c1.2000122,0.7000008,2.6000061,1.0999985,4,1.0999985C331,45.4000015,332.2999878,45.0999985,333.5,44.2999992z"/>
	<path class="st2" d="M388.2999878,18.6000004v35.8000031h-9.8999939l-13.6000061-16.2999992v16.2999992H353V18.6000004h9.8999939
		L376.5,34.9000015V18.6000004H388.2999878z"/>
	<path class="st2" d="M393.1000061,53c-1.2999878-1.2999992-1.8999939-2.9000015-1.8999939-4.7999992
		s0.7000122-3.5,1.8999939-4.7000008C394.3999939,42.2999992,396,41.7000008,398,41.7000008
		c1.8999939,0,3.5,0.5999985,4.8999939,1.7999992c1.2999878,1.2000008,1.8999939,2.7999992,1.8999939,4.7000008
		s-0.7000122,3.5-1.8999939,4.7999992C401.6000061,54.2999992,400,54.7999992,398,54.7999992
		C396.1000061,54.9000015,394.3999939,54.2999992,393.1000061,53z"/>
	<path class="st2" d="M407.6000061,18.6000004h12.1000061v35.8000031h-12.1000061V18.6000004z"/>
	<path class="st2" d="M432.8999939,52.7999992C429.7999878,51.2000008,427.5,49,425.6999817,46.0999985
		c-1.7999878-2.9000015-2.6000061-6-2.6000061-9.5999985s0.8999939-6.7999992,2.6000061-9.6000004
		c1.7999878-2.8999996,4.1000061-5.1000004,7.2000122-6.6999989S439.5,17.8000011,443.2999878,17.8000011
		s7.2999878,0.7999992,10.3999939,2.3999996S459.0999756,24,460.8999939,26.9000015S463.5,32.9000015,463.5,36.5
		s-0.8999939,6.7999992-2.6000061,9.5999985c-1.7999878,2.9000015-4.1000061,5.0999985-7.2000122,6.7000008
		c-3.1000061,1.5999985-6.6000061,2.4000015-10.3999939,2.4000015C439.3999939,55.2000008,436,54.4000015,432.8999939,52.7999992z
		 M447.3999939,44.2999992c1.2000122-0.7000008,2.2000122-1.7999992,2.8999939-3.0999985
		C451,39.9000015,451.3999939,38.2999992,451.3999939,36.5S451,33.0999985,450.2999878,31.7999992
		s-1.7000122-2.3999996-2.8999939-3.1000004c-1.2000122-0.7000008-2.6000061-1.1000004-4-1.1000004
		c-1.5,0-2.8999939,0.3999996-4,1.1000004c-1.2000122,0.7000008-2.2000122,1.7999992-2.8999939,3.1000004
		c-0.7000122,1.2999992-1.1000061,2.9000015-1.1000061,4.7000008s0.3999939,3.4000015,1.1000061,4.7000008
		s1.7000122,2.4000015,2.8999939,3.0999985c1.2000122,0.7000008,2.6000061,1.0999985,4,1.0999985
		C444.7999878,45.4000015,446.1000061,45.0999985,447.3999939,44.2999992z"/>
</g>
<g>
	<path class="st2" d="M83.5,65.4000015c0,2.4000015-1.8000031,3.9000015-4.6999969,3.9000015h-2.5V72.5h-2.0999985v-11h4.5999985
		C81.6999969,61.4000015,83.5,62.9000015,83.5,65.4000015z M81.5,65.4000015c0-1.4000015-1-2.2000008-2.6999969-2.2000008
		h-2.4000015V67.5h2.4000015C80.5,67.5,81.5,66.6999969,81.5,65.4000015z"/>
	<path class="st2" d="M84.3000031,68.3000031c0-2.5,1.9000015-4.3000031,4.5-4.3000031s4.5,1.8000031,4.5,4.3000031
		s-1.8000031,4.3000031-4.5,4.3000031C86.0999985,72.5,84.3000031,70.8000031,84.3000031,68.3000031z M91.1999969,68.3000031
		c0-1.5999985-1.0999985-2.6999969-2.5-2.6999969s-2.5,1-2.5,2.6999969S87.2999954,71,88.6999969,71
		C90.0999985,70.9000015,91.1999969,69.9000015,91.1999969,68.3000031z"/>
	<path class="st2" d="M107.5,64.0999985L104.4000015,72.5H102.5l-2.0999985-5.8000031L98.2000046,72.5h-1.9000015l-3-8.4000015
		h1.8000031l2.1999969,6.1999969l2.3000031-6.1999969h1.5999985l2.3000031,6.3000031l2.3000031-6.3000031H107.5z"/>
	<path class="st2" d="M116.0999985,68.9000015H109.5c0.1999969,1.3000031,1.3000031,2,2.6999969,2
		c1,0,1.6999969-0.3000031,2.3000031-0.9000015l1,1.1999969c-0.6999969,0.9000015-1.9000015,1.4000015-3.4000015,1.4000015
		c-2.8000031,0-4.5999985-1.8000031-4.5999985-4.3000031s1.8000031-4.2999992,4.3000031-4.2999992
		c2.4000015,0,4.3000031,1.7000008,4.3000031,4.2999992C116.1999969,68.5,116.0999985,68.6999969,116.0999985,68.9000015z
		 M109.5,67.5999985h4.8000031C114.2000046,66.4000015,113.2000046,65.5,111.9000015,65.5
		C110.6999969,65.5,109.6999969,66.4000015,109.5,67.5999985z"/>
	<path class="st2" d="M122.5,63.9000015v1.8000031c-0.0999985,0-0.3000031-0.0999985-0.4000015-0.0999985
		c-1.5,0-2.4000015,0.9000015-2.4000015,2.5999985v4h-2v-8.1999969H119.5v1.3000031
		C120,64.4000015,121.0999985,63.9000015,122.5,63.9000015z"/>
	<path class="st2" d="M131.5,68.9000015h-6.5999985c0.1999969,1.3000031,1.3000031,2,2.6999969,2
		c1.0000076,0,1.7000046-0.3000031,2.2999954-0.9000015l1,1.1999969c-0.6999969,0.9000015-1.8999939,1.4000015-3.4000015,1.4000015
		c-2.8000031,0-4.5999985-1.8000031-4.5999985-4.3000031s1.8000031-4.2999992,4.3000031-4.2999992
		c2.3999939,0,4.3000031,1.7000008,4.3000031,4.2999992C131.5,68.5,131.5,68.6999969,131.5,68.9000015z M124.8000031,67.5999985
		h4.8000031C129.5,66.4000015,128.5,65.5,127.2000046,65.5S125,66.4000015,124.8000031,67.5999985z"/>
	<path class="st2" d="M141.1999969,60.7999992V72.5h-1.8999939v-1.0999985
		c-0.6999969,0.8000031-1.6000061,1.1999969-2.8000031,1.1999969c-2.3999939,0-4.3000031-1.6999969-4.3000031-4.3000031
		c0-2.5999985,1.8000031-4.2999992,4.3000031-4.2999992c1.1000061,0,2.1000061,0.3999977,2.6999969,1.1000023v-4.2999992
		H141.1999969L141.1999969,60.7999992z M139.3000031,68.3000031c0-1.5999985-1.1000061-2.6999969-2.5-2.6999969
		s-2.5,1-2.5,2.6999969S135.4000092,71,136.8000031,71C138.1999969,70.9000015,139.3000031,69.9000015,139.3000031,68.3000031z"/>
	<path class="st2" d="M156.6000061,68.3000031c0,2.5999985-1.8000031,4.3000031-4.3000031,4.3000031
		c-1.1999969,0-2.1000061-0.4000015-2.8000031-1.1999969v1.0999985h-1.8000031V60.7999992h2V65
		c0.6999969-0.6999969,1.6000061-1.0999985,2.6999969-1.0999985
		C154.8000031,63.9000015,156.6000061,65.5999985,156.6000061,68.3000031z M154.6000061,68.3000031
		c0-1.5999985-1.1000061-2.6999969-2.5-2.6999969s-2.5,1-2.5,2.6999969S150.7000122,71,152.1000061,71
		C153.5,70.9000015,154.6000061,69.9000015,154.6000061,68.3000031z"/>
	<path class="st2" d="M165.6999969,64.0999985l-3.8999939,9.0999985c-0.6999969,1.9000015-1.8000031,2.5-3.1999969,2.5
		c-0.8000031,0-1.6999969-0.3000031-2.3000031-0.6999969l0.8000031-1.5c0.3999939,0.4000015,0.8999939,0.5999985,1.5,0.5999985
		c0.6999969,0,1.1000061-0.3000031,1.5-1.1999969l0.1000061-0.3000031l-3.6999969-8.5h2.1000061l2.6999969,6.1999969
		l2.6999969-6.1999969C163.8000031,64.0999985,165.6999969,64.0999985,165.6999969,64.0999985z"/>
	<path class="st2" d="M180.8000031,69.4000015c0,1.9000015-1.5,3-4.3000031,3H171v-11h5.1999969
		c2.6999969,0,4,1.0999985,4,2.9000015c0,1.0999985-0.6000061,2-1.3999939,2.4000015
		C180,67.0999985,180.8000031,68,180.8000031,69.4000015z M173,63v3h2.8999939c1.3999939,0,2.1999969-0.5,2.1999969-1.5
		s-0.8000031-1.5-2.1999969-1.5H173L173,63z M178.6999969,69.3000031c0-1.0999985-0.8000031-1.5999985-2.3999939-1.5999985H173
		v3.1999969h3.3000031C177.8999939,70.8000031,178.6999969,70.3000031,178.6999969,69.3000031z"/>
	<path class="st2" d="M189.5,67.5v4.9000015h-1.8000031v-1C187.3000031,72.0999985,186.3000031,72.5,185,72.5
		c-1.8999939,0-3.1999969-1-3.1999969-2.5c0-1.4000015,1-2.5,3.5-2.5h2.1000061v-0.0999985
		c0-1.1999969-0.6999969-1.8000031-2.1000061-1.8000031c-1,0-1.8999939,0.3000031-2.6000061,0.8000031L182,65
		c0.8999939-0.6999969,2.1999969-1,3.5-1C188.1000061,63.9000015,189.5,65.0999985,189.5,67.5z M187.6000061,69.8000031v-1H185.5
		c-1.3000031,0-1.6999969,0.5-1.6999969,1.0999985c0,0.6999969,0.6000061,1.1999969,1.6000061,1.1999969
		C186.3999939,71.0999985,187.1999969,70.6999969,187.6000061,69.8000031z"/>
	<path class="st2" d="M190.6000061,71.6999969l0.6999969-1.5C192,70.6999969,193.1000061,71,194.1999969,71
		C195.5,71,196,70.5999985,196,70c0-1.5999985-5.1999969-0.0999985-5.1999969-3.5
		c0-1.5999985,1.3999939-2.7000008,3.6999969-2.7000008c1.1000061,0,2.3999939,0.2999992,3.1999969,0.7000008L197,66
		c-0.8000031-0.4000015-1.6000061-0.6999969-2.3999939-0.6999969c-1.1999969,0-1.8000031,0.4000015-1.8000031,1
		C192.8000031,68,198,66.5,198,69.8000031c0,1.5-1.5,2.5999985-3.8000031,2.5999985
		C192.8000031,72.5,191.3999939,72.1999969,190.6000061,71.6999969z"/>
	<path class="st2" d="M204.6000061,72c-0.3999939,0.4000015-1.1999969,0.5999985-1.8999939,0.5999985
		c-1.8000031,0-2.8999939-1-2.8999939-2.8000031v-4h-1.3999939v-1.5h1.3999939v-1.9000015h2v1.9000015h2.3000031v1.5h-2.3000031v4
		c0,0.8000031,0.3999939,1.3000031,1.1999969,1.3000031c0.3999939,0,0.8000031-0.0999985,1.1000061-0.4000015L204.6000061,72z"/>
	<path class="st2" d="M213.8999939,64.0999985L210,73.1999969c-0.6999969,1.9000015-1.8000031,2.5-3.1999969,2.5
		C206,75.6999969,205.1000061,75.3999939,204.5,75l0.8000031-1.5c0.3999939,0.4000015,0.8999939,0.5999985,1.5,0.5999985
		c0.6999969,0,1.1000061-0.3000031,1.5-1.1999969l0.1000061-0.3000031l-3.6999969-8.5h2.1000061l2.6999969,6.1999969
		l2.6999969-6.1999969C212.1000061,64.0999985,213.8999939,64.0999985,213.8999939,64.0999985z"/>
	<path class="st2" d="M213.6999969,68.3000031c0-2.5,1.8999939-4.3000031,4.5-4.3000031s4.5,1.8000031,4.5,4.3000031
		s-1.8000031,4.3000031-4.5,4.3000031C215.6000061,72.5,213.6999969,70.8000031,213.6999969,68.3000031z M220.6999969,68.3000031
		c0-1.5999985-1.1000061-2.6999969-2.5-2.6999969s-2.5,1-2.5,2.6999969S216.8000031,71,218.1999969,71
		C219.6999969,70.9000015,220.6999969,69.9000015,220.6999969,68.3000031z"/>
	<path class="st2" d="M232.3999939,67.6999969V72.5h-2v-4.5999985c0-1.5-0.6999969-2.1999969-2-2.1999969
		C227,65.7000046,226,66.6000061,226,68.2000046v4.3000031h-2v-8.4000015h1.8000031v1.0999985
		C226.5,64.5000076,227.5,64.0000076,228.6999969,64.0000076C230.8000031,63.9000015,232.3999939,65.0999985,232.3999939,67.6999969
		z"/>
</g>
</svg>
