<?xml version="1.0" encoding="utf-8"?>
<!-- Generator: Adobe Illustrator 28.1.0, SVG Export Plug-In . SVG Version: 6.00 Build 0)  -->
<svg version="1.1" id="Слой_1" xmlns="http://www.w3.org/2000/svg" xmlns:xlink="http://www.w3.org/1999/xlink" x="0px" y="0px"
	 width="465.5px" height="78.8000031px" viewBox="0 0 465.5 78.8000031" style="enable-background:new 0 0 465.5 78.8000031;"
	 xml:space="preserve">
<style type="text/css">
	.st0{fill:none;}
	.st1{fill:#CCCBCB;}
	.st2{fill:#FFFFFF;}
	.st3{fill:#E0203C;}
	.st4{fill:#1B2E5A;}
	.st5{fill:url(#SVGID_1_);}
	.st6{fill:url(#SVGID_00000006669803179619130590000003493891187867353494_);}
	.st7{fill:#999999;}
	.st8{fill:#DADADA;}
	.st9{fill:#BB282D;}
	.st10{fill:#D42E34;}
</style>
<g>
	<g>
		<g>
			<path class="st0" d="M22.2999992,49.7999992L25.7999992,34l-9.1000004-13.5999985l13,3.2000008l4.8999996-8.1999998
				l-2.7000008,1.8000002l-12.6999969-7.2000008c-0.8999996-0.5-1.7000008-0.8999996-2.5-1.1999998
				c-0.8999996-0.3999996-1.8000002-0.6999998-2.8999996-0.6999998h-0.1000004c-1.3999996,0-2.6999998,0.5-3.8000002,1.3000002
				c-1.5,1.1999998-2.5999999,3-2.5999999,5.0999994c0,0.3000002-0.0999999,43.6999969-0.0999999,44
				c0,1.2999992,0.4000001,2.5999985,1.1000004,3.5999985c1.1999998,1.7000008,3.1000004,2.8000031,5.3000002,2.8000031
				c0.3000002,0,0.6000004-0.0999985,0.8000002-0.0999985c0.1999998-0.0999985,0.5-0.0999985,0.6999998-0.0999985
				c2.0999994-0.4000015,3.8000002-1.5,3.8000002-1.5l18.7000008-10.7999992l5.4000015-0.2000008l-9-8.2000008
				L22.2999992,49.7999992z"/>
			<path class="st0" d="M38.5999985,27.3000011l8.2000008,4.8999996l-5.4000015,6.2000008l1.5999985,11l10.5-6.0999985
				c0.7999992-0.4000015,1.5-0.9000015,2-1.2999992c0.4000015-0.2999992,0.7999992-0.7000008,1.2000008-1
				c1-1.0999985,1.7000008-2.7000008,1.7000008-4.2999992c0-1.2999992-0.4000015-2.5-1-3.5
				c-0.2999992-0.4000015-0.7000008-0.9000015-1.0999985-1.2999973C55,30.600008,53.5999985,29.8000069,53.5999985,29.8000069
				L36,19.7000027L38.5999985,27.3000011z"/>
			<path class="st1" d="M62.2000008,30.1000023L62.2000008,30.1000023c-0.5999985-0.8999996-1.2999992-1.6000004-2-2.3999996
				c-1.7999992-1.7000008-3.5-2.7000008-3.7999992-2.8999996L22.1000004,5.0000014c-1-0.5999999-2.1000004-1.0999999-3-1.5
				C17.5,2.7000017,15.7000008,2.3000016,13.9000006,2.3000016c-0.1000004,0-0.1999998,0-0.3999996,0
				c-2.5,0.0999999-4.9000006,0.8999996-6.9000001,2.3999996C5.3000002,5.8000016,4,7.3000016,3.0999999,8.9000015
				c-0.9000001,1.6999998-1.3,3.6000004-1.3,5.6000004c0,0.1999998,0,13,0,22.6999989v13c0,4.9000015,0,8.2000008,0,8.2000008
				c0,2.4000015,0.7,4.7999992,2.0999999,6.8000031c2.3,3.3000031,6,5.3000031,10,5.3000031
				c0.6999998,0,1.1999998-0.0999985,1.5-0.0999985h0.1999998c0.3999996-0.0999985,0.8000002-0.0999985,1.1999998-0.1999969
				c2.7999992-0.5999985,4.8999996-1.8000031,5.3999996-2.0999985l34.2000046-19.7999992
				c0.9000015-0.5,1.7999992-1.0999985,2.5-1.5999985S60.3000031,45.6000175,61,44.9000168
				c2.0999985-2.2999992,3.1999969-5.2000008,3.1999969-8.2000008C64.1999969,34.2999992,63.5999985,32,62.2000008,30.1000023z"/>
			<path class="st2" d="M13.8999996,69.8000031C10.0999994,69.8000031,6.5999994,68,4.5,64.9000015C3.2,63,2.5,60.8000031,2.5,58.5
				c0-0.0999985,0.0999999-43.6999969,0.0999999-44c0-1.8000002,0.4000001-3.6000004,1.3-5.1999998
				c0.8-1.5000005,1.8999999-2.9000006,3.3-3.9000006c1.8999996-1.4000001,4.0999994-2.1999998,6.5-2.2999997
				c0.1000004,0,0.1999998,0,0.3000002,0c1.6999998,0,3.2999992,0.4000001,4.8999996,1.0999999
				c1,0.4000001,2,0.9000001,2.8999996,1.5l34.2999992,19.7999992c0.2000008,0.1000004,2,1.2000008,3.7000008,2.8999996
				c0.7000008,0.7000008,1.2999992,1.3999996,1.7999992,2.1000004v0.1000004
				c1.2000008,1.7999992,1.7999992,3.9999962,1.7999992,6.1999969c0,2.7999992-1,5.5-3,7.7000008
				c-0.5999985,0.7000008-1.2999992,1.2999992-1.9000015,1.7000008c-0.7000008,0.5-1.5,1.0999985-2.4000015,1.5999985
				L21.7999992,67.5c-0.3999996,0.1999969-2.5,1.4000015-5.2000008,2c-0.3999996,0.0999985-0.6999998,0.0999985-1.1000004,0.1999969
				h-0.1999998C15,69.6999969,14.5,69.8000031,13.8999996,69.8000031z"/>
			<path class="st3" d="M56.2999992,32C55,30.7000027,53.5999985,29.9000015,53.5999985,29.9000015L36,19.7000027
				l2.7000008,7.7000008l8.2000008,4.8999996L41.5,38.5000038l1.5999985,11l10.5-6.0999985
				c0.7999992-0.4000015,1.5-0.9000015,2-1.2999992c0.4000015-0.2999992,0.7999992-0.7000008,1.2000008-1
				c1-1.0999985,1.7000008-2.7000008,1.7000008-4.2999992c0-1.2999992-0.4000015-2.5-1-3.5
				C57.0999985,32.7000008,56.7000008,32.2999992,56.2999992,32z"/>
			<path class="st4" d="M22.2999992,49.7999992L25.7999992,34l-9.1000004-13.5999985l13,3.2000008l4.8999996-8.1999998
				l-2.7000008,1.8000002l-12.6999969-7.2000008c-0.8999996-0.5-1.7000008-0.8999996-2.5-1.1999998
				c-0.8999996-0.3999996-1.8000002-0.6999998-2.8999996-0.6999998h-0.1000004c-1.3999996,0-2.6999998,0.5-3.8000002,1.3000002
				c-1.5,1.1999998-2.5999999,3-2.5999999,5.0999994c0,0.3000002-0.0999999,43.6999969-0.0999999,44
				c0,1.2999992,0.4000001,2.5999985,1.1000004,3.5999985c1.1999998,1.7000008,3.1000004,2.8000031,5.3000002,2.8000031
				c0.3000002,0,0.6000004-0.0999985,0.8000002-0.0999985c0.1999998-0.0999985,0.5-0.0999985,0.6999998-0.0999985
				c2.0999994-0.4000015,3.8000002-1.5,3.8000002-1.5l18.7000008-10.7999992l5.4000015-0.2000008l-9-8.2000008
				L22.2999992,49.7999992z"/>
		</g>
	</g>
</g>
<g>
	<path class="st4" d="M107.5,39c1.1999969,1.5,1.8000031,3.2999992,1.8000031,5.4000015
		c0,3.2000008-1.3000031,5.5999985-3.9000015,7.2999992s-6.3000031,2.5999985-11.3000031,2.5999985H74V18.6000023h19.0999985
		c4.8000031,0,8.4000015,0.8999996,10.8000031,2.6000004s3.6999969,4,3.6999969,6.7999992
		c0,1.7000008-0.4000015,3.2000008-1.3000031,4.4999981c-0.8000031,1.2999992-2.0999985,2.4000015-3.6999969,3.2000008
		C104.6999969,36.5,106.3000031,37.5999985,107.5,39z M85.9000015,27.0000019v5.3999996H91.5
		c2.6999969,0,3.9000015-0.8999977,3.9000015-2.6999989S94.0999985,27.0000019,91.5,27.0000019H85.9000015L85.9000015,27.0000019z
		 M97.0999985,43.0999985c0-1.7999992-1.3000031-2.7999992-4-2.7999992h-7.3000031v5.5999985h7.3000031
		C95.6999969,45.9000015,97.0999985,45,97.0999985,43.0999985z"/>
	<path class="st4" d="M127.8000031,45.4000015h-3.1999969v9h-12.0999985V18.6000023h17.2000046
		c3.3000031,0,6.1999969,0.5,8.6000061,1.6000004c2.3999939,1.1000004,4.3000031,2.7000008,5.6999969,4.7000008
		s2,4.3999996,2,7.0999966c0,2.5999985-0.6000061,4.7999992-1.8000031,6.7000008s-2.8000031,3.5-5,4.5999985l7.5,11h-12.8999939
		L127.8000031,45.4000015z M132.6000061,29.0000019c-0.8000031-0.7000008-2.1000061-1.1000004-3.6999969-1.1000004h-4.4000015
		v8.3999977h4.4000015c1.6000061,0,2.8999939-0.4000015,3.6999969-1.0999985
		c0.8000031-0.7000008,1.3000031-1.7999992,1.3000031-3.0999985
		C133.8999939,30.7000027,133.3999939,29.7000027,132.6000061,29.0000019z"/>
	<linearGradient id="SVGID_1_" gradientUnits="userSpaceOnUse" x1="155.6500092" y1="46.5401459" x2="155.6500092" y2="2.8607821">
		<stop  offset="0" style="stop-color:#1B2E5A"/>
		<stop  offset="1" style="stop-color:#000000"/>
	</linearGradient>
	<path class="st5" d="M149.6000061,18.6000023h12.1000061v35.7999992h-12.1000061V18.6000023z"/>
	
		<linearGradient id="SVGID_00000065785882971553413120000014360728477700035464_" gradientUnits="userSpaceOnUse" x1="186.1717529" y1="37.2914276" x2="145.9673767" y2="3.5250046">
		<stop  offset="0" style="stop-color:#1B2E5A"/>
		<stop  offset="1" style="stop-color:#000000"/>
	</linearGradient>
	<path style="fill:url(#SVGID_00000065785882971553413120000014360728477700035464_);" d="M190.1000061,35.5h10.5v15.2000008
		c-2.1000061,1.5-4.6000061,2.5999985-7.3999939,3.4000015c-2.8000031,0.7999992-5.5,1.2000008-8.1999969,1.2000008
		c-3.8000031,0-7.1999969-0.7999992-10.3000031-2.4000015c-3-1.5999985-5.3999939-3.7999992-7.1000061-6.5999985
		C165.9000092,43.4000015,165,40.2000046,165,36.6000023c0-3.5999985,0.8999939-6.7999973,2.6000061-9.6999989
		c1.6999969-2.8999996,4.1000061-5.1000004,7.1999969-6.6000004c3.1000061-1.6000004,6.6000061-2.3999996,10.5-2.3999996
		c3.5,0,6.6000061,0.6000004,9.3999939,1.7999992c2.8000031,1.2000008,5.1000061,2.8999996,6.8999939,5.2000008
		l-7.6999969,6.7999992c-2.3000031-2.7000008-4.8999939-3.8999996-8-3.8999996
		c-2.6999969,0-4.8000031,0.7999992-6.3000031,2.3999996S177.1999969,34,177.1999969,36.7999992
		c0,2.7000008,0.8000031,4.9000015,2.3999939,6.5c1.5,1.5999985,3.6000061,2.4000015,6.1999969,2.4000015
		c1.5,0,3-0.2999992,4.3999939-0.9000015L190.1000061,35.5L190.1000061,35.5z"/>
	<path class="st4" d="M240,18.6000023v35.7999992h-12V41.2000008h-11.1000061v13.2000008h-12.1000061V18.6000023h12.1000061
		v12.6999989H228V18.6000023H240z"/>
	<path class="st4" d="M252.6000061,27.9000015h-10.5v-9.3999996h33.1000061v9.3999996h-10.5v26.3999977h-12.1000061V27.9000015
		L252.6000061,27.9000015z"/>
	<path class="st4" d="M307,45.2000008v9.1000023h-29.7000122V18.6000023h29.1000061v9.1000004h-17.2000122v4.2000008h15.2000122
		v8.6999989h-15.2000122v4.7000008L307,45.2000008L307,45.2000008z"/>
	<path class="st4" d="M319,52.7999992c-3.1000061-1.5999985-5.3999939-3.7999992-7.2000122-6.7000008
		c-1.7999878-2.9000015-2.6000061-6-2.6000061-9.5999985s0.8999939-6.7999973,2.6000061-9.5999985
		c1.7999878-2.8999996,4.1000061-5.1000004,7.2000122-6.6999989s6.6000061-2.3999996,10.3999939-2.3999996
		s7.2999878,0.7999992,10.3999939,2.3999996S345.1999817,24.0000019,347,26.9000034
		c1.7999878,2.8999996,2.6000061,5.9999981,2.6000061,9.5999966S348.7000122,43.2999992,347,46.0999985
		c-1.7999878,2.9000015-4.1000061,5.0999985-7.2000122,6.7000008c-3.1000061,1.5999985-6.6000061,2.4000015-10.3999939,2.4000015
		S322.1000061,54.4000015,319,52.7999992z M333.5,44.2999992c1.2000122-0.7000008,2.2000122-1.7999992,2.8999939-3.0999985
		C337.1000061,39.9000015,337.5,38.2999992,337.5,36.5s-0.3999939-3.4000015-1.1000061-4.6999989
		c-0.7000122-1.2999992-1.7000122-2.3999996-2.8999939-3.1000004c-1.2000122-0.7000008-2.6000061-1.1000004-4-1.1000004
		c-1.5,0-2.8999939,0.3999996-4,1.1000004c-1.2000122,0.7000008-2.2000122,1.7999992-2.8999939,3.1000004
		C321.8999939,33.0999985,321.5,34.7000008,321.5,36.5s0.3999939,3.4000015,1.1000061,4.7000008
		s1.7000122,2.4000015,2.8999939,3.0999985c1.2000122,0.7000008,2.6000061,1.0999985,4,1.0999985
		C331,45.4000015,332.2999878,45.0999985,333.5,44.2999992z"/>
	<path class="st4" d="M388.2999878,18.6000023v35.7999992h-9.8999939l-13.6000061-16.2999992v16.2999992H353V18.6000023h9.8999939
		L376.5,34.9000015V18.6000023H388.2999878z"/>
	<path class="st4" d="M393.1000061,53c-1.2999878-1.2999992-1.8999939-2.9000015-1.8999939-4.7999992
		s0.7000122-3.5,1.8999939-4.7000008C394.3999939,42.2999992,396,41.7000008,398,41.7000008
		c1.8999939,0,3.5,0.5999985,4.8999939,1.7999992c1.2999878,1.2000008,1.8999939,2.7999992,1.8999939,4.7000008
		s-0.7000122,3.5-1.8999939,4.7999992C401.6000061,54.2999992,400,54.7999992,398,54.7999992
		C396.1000061,54.9000015,394.3999939,54.2999992,393.1000061,53z"/>
	<path class="st4" d="M407.6000061,18.6000023h12.1000061v35.7999992h-12.1000061V18.6000023z"/>
	<path class="st4" d="M432.8999939,52.7999992C429.7999878,51.2000008,427.5,49,425.6999817,46.0999985
		c-1.7999878-2.9000015-2.6000061-6-2.6000061-9.5999985s0.8999939-6.7999973,2.6000061-9.5999985
		c1.7999878-2.8999996,4.1000061-5.1000004,7.2000122-6.6999989S439.5,17.8000031,443.2999878,17.8000031
		s7.2999878,0.7999992,10.3999939,2.3999996s5.3999939,3.7999992,7.2000122,6.7000008S463.5,32.9000015,463.5,36.5
		s-0.8999939,6.7999992-2.6000061,9.5999985c-1.7999878,2.9000015-4.1000061,5.0999985-7.2000122,6.7000008
		c-3.1000061,1.5999985-6.6000061,2.4000015-10.3999939,2.4000015C439.3999939,55.2000008,436,54.4000015,432.8999939,52.7999992z
		 M447.3999939,44.2999992c1.2000122-0.7000008,2.2000122-1.7999992,2.8999939-3.0999985
		C451,39.9000015,451.3999939,38.2999992,451.3999939,36.5S451,33.0999985,450.2999878,31.8000011
		c-0.7000122-1.2999992-1.7000122-2.3999996-2.8999939-3.1000004c-1.2000122-0.7000008-2.6000061-1.1000004-4-1.1000004
		c-1.5,0-2.8999939,0.3999996-4,1.1000004C438.1999817,29.4000015,437.1999817,30.5,436.5,31.8000011
		c-0.7000122,1.2999973-1.1000061,2.8999996-1.1000061,4.6999989s0.3999939,3.4000015,1.1000061,4.7000008
		s1.7000122,2.4000015,2.8999939,3.0999985c1.2000122,0.7000008,2.6000061,1.0999985,4,1.0999985
		C444.7999878,45.4000015,446.1000061,45.0999985,447.3999939,44.2999992z"/>
</g>
<g>
	<path class="st7" d="M83.5,65.4000015c0,2.4000015-1.8000031,3.9000015-4.6999969,3.9000015h-2.5V72.5h-2.0999985v-11h4.5999985
		C81.6999969,61.4000015,83.5,62.9000015,83.5,65.4000015z M81.5,65.4000015c0-1.4000015-1-2.2000008-2.6999969-2.2000008
		h-2.4000015V67.5h2.4000015C80.5,67.5,81.5,66.6999969,81.5,65.4000015z"/>
	<path class="st7" d="M84.3000031,68.3000031c0-2.5,1.9000015-4.3000031,4.5-4.3000031s4.5,1.8000031,4.5,4.3000031
		s-1.8000031,4.3000031-4.5,4.3000031C86.0999985,72.5,84.3000031,70.8000031,84.3000031,68.3000031z M91.1999969,68.3000031
		c0-1.5999985-1.0999985-2.6999969-2.5-2.6999969s-2.5,1-2.5,2.6999969S87.2999954,71,88.6999969,71
		C90.0999985,70.9000015,91.1999969,69.9000015,91.1999969,68.3000031z"/>
	<path class="st7" d="M107.5,64.0999985L104.4000015,72.5H102.5l-2.0999985-5.8000031L98.2000046,72.5h-1.9000015l-3-8.4000015
		h1.8000031l2.1999969,6.1999969l2.3000031-6.1999969h1.5999985l2.3000031,6.3000031l2.3000031-6.3000031H107.5z"/>
	<path class="st7" d="M116.0999985,68.9000015H109.5c0.1999969,1.3000031,1.3000031,2,2.6999969,2
		c1,0,1.6999969-0.3000031,2.3000031-0.9000015l1,1.1999969c-0.6999969,0.9000015-1.9000015,1.4000015-3.4000015,1.4000015
		c-2.8000031,0-4.5999985-1.8000031-4.5999985-4.3000031s1.8000031-4.2999992,4.3000031-4.2999992
		c2.4000015,0,4.3000031,1.7000008,4.3000031,4.2999992C116.1999969,68.5,116.0999985,68.6999969,116.0999985,68.9000015z
		 M109.5,67.5999985h4.8000031C114.2000046,66.4000015,113.2000046,65.5,111.9000015,65.5
		C110.6999969,65.5,109.6999969,66.4000015,109.5,67.5999985z"/>
	<path class="st7" d="M122.5,63.9000015v1.8000031c-0.0999985,0-0.3000031-0.0999985-0.4000015-0.0999985
		c-1.5,0-2.4000015,0.9000015-2.4000015,2.5999985v4h-2v-8.1999969H119.5v1.3000031
		C120,64.4000015,121.0999985,63.9000015,122.5,63.9000015z"/>
	<path class="st7" d="M131.5,68.9000015h-6.5999985c0.1999969,1.3000031,1.3000031,2,2.6999969,2
		c1.0000076,0,1.7000046-0.3000031,2.2999954-0.9000015l1,1.1999969c-0.6999969,0.9000015-1.8999939,1.4000015-3.4000015,1.4000015
		c-2.8000031,0-4.5999985-1.8000031-4.5999985-4.3000031s1.8000031-4.2999992,4.3000031-4.2999992
		c2.3999939,0,4.3000031,1.7000008,4.3000031,4.2999992C131.5,68.5,131.5,68.6999969,131.5,68.9000015z M124.8000031,67.5999985
		h4.8000031C129.5,66.4000015,128.5,65.5,127.2000046,65.5S125,66.4000015,124.8000031,67.5999985z"/>
	<path class="st7" d="M141.1999969,60.7999992V72.5h-1.8999939v-1.0999985
		c-0.6999969,0.8000031-1.6000061,1.1999969-2.8000031,1.1999969c-2.3999939,0-4.3000031-1.6999969-4.3000031-4.3000031
		c0-2.5999985,1.8000031-4.2999992,4.3000031-4.2999992c1.1000061,0,2.1000061,0.3999977,2.6999969,1.1000023v-4.2999992
		H141.1999969L141.1999969,60.7999992z M139.3000031,68.3000031c0-1.5999985-1.1000061-2.6999969-2.5-2.6999969
		s-2.5,1-2.5,2.6999969S135.4000092,71,136.8000031,71C138.1999969,70.9000015,139.3000031,69.9000015,139.3000031,68.3000031z"/>
	<path class="st7" d="M156.6000061,68.3000031c0,2.5999985-1.8000031,4.3000031-4.3000031,4.3000031
		c-1.1999969,0-2.1000061-0.4000015-2.8000031-1.1999969v1.0999985h-1.8000031V60.7999992h2V65
		c0.6999969-0.6999969,1.6000061-1.0999985,2.6999969-1.0999985
		C154.8000031,63.9000015,156.6000061,65.5999985,156.6000061,68.3000031z M154.6000061,68.3000031
		c0-1.5999985-1.1000061-2.6999969-2.5-2.6999969s-2.5,1-2.5,2.6999969S150.7000122,71,152.1000061,71
		C153.5,70.9000015,154.6000061,69.9000015,154.6000061,68.3000031z"/>
	<path class="st7" d="M165.6999969,64.0999985l-3.8999939,9.0999985c-0.6999969,1.9000015-1.8000031,2.5-3.1999969,2.5
		c-0.8000031,0-1.6999969-0.3000031-2.3000031-0.6999969l0.8000031-1.5c0.3999939,0.4000015,0.8999939,0.5999985,1.5,0.5999985
		c0.6999969,0,1.1000061-0.3000031,1.5-1.1999969l0.1000061-0.3000031l-3.6999969-8.5h2.1000061l2.6999969,6.1999969
		l2.6999969-6.1999969C163.8000031,64.0999985,165.6999969,64.0999985,165.6999969,64.0999985z"/>
	<path class="st7" d="M180.8000031,69.4000015c0,1.9000015-1.5,3-4.3000031,3H171v-11h5.1999969
		c2.6999969,0,4,1.0999985,4,2.9000015c0,1.0999985-0.6000061,2-1.3999939,2.4000015
		C180,67.0999985,180.8000031,68,180.8000031,69.4000015z M173,63v3h2.8999939c1.3999939,0,2.1999969-0.5,2.1999969-1.5
		s-0.8000031-1.5-2.1999969-1.5H173L173,63z M178.6999969,69.3000031c0-1.0999985-0.8000031-1.5999985-2.3999939-1.5999985H173
		v3.1999969h3.3000031C177.8999939,70.8000031,178.6999969,70.3000031,178.6999969,69.3000031z"/>
	<path class="st7" d="M189.5,67.5v4.9000015h-1.8000031v-1C187.3000031,72.0999985,186.3000031,72.5,185,72.5
		c-1.8999939,0-3.1999969-1-3.1999969-2.5c0-1.4000015,1-2.5,3.5-2.5h2.1000061v-0.0999985
		c0-1.1999969-0.6999969-1.8000031-2.1000061-1.8000031c-1,0-1.8999939,0.3000031-2.6000061,0.8000031L182,65
		c0.8999939-0.6999969,2.1999969-1,3.5-1C188.1000061,63.9000015,189.5,65.0999985,189.5,67.5z M187.6000061,69.8000031v-1H185.5
		c-1.3000031,0-1.6999969,0.5-1.6999969,1.0999985c0,0.6999969,0.6000061,1.1999969,1.6000061,1.1999969
		C186.3999939,71.0999985,187.1999969,70.6999969,187.6000061,69.8000031z"/>
	<path class="st7" d="M190.6000061,71.6999969l0.6999969-1.5C192,70.6999969,193.1000061,71,194.1999969,71
		C195.5,71,196,70.5999985,196,70c0-1.5999985-5.1999969-0.0999985-5.1999969-3.5
		c0-1.5999985,1.3999939-2.7000008,3.6999969-2.7000008c1.1000061,0,2.3999939,0.2999992,3.1999969,0.7000008L197,66
		c-0.8000031-0.4000015-1.6000061-0.6999969-2.3999939-0.6999969c-1.1999969,0-1.8000031,0.4000015-1.8000031,1
		C192.8000031,68,198,66.5,198,69.8000031c0,1.5-1.5,2.5999985-3.8000031,2.5999985
		C192.8000031,72.5,191.3999939,72.1999969,190.6000061,71.6999969z"/>
	<path class="st7" d="M204.6000061,72c-0.3999939,0.4000015-1.1999969,0.5999985-1.8999939,0.5999985
		c-1.8000031,0-2.8999939-1-2.8999939-2.8000031v-4h-1.3999939v-1.5h1.3999939v-1.9000015h2v1.9000015h2.3000031v1.5h-2.3000031v4
		c0,0.8000031,0.3999939,1.3000031,1.1999969,1.3000031c0.3999939,0,0.8000031-0.0999985,1.1000061-0.4000015L204.6000061,72z"/>
	<path class="st7" d="M213.8999939,64.0999985L210,73.1999969c-0.6999969,1.9000015-1.8000031,2.5-3.1999969,2.5
		C206,75.6999969,205.1000061,75.3999939,204.5,75l0.8000031-1.5c0.3999939,0.4000015,0.8999939,0.5999985,1.5,0.5999985
		c0.6999969,0,1.1000061-0.3000031,1.5-1.1999969l0.1000061-0.3000031l-3.6999969-8.5h2.1000061l2.6999969,6.1999969
		l2.6999969-6.1999969C212.1000061,64.0999985,213.8999939,64.0999985,213.8999939,64.0999985z"/>
	<path class="st7" d="M213.6999969,68.3000031c0-2.5,1.8999939-4.3000031,4.5-4.3000031s4.5,1.8000031,4.5,4.3000031
		s-1.8000031,4.3000031-4.5,4.3000031C215.6000061,72.5,213.6999969,70.8000031,213.6999969,68.3000031z M220.6999969,68.3000031
		c0-1.5999985-1.1000061-2.6999969-2.5-2.6999969s-2.5,1-2.5,2.6999969S216.8000031,71,218.1999969,71
		C219.6999969,70.9000015,220.6999969,69.9000015,220.6999969,68.3000031z"/>
	<path class="st7" d="M232.3999939,67.6999969V72.5h-2v-4.5999985c0-1.5-0.6999969-2.1999969-2-2.1999969
		C227,65.7000046,226,66.6000061,226,68.2000046v4.3000031h-2v-8.4000015h1.8000031v1.0999985
		C226.5,64.5000076,227.5,64.0000076,228.6999969,64.0000076C230.8000031,63.9000015,232.3999939,65.0999985,232.3999939,67.6999969
		z"/>
</g>
<g>
	<path class="st8" d="M162.3677521,27.0090809c-2.0460205-2.6742306-6.9384766-4.9413986-10.9522705-6.5887375
		c-0.1089478-0.0458794-0.2184448-0.0899963-0.3279419-0.1340923c-2.616394-2.2831631-4.8842468-3.7567463-7.2932129-4.5923166
		c-0.0778351-0.0283556-0.155014-0.0526543-0.2333984-0.0792542c-0.0377502,0.107646-0.0787964,0.2258015-0.1180115,0.3503437
		c-0.1341858,0.4262285-0.266861,0.9088297-0.3348236,1.1920462c-0.143631,0.5909653,0.1712341,1.1952095,0.7378998,1.4160385
		c5.1403351,2.0309601,12.4705353,6.0526867,18.0338745,11.2898426c2.1266479,2.0017071,3.9974213,4.1792965,5.3894958,6.4933987
		c0.0358429,0.0209198,0.0798798,0.0463486,0.1169128,0.0695724c0.8039093-0.0245018,2.5653992-1.3206825,3.866806-2.9988365
		C167.9155579,31.0769081,164.7230377,28.2171593,162.3677521,27.0090809z"/>
	<path class="st2" d="M172.6491852,30.8726444c-0.2575684,0.8731995-0.7731781,1.7577152-1.3961029,2.5544415
		c-3.3375244-2.3501778-6.5300446-5.2099266-8.8853302-6.418005c-2.0460205-2.6742306-6.9384766-4.9413986-10.9522705-6.5887375
		c-0.1089478-0.0458794-0.2184448-0.0899963-0.3279419-0.1340923c-2.616394-2.2831631-4.8842468-3.7567463-7.2932129-4.5923166
		c-0.0778351-0.0283556-0.155014-0.0526543-0.2333984-0.0792542c0.0372009-0.1058788,0.0767059-0.2129793,0.1202545-0.3207226
		c0.5324554-1.3727417,1.4151001-2.8106556,3.0248871-3.9251852c0.2966309-0.2073565,0.6682281-0.279294,1.019928-0.1839933
		c0.0087738,0.0027618,0.0216064,0.0048952,0.0338745,0.0087585c7.4640198,1.974041,13.7622681,6.4689913,18.1908112,10.693408
		c1.604599,1.5288963,2.9632263,3.0247002,4.0415955,4.3512897c1.2516785,1.5353775,2.128006,2.8484764,2.5783386,3.7266998
		c0.0011902,0.0023193,0.0011902,0.0023193,0.0023956,0.0046215
		C172.7166748,30.2480488,172.7378082,30.5728054,172.6491852,30.8726444z"/>
	<path class="st2" d="M170.4966583,33.2184181c-0.769043,2.4426498-3.3712921,3.7972183-5.8122101,3.028717
		c-2.4426422-0.769043-3.7977753-3.3695564-3.0287323-5.8122044c0.5530853-1.7567043,2.0565338-2.9520016,3.7663727-3.1982594
		c0.6651764-0.0948353,1.3616333-0.0458736,2.0458527,0.1695442c0.6981506,0.2198067,1.3087616,0.5900078,1.8044891,1.0637417
		C170.5119934,29.6505432,171.0453491,31.4756527,170.4966583,33.2184181z"/>
	<path class="st8" d="M170.4966583,33.2184181c-0.769043,2.4426498-3.3712921,3.7972183-5.8122101,3.028717
		c-2.3712769-0.7465744-3.7172852-3.2179108-3.0909119-5.596405c0.9965363,2.3536453,2.1552887,4.191925,3.8466492,4.600071
		c1.1928864,0.289463,3.4677582,0.3454781,5.0892487-2.1426125
		C170.5196838,33.1452942,170.5081635,33.1818466,170.4966583,33.2184181z"/>
	<path class="st9" d="M165.9508057,21.8862171c-4.4280243-4.2243423-10.7269287-8.7181435-18.1901855-10.6928196
		c0.404068-0.3109875,0.8306122-0.6263924,1.2767487-0.9432917c4.5111084,0.8060045,7.2556305,3.365551,10.5484314,5.4336967
		c3.5150604,2.2070227,4.5786285,1.4951143,5.4326477,1.2320166c1.293335-0.4003391,2.6539917-4.2115345,3.3479919-5.6195946
		c1.8113708-3.9420009,2.917572-4.3983693,3.7628479-4.5302734c-0.2199402,1.5190239-3.1634521,5.5925493-4.4118958,7.6737576
		C166.7036285,16.1278954,166.1338043,19.7125645,165.9508057,21.8862171z"/>
	<path class="st10" d="M176.9874725,6.3723292c-3.0148773-1.7414336-5.91539-1.9619102-7.2178955-1.283165
		c-1.3025513,0.6787462-6.7175903,1.8442817-10.2236633,1.0370436c-2.8193359-0.6484499-7.1455688,1.7267361-10.5085449,4.123898
		c4.5111084,0.8060045,7.2556305,3.365551,10.5484314,5.4336967c3.5150604,2.2070055,4.5786285,1.4951143,5.4326477,1.2320166
		c1.293335-0.4003391,2.6539917-4.2115345,3.3479919-5.6195946c1.8113708-3.9420009,2.9175873-4.3983855,3.7628479-4.5302896
		c-0.2199402,1.5190401-3.1634521,5.5925655-4.4118958,7.6737738c-1.0137787,1.6882038-1.5835876,5.2728558-1.7665863,7.4465084
		c-0.0423279,0.5052509-0.062851,0.935091-0.065155,1.2462864l-0.0005341,0.0017357
		c-0.0029602,0.8238487-0.2335968,2.565321-0.463028,4.1024323c0.6651764-0.0948505,1.361618-0.0458775,2.0458679,0.1695499
		c0.6981354,0.2198009,1.3087463,0.5900021,1.8044739,1.063736c0.1309967-0.4160976,0.2658539-0.8444004,0.4069214-1.2802944
		c0.1009674-0.3145733,0.2047424-0.6320744,0.3131256-0.9519901c0.4020233-1.1918755,0.8426361-2.3907776,1.3278961-3.4397469
		c0.8853149-1.9123363,3.6046143-3.8940678,5.6954346-5.6603394c0.1354828-0.1142368,0.2732391-0.2297058,0.4029541-0.3438721
		c0.0330353-0.0259438,0.0631714-0.0547256,0.0944824-0.0812321c0.6355438-0.5538654,1.1826324-1.0819845,1.5640259-1.5761824
		C180.7458801,12.9787769,180.0023193,8.1137381,176.9874725,6.3723292z"/>
	<path class="st9" d="M175.6399078,20.7115097c-2.5934906,2.0500298-4.6880035,4.4562016-4.1217346,5.696537
		c0.5202484,1.1435318,0.8264618,1.4086132,1.6235199,1.9159775c-0.1439972,0.4330673-0.4205627,1.2508793-0.5704651,1.6418915
		c-0.450531-0.8785915-1.326889-2.1916637-2.5787506-3.7282429c0.4020233-1.1918755,0.8426361-2.3907776,1.3278961-3.4397469
		c0.8853149-1.9123363,3.6046143-3.8940506,5.6954193-5.6603222c0.1354828-0.1142597,0.2732544-0.229723,0.4029694-0.3438892
		C176.7124481,18.1558151,176.1322479,19.4638309,175.6399078,20.7115097z"/>
	<path class="st10" d="M173.1416931,28.3240242c-0.7970581-0.5073643-1.1032715-0.7724457-1.6235199-1.9159775
		c-0.5662689-1.2403355,1.528244-3.6465073,4.1217346-5.696537
		C174.4143066,23.8141403,173.865799,26.1274796,173.1416931,28.3240242z"/>
</g>
</svg>
