<svg id="Слой_1" data-name="Слой 1" xmlns="http://www.w3.org/2000/svg" xmlns:xlink="http://www.w3.org/1999/xlink" viewBox="0 0 207.27 26.63"><defs><style>.cls-1{fill:none;}.cls-2{clip-path:url(#clip-path);}.cls-3{fill:url(#Безымянный_градиент_7);}.cls-4{fill:url(#Безымянный_градиент_7-2);}.cls-5{fill:url(#Безымянный_градиент_7-3);}.cls-6{fill:#fff;}.cls-7{fill:url(#Безымянный_градиент_3);}.cls-8{fill:url(#Безымянный_градиент_3-2);}.cls-9{fill:url(#Безымянный_градиент_3-3);}.cls-10{fill:url(#Безымянный_градиент_3-4);}.cls-11{fill:#1a171b;}.cls-12{fill:#00a4ff;}</style><clipPath id="clip-path"><rect class="cls-1" x="-2328.62" y="-206.21" width="1780" height="1110"/></clipPath><linearGradient id="Безымянный_градиент_7" x1="150.81" y1="56.61" x2="150.81" y2="14.64" gradientUnits="userSpaceOnUse"><stop offset="0" stop-color="#00a4ff"/><stop offset="1" stop-color="#142163"/></linearGradient><linearGradient id="Безымянный_градиент_7-2" x1="178.42" y1="28.22" x2="219.67" y2="28.22" xlink:href="#Безымянный_градиент_7"/><linearGradient id="Безымянный_градиент_7-3" x1="206.2" y1="55.43" x2="206.84" y2="98.09" xlink:href="#Безымянный_градиент_7"/><linearGradient id="Безымянный_градиент_3" x1="4.5" y1="14229.99" x2="4.5" y2="14243.42" gradientTransform="matrix(1, 0, 0, -1, 0, 14243.57)" xlink:href="#Безымянный_градиент_7"/><linearGradient id="Безымянный_градиент_3-2" x1="13.33" y1="14239.08" x2="26.53" y2="14239.08" gradientTransform="matrix(1, 0, 0, -1, 0, 14243.57)" xlink:href="#Безымянный_градиент_7"/><linearGradient id="Безымянный_градиент_3-3" x1="22.22" y1="14230.37" x2="22.42" y2="14216.72" gradientTransform="matrix(1, 0, 0, -1, 0, 14243.57)" xlink:href="#Безымянный_градиент_7"/><linearGradient id="Безымянный_градиент_3-4" x1="13.38" y1="14221.43" x2="0.02" y2="14221.43" gradientTransform="matrix(1, 0, 0, -1, 0, 14243.57)" xlink:href="#Безымянный_градиент_7"/></defs><title>logo PAY</title><g class="cls-2"><path class="cls-3" d="M154.15,69.36l-.12-.22h0a27.72,27.72,0,0,1,10.83-37.58l-7-10.51a33.86,33.86,0,0,0-8,6.18,40.39,40.39,0,0,0-6.72,48.19h0a6.36,6.36,0,0,1-1,7.61l-5.33,5.32,8.91,8.91,5.49-5.51a18.94,18.94,0,0,0,3-22.39Z"/><path class="cls-4" d="M207.1,27.25a40.39,40.39,0,0,0-48.19-6.72h0a6.36,6.36,0,0,1-7.61-1L146,14.17l-8.91,8.91,5.51,5.49a18.95,18.95,0,0,0,22.6,2.88h0a27.72,27.72,0,0,1,37.58,10.83l10.72-6.74A36.31,36.31,0,0,0,207.1,27.25Z"/><path class="cls-5" d="M207.12,84.43a40.39,40.39,0,0,0,6.72-48.19h0a6.36,6.36,0,0,1,1-7.61l5.33-5.32-8.91-8.91-5.49,5.51a18.95,18.95,0,0,0-2.88,22.6h0A27.72,27.72,0,0,1,192.09,80.1l7.25,10.41A32.34,32.34,0,0,0,207.12,84.43Z"/></g><path class="cls-6" d="M42.26,4.68a6.6,6.6,0,0,1,4.08,1.12,4.45,4.45,0,0,1,1.6,3.68A4,4,0,0,1,46.18,13a4.46,4.46,0,0,1,3.38,4.48,4.91,4.91,0,0,1-1.81,3.85,6.49,6.49,0,0,1-4.26,1.17H37.14V4.68Zm-3.15,7.81h3.41c1,0,3.49-.21,3.49-3,0-2.93-2.88-3-3.44-3H39.11Zm0,8.1H43.3a4.91,4.91,0,0,0,3.12-.75,3,3,0,0,0,1.17-2.45,2.88,2.88,0,0,0-1.52-2.61,6.21,6.21,0,0,0-3-.53H39.11Z"/><path class="cls-6" d="M80.7,8.15a4.29,4.29,0,0,0-1-1.33,3.2,3.2,0,0,0-2-.61,2.73,2.73,0,0,0-3,2.75,1.86,1.86,0,0,0,.67,1.54,5.8,5.8,0,0,0,1.87,1.12l1.71.75A8.73,8.73,0,0,1,81.67,14a4.28,4.28,0,0,1,1.27,3.24,5.7,5.7,0,0,1-9.49,4,6.44,6.44,0,0,1-1.65-3.15l1.92-.53a4.2,4.2,0,0,0,1.07,2.27,3.4,3.4,0,0,0,2.56,1,3.36,3.36,0,0,0,3.57-3.52A2.65,2.65,0,0,0,80,15.28a7.72,7.72,0,0,0-2.13-1.23l-1.6-.75a7.87,7.87,0,0,1-2.37-1.46,3.69,3.69,0,0,1-1.23-2.9c0-2.75,2.1-4.58,5-4.58a4.82,4.82,0,0,1,2.85.8,5.38,5.38,0,0,1,1.72,2Z"/><path class="cls-6" d="M92.66,6.54V22.45h-2V6.54H85.27V4.68H98.07V6.54Z"/><path class="cls-6" d="M118.87,13.54a9.25,9.25,0,0,1,18.49,0,9.25,9.25,0,0,1-18.49,0Zm2,0a7.22,7.22,0,0,0,14.44.28q0-.14,0-.28a7.22,7.22,0,1,0-14.44-.28Q120.89,13.4,120.89,13.54Z"/><path class="cls-6" d="M66.7,22.46h2.2L61.28,4.68H59.74l-7.6,17.78h2.2l2.09-5h8.18Zm-9.48-6.91,3.3-7.92,3.3,7.92Z"/><polygon class="cls-6" points="154.91 4.68 154.91 19.35 142.96 4.68 142.96 4.68 142.96 4.68 142.96 4.68 142.96 4.68 140.99 4.68 140.99 22.48 142.96 22.48 142.96 7.8 154.91 22.48 154.91 22.48 156.88 22.48 156.88 4.68 154.91 4.68"/><path class="cls-6" d="M117.09,5.08l-1.53-1.24L108.88,12l-6.68-8.2-1.53,1.24,7.2,8.84v8.52h2V13.92Zm-8.18,8.18h-.06l0,0Z"/><path class="cls-7" d="M5.57,17.66l0-.07h0A8.87,8.87,0,0,1,9,5.57L6.74,2.2a10.82,10.82,0,0,0-2.56,2A12.92,12.92,0,0,0,2,19.61H2A2,2,0,0,1,1.69,22L0,23.72l2.85,2.85,1.76-1.77a6.09,6.09,0,0,0,.92-1.21,6.06,6.06,0,0,0,0-5.95Z"/><path class="cls-8" d="M22.51,4.19A12.92,12.92,0,0,0,7.1,2h0a2,2,0,0,1-2.44-.34L3,0,.1,2.85,1.87,4.61A6,6,0,0,0,6.09,6.33a6,6,0,0,0,3-.8h0A8.87,8.87,0,0,1,21.12,9l3.43-2.16A11.62,11.62,0,0,0,22.51,4.19Z"/><path class="cls-9" d="M22.51,22.48A12.92,12.92,0,0,0,24.66,7.06h0A2,2,0,0,1,25,4.63l1.69-1.69L23.85.07,22.09,1.84a6.06,6.06,0,0,0-.92,7.23h0a8.87,8.87,0,0,1-3.46,12L20,24.42A10.35,10.35,0,0,0,22.51,22.48Z"/><path class="cls-10" d="M24.85,22a6.06,6.06,0,0,0-7.23-.92h0a8.91,8.91,0,0,1-12-3.45h0a6.06,6.06,0,0,1,0,5.95,12.93,12.93,0,0,0,14.09,1h0a2,2,0,0,1,2.43.34l1.69,1.69,2.85-2.85Z"/><rect class="cls-11" x="166.25" y="4.67" width="41.03" height="17.82"/><path class="cls-12" d="M178.18,7.73a3.76,3.76,0,0,1,2.94.88A3.31,3.31,0,0,1,182,11.4,4.19,4.19,0,0,1,180.68,14a4.42,4.42,0,0,1-3.05,1h-1.45l-.53,4.28H173.4l1.42-11.55Zm-1.76,5.33h.92a2.49,2.49,0,0,0,1.52-.36,2,2,0,0,0,.79-1.35,1.4,1.4,0,0,0-.48-1.32,2.51,2.51,0,0,0-1.55-.36h-.78Z"/><path class="cls-12" d="M188.75,16.85h-4.66l-1.32,2.42h-2.44l6.46-11.79h1.7l3.42,11.79h-2.42ZM188.31,15l-1.12-4.16L185,15Z"/><path class="cls-12" d="M194.52,14l-3.19-6.27H194l2,4,3-4h2.67L196.77,14l-.65,5.28h-2.25Z"/></svg>