<svg id="Слой_1" data-name="Слой 1" xmlns="http://www.w3.org/2000/svg" xmlns:xlink="http://www.w3.org/1999/xlink" viewBox="0 0 465.46 78.76"><defs><style>.cls-1{fill:url(#Безымянный_градиент_4);}.cls-2{fill:url(#Безымянный_градиент_4-2);}.cls-3{fill:url(#Безымянный_градиент_4-3);}.cls-4{fill:url(#Безымянный_градиент_4-4);}</style><linearGradient id="Безымянный_градиент_4" x1="13.3" y1="-11009.59" x2="13.3" y2="-10969.88" gradientTransform="matrix(1, 0, 0, -1, 0, -10969.43)" gradientUnits="userSpaceOnUse"><stop offset="0" stop-color="#00a4ff"/><stop offset="1" stop-color="#142163"/></linearGradient><linearGradient id="Безымянный_градиент_4-2" x1="39.42" y1="-10982.73" x2="78.46" y2="-10982.73" xlink:href="#Безымянный_градиент_4"/><linearGradient id="Безымянный_градиент_4-3" x1="65.7" y1="-11008.48" x2="66.29" y2="-11048.84" xlink:href="#Безымянный_градиент_4"/><linearGradient id="Безымянный_градиент_4-4" x1="39.57" y1="-11034.93" x2="0.07" y2="-11034.93" xlink:href="#Безымянный_градиент_4"/></defs><title>logo new-2</title><path class="cls-1" d="M16.46,52.23l-.11-.2h0A26.23,26.23,0,0,1,26.6,16.46L19.94,6.51a32,32,0,0,0-7.56,5.85A38.22,38.22,0,0,0,6,58H6a5.95,5.95,0,0,1-1,7.16l-5,5,8.43,8.43,5.2-5.22a18,18,0,0,0,2.71-3.59,17.93,17.93,0,0,0,.12-17.59Z"/><path class="cls-2" d="M66.57,12.38A38.22,38.22,0,0,0,21,6h0a6,6,0,0,1-7.23-1l-5-5L.3,8.43l5.22,5.2A17.86,17.86,0,0,0,18,18.71a17.84,17.84,0,0,0,8.89-2.36h0A26.23,26.23,0,0,1,62.46,26.6L72.6,20.22A34.35,34.35,0,0,0,66.57,12.38Z"/><path class="cls-3" d="M66.58,66.49a38.22,38.22,0,0,0,6.35-45.6h0a6,6,0,0,1,1-7.2l5-5L70.53.22l-5.2,5.22a17.93,17.93,0,0,0-2.72,21.39h0A26.23,26.23,0,0,1,52.37,62.38l6.86,9.85A30.6,30.6,0,0,0,66.58,66.49Z"/><path class="cls-4" d="M73.48,65.16a17.93,17.93,0,0,0-21.39-2.72h0A26.34,26.34,0,0,1,16.46,52.23h0a17.93,17.93,0,0,1-.12,17.59A38.24,38.24,0,0,0,58,72.76h0a6,6,0,0,1,7.2,1l5,5,8.43-8.43Z"/><path d="M125.63,13c2.92,0,8.22.24,12.09,3.31,1.63,1.26,4.74,4.5,4.74,10.91a11.89,11.89,0,0,1-5.21,10.35c7.33,1.82,10,8.22,10,13.28a14.56,14.56,0,0,1-5.38,11.4c-4.19,3.31-9,3.48-12.64,3.48H110.45V13ZM116.3,36.15h10.12c3.08,0,10.35-.64,10.35-8.77,0-8.69-8.54-8.85-10.19-8.85H116.3Zm0,24h12.42c3.4,0,6.72-.24,9.24-2.22a8.88,8.88,0,0,0,3.48-7.27,8.54,8.54,0,0,0-4.5-7.75c-2-1.11-4.74-1.58-9-1.58H116.3Z"/><path d="M239.61,23.31a12.71,12.71,0,0,0-3.08-4,9.48,9.48,0,0,0-5.92-1.82c-5.21,0-8.85,3.26-8.85,8.14a5.52,5.52,0,0,0,2,4.58,17.21,17.21,0,0,0,5.53,3.31l5.06,2.22a25.89,25.89,0,0,1,8.14,5,12.68,12.68,0,0,1,3.76,9.59c0,9.72-7.19,16.19-16.67,16.19a15.69,15.69,0,0,1-11.45-4.27A19.1,19.1,0,0,1,213.23,53l5.7-1.58a12.44,12.44,0,0,0,3.16,6.72A10.08,10.08,0,0,0,229.68,61c7.19,0,10.59-5.13,10.59-10.43a7.86,7.86,0,0,0-2.61-6.17c-1.5-1.43-3.56-2.37-6.32-3.63l-4.74-2.22a23.34,23.34,0,0,1-7-4.34,11,11,0,0,1-3.63-8.61c0-8.14,6.24-13.59,14.77-13.59a14.28,14.28,0,0,1,8.45,2.37,15.94,15.94,0,0,1,5.11,5.81Z"/><path d="M275.06,18.54V65.7H269.2V18.54H253.14V13h38v5.53Z"/><path d="M352.76,39.27C352.76,23.55,365,12,380.18,12s27.42,11.53,27.42,27.25-12.17,27.25-27.42,27.25S352.76,54.91,352.76,39.27Zm6,0a21.41,21.41,0,0,0,42.82.83q0-.42,0-.83a21.41,21.41,0,1,0-42.82-.83Q358.76,38.86,358.76,39.27Z"/><path d="M198.09,65.72h6.52L182,13h-4.54L154.95,65.72h6.52l6.21-14.88h24.26ZM170,45.23l9.77-23.49,9.77,23.49Z"/><polygon points="459.62 13.01 459.62 56.52 424.18 13.01 424.18 13.01 424.18 13.01 424.18 13.01 424.18 13.01 418.34 13.01 418.34 65.78 424.18 65.78 424.18 22.27 459.62 65.78 459.62 65.78 465.46 65.78 465.46 13.01 459.62 13.01"/><path d="M347.49,14.19,343,10.51l-19.8,24.32-19.8-24.32-4.54,3.69,21.33,26.2V65.65h6V40.4ZM323.25,38.44h-.19l.09-.07Z"/></svg>