<svg id="Слой_1" data-name="Слой 1" xmlns="http://www.w3.org/2000/svg" xmlns:xlink="http://www.w3.org/1999/xlink" viewBox="0 0 569.98 78.76"><defs><style>.cls-1{fill:url(#Безымянный_градиент_4);}.cls-2{fill:url(#Безымянный_градиент_4-2);}.cls-3{fill:url(#Безымянный_градиент_4-3);}.cls-4{fill:url(#Безымянный_градиент_4-4);}</style><linearGradient id="Безымянный_градиент_4" x1="13.3" y1="-12929.43" x2="13.3" y2="-12889.72" gradientTransform="matrix(1, 0, 0, -1, 0, -12889.27)" gradientUnits="userSpaceOnUse"><stop offset="0" stop-color="#00a4ff"/><stop offset="1" stop-color="#142163"/></linearGradient><linearGradient id="Безымянный_градиент_4-2" x1="39.42" y1="-12902.57" x2="78.46" y2="-12902.57" xlink:href="#Безымянный_градиент_4"/><linearGradient id="Безымянный_градиент_4-3" x1="65.7" y1="-12928.32" x2="66.29" y2="-12968.68" xlink:href="#Безымянный_градиент_4"/><linearGradient id="Безымянный_градиент_4-4" x1="39.57" y1="-12954.76" x2="0.07" y2="-12954.76" xlink:href="#Безымянный_градиент_4"/></defs><title>pocketnet logo new</title><path class="cls-1" d="M16.46,52.23l-.11-.2h0A26.23,26.23,0,0,1,26.6,16.46L19.94,6.51a32,32,0,0,0-7.56,5.85A38.22,38.22,0,0,0,6,58H6a5.95,5.95,0,0,1-1,7.16l-5,5,8.43,8.43,5.2-5.22a18,18,0,0,0,2.71-3.59,17.93,17.93,0,0,0,.12-17.59Z"/><path class="cls-2" d="M66.57,12.38A38.22,38.22,0,0,0,21,6h0a6,6,0,0,1-7.23-1l-5-5L.3,8.43l5.22,5.2A17.86,17.86,0,0,0,18,18.71a17.84,17.84,0,0,0,8.89-2.36h0A26.23,26.23,0,0,1,62.46,26.6L72.6,20.22A34.35,34.35,0,0,0,66.57,12.38Z"/><path class="cls-3" d="M66.58,66.49a38.22,38.22,0,0,0,6.35-45.6h0a6,6,0,0,1,1-7.2l5-5L70.53.22l-5.2,5.22a17.93,17.93,0,0,0-2.72,21.39h0A26.23,26.23,0,0,1,52.37,62.38l6.86,9.85A30.6,30.6,0,0,0,66.58,66.49Z"/><path class="cls-4" d="M73.48,65.16a17.93,17.93,0,0,0-21.39-2.72h0A26.34,26.34,0,0,1,16.46,52.23h0a17.93,17.93,0,0,1-.12,17.59A38.24,38.24,0,0,0,58,72.76h0a6,6,0,0,1,7.2,1l5,5,8.43-8.43Z"/><polygon points="371 18.49 387.05 18.49 387.05 65.66 392.91 65.66 392.91 18.49 408.96 18.49 408.96 12.96 371 12.96 371 18.49"/><polygon points="532.01 13 532.01 18.53 548.07 18.53 548.07 65.7 553.93 65.7 553.93 18.53 569.98 18.53 569.98 13 532.01 13"/><polygon points="464.18 56.47 428.75 12.96 422.9 12.96 422.9 65.74 428.75 65.74 428.75 22.23 464.18 65.73 464.18 65.74 470.03 65.74 470.03 12.96 464.18 12.96 464.18 56.47"/><path d="M179.72,12.06c-15.2,0-27.42,11.53-27.42,27.25s12.17,27.25,27.42,27.25S207.14,55,207.14,39.32,194.92,12.06,179.72,12.06Zm21.4,28.09a21.41,21.41,0,1,1-42.82-.83q0-.42,0-.83a21.41,21.41,0,1,1,42.82.83Q201.14,39.73,201.13,40.15Z"/><path d="M141.94,16.44c-4.19-3.31-9-3.48-12.64-3.48H110.49V65.69h5.85V42.54h13c3.61,0,8.35-.21,12.48-3.48a13.77,13.77,0,0,0,5.49-11.22A14.56,14.56,0,0,0,141.94,16.44Zm-5,19.31c-2,1.11-4.74,1.58-9,1.58H116.33V18.52h12.42c3.4,0,6.72.24,9.24,2.22A8.88,8.88,0,0,1,141.48,28,8.54,8.54,0,0,1,137,35.75Z"/><path d="M313.38,13.12H305L282.92,35.6V13.12h-6V65.84h6V44.22l1.87-1.91L306,65.84h8.38L289,38ZM285.6,42.92l-.09-.07h.19Z"/><polygon points="329.68 12.96 326.12 12.96 326.12 65.69 329.68 65.69 332.14 65.69 357.93 65.69 357.93 59.67 332.14 59.67 332.14 42.59 353.93 42.59 353.93 36.57 332.14 36.57 332.14 18.98 357.93 18.98 357.93 12.96 332.14 12.96 329.68 12.96"/><polygon points="491.8 12.97 488.25 12.97 488.25 65.7 491.8 65.7 494.26 65.7 520.05 65.7 520.05 59.68 494.26 59.68 494.26 42.59 516.05 42.59 516.05 36.57 494.26 36.57 494.26 18.99 520.05 18.99 520.05 12.97 494.26 12.97 491.8 12.97"/><path d="M242.36,61.14a21.41,21.41,0,0,1-21-21.83q0-.42,0-.83a21.41,21.41,0,0,1,35.25-15.92l2.91-5a27.8,27.8,0,0,0-16.74-5.46c-15.2,0-27.42,11.53-27.42,27.25s12.17,27.25,27.42,27.25a27.4,27.4,0,0,0,20.68-9.06l-4.17-4.17A21.36,21.36,0,0,1,242.36,61.14Z"/></svg>