<svg id="Слой_1" data-name="Слой 1" xmlns="http://www.w3.org/2000/svg" xmlns:xlink="http://www.w3.org/1999/xlink" viewBox="0 0 522.78 103.23"><defs><style>.cls-1{fill:url(#Безымянный_градиент_7);}.cls-2{fill:url(#Безымянный_градиент_7-2);}.cls-3{fill:url(#Безымянный_градиент_7-3);}.cls-4{fill:url(#Безымянный_градиент_7-4);}.cls-5{fill:#fff;}</style><linearGradient id="Безымянный_градиент_7" x1="17.43" y1="52.62" x2="17.43" y2="0.59" gradientUnits="userSpaceOnUse"><stop offset="0" stop-color="#00a4ff"/><stop offset="1" stop-color="#142163"/></linearGradient><linearGradient id="Безымянный_градиент_7-2" x1="51.65" y1="17.43" x2="102.81" y2="17.43" xlink:href="#Безымянный_градиент_7"/><linearGradient id="Безымянный_градиент_7-3" x1="86.11" y1="51.16" x2="86.89" y2="104.04" xlink:href="#Безымянный_градиент_7"/><linearGradient id="Безымянный_градиент_7-4" x1="51.85" y1="85.83" x2="0.09" y2="85.83" xlink:href="#Безымянный_градиент_7"/></defs><title>logo</title><path class="cls-1" d="M21.57,68.43l-.15-.27h0A34.37,34.37,0,0,1,34.85,21.57l-8.72-13a42,42,0,0,0-9.9,7.66A50.08,50.08,0,0,0,7.9,75.94h0a7.84,7.84,0,0,1,1,3.87,7.85,7.85,0,0,1-2.3,5.57L0,92l11,11,6.81-6.84a23.56,23.56,0,0,0,3.55-4.71,23.49,23.49,0,0,0,.16-23.05Z"/><path class="cls-2" d="M87.22,16.22A50.08,50.08,0,0,0,27.47,7.9h0a7.84,7.84,0,0,1-3.87,1A7.85,7.85,0,0,1,18,6.61L11.44,0,.39,11l6.84,6.81a23.4,23.4,0,0,0,16.38,6.65,23.37,23.37,0,0,0,11.65-3.09h0A34.37,34.37,0,0,1,81.84,34.85L95.14,26.5A45,45,0,0,0,87.22,16.22Z"/><path class="cls-3" d="M87.24,87.11a50.08,50.08,0,0,0,8.33-59.75h0a7.88,7.88,0,0,1,1.29-9.43l6.61-6.6-11-11L85.61,7.12a23.49,23.49,0,0,0-3.57,28h0A34.37,34.37,0,0,1,68.61,81.74l9,12.91A40.1,40.1,0,0,0,87.24,87.11Z"/><path class="cls-4" d="M96.28,85.37a23.49,23.49,0,0,0-28-3.57h0A34.51,34.51,0,0,1,21.57,68.43h0a23.49,23.49,0,0,1-.16,23.05A50.1,50.1,0,0,0,76,95.33h0a7.88,7.88,0,0,1,9.43,1.29l6.6,6.61,11-11Z"/><path class="cls-5" d="M162.53,20c9.31,0,15.13,9.12,15.13,16.68a15.9,15.9,0,0,1-7.18,13.1V50c4.85,1.94,8.73,8.34,8.73,15.42a20.59,20.59,0,0,1-20.76,20.47H133.92v-66Zm-14.26,26H156c4,0,6.5-2.62,6.5-6.69,0-3.39-2.52-5.92-6.5-5.92h-7.76Zm0,26.58h8.83c4.27,0,7-2.23,7-7.18a6.51,6.51,0,0,0-6.69-6.6h-9.12Z"/><path class="cls-5" d="M338.37,19.94V33.5H322.65V85.91H308.3V33.5H292.72V20h32.65"/><path class="cls-5" d="M221.58,20l21.24,66h-16.3l-3.69-13.48H202.08l-3.69,13.48H182.1l21.31-66h18.17ZM205.28,60.6h14.36l-7.08-23.76h-.48Z"/><path class="cls-5" d="M399.64,52.79a34.54,34.54,0,1,1,69.06,0,34.53,34.53,0,1,1-69.06,0Zm15.13,0c0,11.93,8.63,21.44,19.4,21.44s19.4-9.51,19.4-21.44-8.63-21.63-19.4-21.63S414.77,40.86,414.77,52.79Z"/><polygon class="cls-5" points="508.42 19.95 508.42 53.81 488.54 19.95 475.8 19.95 475.83 85.91 490.19 85.91 490.19 50.31 509.98 85.91 522.78 85.91 522.78 19.95 508.42 19.95"/><path class="cls-5" d="M271.28,45.47h-3.67a6.37,6.37,0,0,1-6.36-6.36,5.34,5.34,0,0,1,5.5-5.58l1.1-.27c2.12,0,8.43-13.32,0-13.32l-.87-.09a19.15,19.15,0,0,0-19,19.25,19.7,19.7,0,0,0,19.68,19.68h3.67a6.37,6.37,0,0,1,6.36,6.36,7.46,7.46,0,0,1-7.45,7.45H247.08V85.91h23.11A20.79,20.79,0,0,0,291,65.15,19.7,19.7,0,0,0,271.28,45.47Z"/><rect class="cls-5" x="266.75" y="19.87" width="17.48" height="13.67"/><path class="cls-5" d="M388.44,20.2l-8.93,19.57h0a7.54,7.54,0,0,1-13.81,0h0L356.76,20.2h-16.3l13.64,27.32h0a21.4,21.4,0,0,0,11.31,9.32V85.91H379.8V56.84a21.4,21.4,0,0,0,11.29-9.32h0L404.74,20.2Z"/></svg>