<svg width="764" height="102" viewBox="0 0 764 102" fill="none" xmlns="http://www.w3.org/2000/svg">
<path d="M267.375 102C268.307 99.2016 269.453 96.4781 270.801 93.8534C282.446 67.8662 294.091 41.8791 305.736 15.8919C306.629 13.6666 307.679 11.5074 308.88 9.43082C311.636 4.94509 316.068 1.73135 321.201 0.494951C321.739 0.347803 322.263 0.160525 322.8 0H329.854C332.818 0.497519 335.637 1.63566 338.111 3.33435C340.586 5.03304 342.657 7.25099 344.178 9.83213C345.078 11.3571 345.83 12.9891 346.61 14.5944C354.349 30.5041 362.084 46.4451 369.814 62.4173C376.21 75.6071 382.597 88.8013 388.975 102H356.391C354.604 97.9869 352.75 93.8668 351.017 89.7332C350.843 89.0773 350.434 88.5072 349.867 88.1303C349.301 87.7534 348.615 87.5956 347.94 87.6866C337.526 87.7668 327.113 87.6866 316.7 87.6866C315.504 87.6866 314.685 87.6866 315.356 86.0412C318.465 79.2456 321.524 72.4278 324.533 65.5877C324.689 65.1747 324.981 64.8272 325.363 64.6032C325.744 64.3792 326.191 64.2923 326.63 64.357C330.54 64.357 334.463 64.357 338.386 64.357C339.73 64.357 340.066 64.1162 339.461 62.7651C337.607 58.5915 335.86 54.3777 334.087 50.1639L328.282 36.5461C327.866 37.3353 327.57 37.8838 327.328 38.3921C320.906 52.5094 314.488 66.6177 308.074 80.7171C304.876 87.7668 301.718 94.8433 298.534 101.906L267.375 102Z" fill="#545454"/>
<path d="M0 3.0099C0.634168 2.6471 1.37198 2.50584 2.09608 2.60859H23.5943C25.7173 2.60859 25.8382 2.72899 25.8382 4.92282C25.8382 15.678 25.8382 26.4331 25.8382 37.1883V96.7028C25.8382 99.6992 25.8382 99.6992 22.7613 99.6992H2.44543C1.61099 99.8238 0.758221 99.6932 0 99.3247V3.0099Z" fill="#545454"/>
<path d="M736.539 65.4661V5.18909C736.539 2.90161 736.539 2.88823 738.85 2.88823C746.24 2.88823 753.63 2.88823 761.02 2.88823C762.579 2.88823 763.009 3.38319 763.009 4.89479C763.009 29.9233 763.009 54.9383 763.009 79.9668C762.873 84.8864 761 89.601 757.72 93.2827C754.44 96.9644 749.961 99.3778 745.071 100.099C736.795 101.223 730.291 98.1195 724.836 92.073C713.805 79.833 702.639 67.7268 691.541 55.5671C686.569 50.1181 681.607 44.6692 676.653 39.2203C676.25 38.7655 675.874 38.2705 675.417 37.7087C675.187 37.9994 675.025 38.3378 674.944 38.6989C674.862 39.0601 674.863 39.4348 674.947 39.7955C674.947 58.9069 674.947 78.0227 674.947 97.1429C674.947 99.8183 674.947 99.8183 672.259 99.8183C664.923 99.8183 657.587 99.8183 650.264 99.8183C648.719 99.8183 648.235 99.3368 648.235 97.8118C648.235 72.8368 648.114 47.8753 648.343 22.9003C648.41 14.2454 652.884 7.81099 660.865 4.26607C669.021 0.614136 676.868 1.79132 683.479 7.6906C688.853 12.5331 693.422 18.2585 698.339 23.5959C706.697 32.6789 714.974 41.8155 723.304 50.9252L736.539 65.4661Z" fill="#545454"/>
<path d="M456.637 0.30722H480.151C482.247 0.30722 482.341 0.400859 482.341 2.46093C482.341 9.43483 482.341 16.3998 482.341 23.3559C482.341 25.6166 482.22 25.737 479.976 25.737H435.636C429.225 25.7232 423.048 28.1303 418.349 32.4727C413.651 36.8151 410.782 42.7697 410.32 49.1356C409.858 55.5015 411.838 61.805 415.86 66.7747C419.883 71.7444 425.649 75.0105 431.995 75.9143C433.549 76.1193 435.116 76.2176 436.684 76.2086H480.016C482.301 76.2086 482.341 76.2086 482.341 78.563C482.341 85.412 482.341 92.2655 482.341 99.1235C482.341 101.518 482.247 101.625 479.936 101.625C464.995 101.625 450.04 101.866 435.099 101.625C422.226 101.492 409.882 96.5071 400.553 87.675C391.225 78.8429 385.604 66.8195 384.824 54.0266C384.044 41.2336 388.162 28.6215 396.349 18.7306C404.535 8.83968 416.183 2.40475 428.945 0.721909C434.131 0.0129251 439.344 0.360728 444.544 0.320597C448.575 0.267089 452.606 0.30722 456.637 0.30722Z" fill="url(#paint0_linear)"/>
<path d="M520.155 0.602295C526.873 0.602295 533.699 0.602295 540.471 0.602295C557.535 0.762819 571.2 7.77239 581.384 21.2966C588.486 30.6497 591.964 42.2379 591.18 53.9366C590.507 65.6277 585.801 76.7292 577.857 85.3647C569.913 94.0003 559.217 99.6403 547.578 101.331C545.307 101.635 543.017 101.778 540.726 101.76C525.892 101.76 511.058 101.76 496.224 101.76C493.779 101.76 493.766 101.76 493.766 99.365C493.766 92.4625 493.766 85.5465 493.766 78.644C493.766 77.0254 494.317 76.5438 495.902 76.5438C510.449 76.5973 525.001 76.5973 539.557 76.5438C545.605 76.6269 551.501 74.6546 556.272 70.9522C567.733 62.0698 569.009 44.1981 558.892 33.8443C556.417 31.25 553.427 29.1967 550.113 27.8149C546.798 26.4331 543.231 25.7531 539.637 25.818C525.153 25.818 510.655 25.818 496.157 25.818C493.819 25.818 493.792 25.818 493.792 23.5038V2.91652C493.792 0.642426 493.792 0.602295 496.171 0.602295H520.155Z" fill="url(#paint1_linear)"/>
<path d="M606.888 51.1675V5.01665C606.888 2.59541 606.888 2.58203 609.293 2.58203C616.348 2.58203 623.402 2.58203 630.456 2.58203C632.014 2.58203 632.606 3.03685 632.606 4.66885C632.606 35.6501 632.606 66.6269 632.606 97.5992C632.606 99.1911 632.108 99.7395 630.483 99.7262C623.317 99.6548 616.15 99.6548 608.984 99.7262C607.224 99.7262 606.835 99.0707 606.848 97.4521C606.938 82.0417 606.951 66.6135 606.888 51.1675Z" fill="#545454"/>
<path d="M68.4477 37.4179C68.1597 38.1394 68.0625 38.9224 68.1655 39.692C68.1655 58.7052 68.1655 77.7096 68.1655 96.705C68.1655 99.7014 68.1655 99.7014 65.0886 99.7014H43.9934C41.6286 99.7014 41.6017 99.7014 41.6017 97.414C41.6017 72.7378 41.6017 48.0526 41.6017 23.3586C41.5843 19.1347 42.8425 15.0031 45.2131 11.4999C47.5837 7.99684 50.9571 5.284 54.8957 3.71352C58.8342 2.14304 63.156 1.78743 67.3001 2.69285C71.4442 3.59826 75.2193 5.7229 78.1353 8.79101C88.8845 20.3755 99.4724 32.0938 110.127 43.7586C116.147 50.358 122.18 56.9484 128.226 63.5299C128.549 63.8777 128.777 64.3726 129.395 64.4395C129.892 63.7974 129.664 63.1018 129.664 62.3661C129.664 43.4777 129.664 24.5848 129.664 5.68753C129.664 2.61081 129.664 2.61081 132.822 2.61081H153.97C156.268 2.61081 156.282 2.61081 156.282 4.96517C156.282 29.7662 156.282 54.5673 156.282 79.3683C156.254 83.6061 154.93 87.7349 152.486 91.2048C150.043 94.6748 146.595 97.3213 142.603 98.7918C138.64 100.251 134.331 100.509 130.22 99.5332C126.109 98.5571 122.381 96.3906 119.506 93.3072L86.3047 57.0019L69.6973 38.8359L68.4477 37.4179Z" fill="#545454"/>
<path d="M169.323 50.8594V2.88931C169.323 0.213899 169.323 0.213899 172.01 0.213899C188.631 0.213899 205.252 0.213899 221.873 0.213899C235.034 0.010257 247.764 4.88275 257.399 13.8115C267.033 22.7403 272.825 35.0331 273.563 48.1171C274.188 59.0229 271.256 69.8378 265.202 78.9483C259.148 88.0587 250.298 94.9763 239.972 98.669C234.658 100.628 229.044 101.656 223.378 101.706C206.139 101.706 188.9 101.706 171.661 101.706C169.417 101.706 169.323 101.612 169.323 99.3245C169.314 83.1828 169.314 67.0278 169.323 50.8594ZM195.175 51.0066C195.175 58.6984 195.175 66.3902 195.175 74.0686C195.175 75.6471 195.618 76.1955 197.257 76.1822C205.601 76.1153 213.932 76.0885 222.276 76.1822C228.983 76.3117 235.466 73.7834 240.3 69.1536C245.135 64.5239 247.924 58.1718 248.054 51.4948C248.184 44.8178 245.644 38.3629 240.994 33.55C236.344 28.7371 229.963 25.9604 223.257 25.8309C214.631 25.8309 206.018 25.8309 197.392 25.8309C195.215 25.8309 195.202 25.8309 195.202 28.1184L195.175 51.0066Z" fill="#545454"/>
<defs>
<linearGradient id="paint0_linear" x1="433.536" y1="0.27002" x2="406" y2="89.5" gradientUnits="userSpaceOnUse">
<stop stop-color="#3463F8"/>
<stop offset="1" stop-color="#214FDF"/>
</linearGradient>
<linearGradient id="paint1_linear" x1="542.527" y1="0.602294" x2="494" y2="92" gradientUnits="userSpaceOnUse">
<stop stop-color="#3463F8"/>
<stop offset="1" stop-color="#214FDF"/>
</linearGradient>
</defs>
</svg>
