<svg role="img" viewBox="0 0 24 24" xmlns="http://www.w3.org/2000/svg"><title>Bastyon</title><path d="M21.29 19a11.62 11.62 0 0 0 .88-12.66 1.83 1.83 0 0 1 .3-2.19L24 2.63 21.44.07l-1.58 1.58A5.47 5.47 0 0 0 19 2.73a11.62 11.62 0 0 0-12.63-.9 1.83 1.83 0 0 1-2.19-.3L2.65 0 .09 2.56l1.59 1.58a5.47 5.47 0 0 0 1.05.8 11.62 11.62 0 0 0-.9 12.67 1.82 1.82 0 0 1 .23.9 1.82 1.82 0 0 1-.53 1.29L0 21.33l2.56 2.57 1.58-1.59A5.47 5.47 0 0 0 5 21.22a11.62 11.62 0 0 0 12.67.89 1.83 1.83 0 0 1 2.19.3l1.53 1.53 2.56-2.56-1.62-1.58a5.47 5.47 0 0 0-1.04-.8Zm-5.45 0A8 8 0 0 1 5 15.88v-.06A8 8 0 0 1 7.84 5.15L8.18 5A8 8 0 0 1 19 8.08v.07a8 8 0 0 1-2.77 10.6l-.42.22Z" /></svg>