<svg xmlns="http://www.w3.org/2000/svg" viewBox="0 0 369.66 223.03"><title>иконки чата</title><g id="Слой_2" data-name="Слой 2"><path d="M369.66,111.52c0-.18,0-.35,0-.53a7,7,0,0,0-3.8-5.76L160.14.76a7,7,0,0,0-10.17,6l-2.05,68.69-42.41,30.29a7,7,0,0,0-2.85,4.74s0,0,0,0a6.93,6.93,0,0,0,0,1.94v0a7,7,0,0,0,2.85,4.74l42.41,30.29L150,216.24a7,7,0,0,0,10.17,6L365.85,117.8a7,7,0,0,0,3.8-5.76C369.67,111.86,369.66,111.69,369.66,111.52ZM158.88,84.86a7,7,0,0,0,2.93-5.49l1.83-61.13,169.81,86.24h-202Zm4.75,119.94-1.83-61.13a7,7,0,0,0-2.93-5.49l-27.46-19.62h202Z"/><rect x="30.46" y="52.93" width="75.05" height="14"/><rect x="30.46" y="155.29" width="75.05" height="14"/><rect y="104.11" width="80.65" height="14"/></g></svg>