<?xml version="1.0" standalone="no"?>
<!DOCTYPE svg PUBLIC "-//W3C//DTD SVG 20010904//EN"
 "http://www.w3.org/TR/2001/REC-SVG-20010904/DTD/svg10.dtd">
<svg version="1.0" xmlns="http://www.w3.org/2000/svg"
 width="1500.000000pt" height="486.000000pt" viewBox="0 0 1500.000000 486.000000"
 preserveAspectRatio="xMidYMid meet">
<metadata>
Created by potrace 1.15, written by Peter Selinger 2001-2017
</metadata>
<g transform="translate(0.000000,486.000000) scale(0.100000,-0.100000)"
fill="#FFFFFF" stroke="none">
<path d="M14735 4021 c-90 -26 -162 -68 -242 -145 -81 -76 -76 -75 -203 -47
-61 14 -234 13 -339 0 -82 -11 -92 -10 -218 20 -372 88 -707 93 -1053 13 -160
-36 -228 -34 -363 11 -364 123 -799 136 -1205 37 -300 -73 -640 -237 -852
-410 -75 -61 -85 -60 -170 10 -133 110 -404 253 -605 319 -235 77 -451 111
-704 111 -519 0 -1002 -179 -1411 -521 -129 -108 -202 -183 -305 -313 -38 -49
-84 -105 -102 -125 l-32 -36 -38 23 c-201 122 -401 173 -596 152 -330 -35
-619 -233 -758 -519 -22 -47 -46 -97 -53 -111 l-12 -25 -155 3 c-280 7 -453
-28 -664 -132 -128 -63 -266 -158 -334 -230 -48 -50 -71 -47 -100 11 -116 239
-348 421 -613 479 -98 22 -282 22 -371 0 -93 -23 -189 -60 -263 -101 -34 -19
-70 -35 -80 -35 -10 0 -47 15 -83 34 -363 187 -779 114 -1068 -187 -150 -157
-237 -350 -258 -572 -9 -100 -10 -100 -73 -124 -119 -43 -182 -128 -192 -260
l-5 -74 -90 -55 c-115 -72 -232 -184 -301 -290 -31 -46 -62 -86 -70 -89 -8 -3
-69 13 -137 35 -95 32 -149 44 -242 52 -103 10 -249 30 -348 47 l-27 5 0 -491
0 -491 7500 0 7500 0 0 2014 0 2014 -31 6 c-57 11 -173 5 -234 -13z"/>
</g>
</svg>