<svg version="1.1" id="图层_1" xmlns="http://www.w3.org/2000/svg" x="0" y="0" viewBox="0 0 167 32" style="enable-background:new 0 0 167 32" xml:space="preserve"><style>.st0{fill:#00d0c4}.st1{fill:#fff}</style><path class="st0" d="m106.5 8.3-.5 3.1H93.2c-.9 0-1.7.7-1.9 1.6l-.3 1.7h11.2l-.5 3.1H90.5l-1.4 8H86L88.2 13c.5-2.7 2.8-4.6 5.5-4.7h12.8zm-1.9 17.5 3.1-17.4h3.1l-3.1 17.4h-3.1zm24.9-17.4-3.1 17.4-2.7-2.4-9.7-8.6-1.9 11H109l3-17.4 2.7 2.4 9.7 8.6 2-11.1 3.1.1zM133 13l-.3 1.6h11.2l-.5 3.1h-11.2l-.6 3.3c-.2.7.3 1.4 1 1.6h13l-.5 3.1h-12.7c-2.1.1-3.9-1.6-4-3.7 0-.3 0-.7.1-1l1.4-8c.5-2.7 2.8-4.6 5.5-4.7h12.7l-.5 3.1h-12.7c-.9.1-1.7.7-1.9 1.6zm33.2-4.6-8.3 8.7 5.2 8.7h-3.9l-3.7-6.1-5.8 6.1h-3.9l8.2-8.7-5.2-8.7h3.9l3.7 6.2 5.9-6.2h3.9"/><path class="st1" d="M51.7 8.4c3.9-.1 7.2 2.9 7.4 6.8 0 .6 0 1.2-.2 1.9-.4 2.1-1.5 4.1-3.1 5.6-.2.2-.4.3-.6.5-1.8 1.6-4.1 2.5-6.6 2.6h-8.7L43 8.3l8.7.1zm-8.2 14.3h5.6c3.2-.1 6-2.4 6.6-5.6.6-2.5-1-4.9-3.4-5.5-.4-.1-.8-.1-1.2-.1h-5.6l-2 11.2zm15.1 3.1 3.1-17.4h3.1l-3.1 17.4h-3.1zm9-8.7c-.6 2.5 1 4.9 3.4 5.5.4.1.8.1 1.2.1h5.6l.6-3.3h-5.6l.6-3.1H82l-1.7 9.6h-8.7c-3.9.1-7.2-2.9-7.4-6.9 0-.6 0-1.2.2-1.8 1-4.9 5.2-8.5 10.2-8.7h8.7l-.5 3.1h-8.7c-3.2 0-5.9 2.3-6.5 5.5zm-33.2-4.5c0 1.4-.2 2.8-.4 4.2-1.8 9.6-7.3 14.4-16.5 14.4h-5.8v-.1l1.4-6.6h4c5 0 8-2.8 9-8.5.1-.4.1-.7.2-1.1l8-4.6c0 .7.1 1.5.1 2.3zm-2.9-8.3-7.1 4.1c-1.2-.7-2.6-1.1-4.1-1H8.7v-.2L10.1.8h12c1.5 0 3.1.2 4.5.6 1.7.5 3.3 1.3 4.5 2.5.2.1.3.2.4.4z"/><path class="st0" d="M20.1 13.1 19 19.7h-4.9L11.7 31v.1H.8l4.1-5.5 2.7-12.5h12.5z"/><path class="st1" d="m81.6 25.8 3.1-17.5h3.1l-3.1 17.5z"/></svg>