<svg width="143" height="19" viewBox="0 0 143 19" fill="none" xmlns="http://www.w3.org/2000/svg">
<path d="M50.0453 19C50.2197 18.4787 50.4342 17.9714 50.6865 17.4825C52.8662 12.6417 55.0458 7.80101 57.2254 2.96026C57.3926 2.54574 57.5891 2.14354 57.8139 1.75672C58.3297 0.921144 59.1593 0.322506 60.12 0.0921968C60.2207 0.0647868 60.3188 0.0299017 60.4193 0H61.7397C62.2944 0.0926751 62.8221 0.304682 63.2851 0.621104C63.7484 0.937527 64.136 1.35067 64.4207 1.83148C64.5892 2.11554 64.7299 2.41954 64.8759 2.71856C66.3244 5.68214 67.7722 8.65154 69.2191 11.6268C70.4162 14.0837 71.6117 16.5414 72.8055 19H66.7067C66.3722 18.2525 66.0252 17.485 65.7008 16.715C65.6682 16.5928 65.5917 16.4866 65.4855 16.4164C65.3796 16.3462 65.2512 16.3168 65.1249 16.3338C63.1756 16.3487 61.2266 16.3338 59.2776 16.3338C59.0537 16.3338 58.9004 16.3338 59.026 16.0273C59.6079 14.7614 60.1805 13.4915 60.7437 12.2173C60.7729 12.1404 60.8276 12.0757 60.8991 12.0339C60.9704 11.9922 61.054 11.976 61.1362 11.9881C61.8681 11.9881 62.6023 11.9881 63.3366 11.9881C63.5882 11.9881 63.6511 11.9432 63.5378 11.6915C63.1908 10.9141 62.8638 10.1292 62.532 9.34426L61.4454 6.80761C61.3676 6.95462 61.3122 7.05679 61.2669 7.15147C60.0648 9.78116 58.8636 12.4092 57.663 15.0355C57.0645 16.3487 56.4734 17.6669 55.8774 18.9825L50.0453 19Z" fill="#545454"/>
<path d="M0 0.560819C0.118699 0.493238 0.256797 0.466925 0.392329 0.486065H4.41621C4.81358 0.486065 4.83621 0.508492 4.83621 0.917147C4.83621 2.92056 4.83621 4.92396 4.83621 6.92738V18.0134C4.83621 18.5716 4.83621 18.5716 4.26029 18.5716H0.457718C0.301533 18.5948 0.141918 18.5705 0 18.5018V0.560819Z" fill="#545454"/>
<path d="M137.86 12.1946V0.966561C137.86 0.540462 137.86 0.53797 138.293 0.53797C139.676 0.53797 141.059 0.53797 142.442 0.53797C142.734 0.53797 142.814 0.630168 142.814 0.911741C142.814 5.57391 142.814 10.2336 142.814 14.8957C142.789 15.8121 142.438 16.6903 141.825 17.3762C141.211 18.062 140.372 18.5115 139.457 18.6459C137.908 18.8552 136.691 18.2771 135.67 17.1508C133.605 14.8708 131.515 12.6157 129.438 10.3507C128.507 9.33569 127.578 8.3207 126.651 7.30571C126.576 7.22099 126.505 7.12878 126.42 7.02414C126.377 7.07829 126.346 7.14132 126.331 7.20858C126.316 7.27587 126.316 7.34566 126.332 7.41285C126.332 10.9728 126.332 14.5336 126.332 18.0952C126.332 18.5936 126.332 18.5936 125.829 18.5936C124.455 18.5936 123.082 18.5936 121.712 18.5936C121.422 18.5936 121.332 18.5039 121.332 18.2198C121.332 13.5676 121.309 8.91791 121.352 4.26571C121.365 2.65352 122.202 1.45495 123.696 0.794626C125.222 0.114364 126.691 0.333644 127.929 1.43253C128.934 2.33456 129.79 3.40106 130.71 4.39528C132.274 6.08721 133.824 7.78913 135.383 9.48603L137.86 12.1946Z" fill="#545454"/>
<path d="M85.47 0.0572225H89.8711C90.2635 0.0572225 90.2811 0.074665 90.2811 0.458404C90.2811 1.75746 90.2811 3.05486 90.2811 4.3506C90.2811 4.77171 90.2584 4.79414 89.8384 4.79414H81.5391C80.3392 4.79157 79.183 5.23995 78.3035 6.04883C77.4241 6.85771 76.8871 7.9669 76.8007 9.15271C76.7142 10.3385 77.0848 11.5127 77.8376 12.4384C78.5906 13.3641 79.6698 13.9725 80.8576 14.1409C81.1485 14.1791 81.4418 14.1974 81.7353 14.1957H89.8459C90.2736 14.1957 90.2811 14.1957 90.2811 14.6343C90.2811 15.9101 90.2811 17.1867 90.2811 18.4642C90.2811 18.9102 90.2635 18.9301 89.8309 18.9301C87.0343 18.9301 84.2352 18.975 81.4386 18.9301C79.0291 18.9054 76.7187 17.9768 74.9725 16.3316C73.2266 14.6864 72.1745 12.4468 72.0285 10.0638C71.8825 7.68076 72.6533 5.33145 74.1857 3.48903C75.7179 1.6466 77.8981 0.447939 80.2868 0.134468C81.2574 0.00240284 82.2332 0.0671897 83.2065 0.0597143C83.961 0.0497471 84.7155 0.0572225 85.47 0.0572225Z" fill="url(#paint0_linear_652_1198)"/>
<path d="M97.3589 0.112305C98.6163 0.112305 99.8939 0.112305 101.161 0.112305C104.355 0.142206 106.913 1.44791 108.819 3.96713C110.149 5.70937 110.8 7.86796 110.653 10.0471C110.527 12.2249 109.646 14.2928 108.159 15.9014C106.672 17.51 104.67 18.5606 102.492 18.8755C102.067 18.9321 101.638 18.9588 101.209 18.9554C98.4327 18.9554 95.6561 18.9554 92.8796 18.9554C92.422 18.9554 92.4196 18.9554 92.4196 18.5093C92.4196 17.2235 92.4196 15.9352 92.4196 14.6495C92.4196 14.348 92.5227 14.2583 92.8194 14.2583C95.5422 14.2682 98.2659 14.2682 100.99 14.2583C102.122 14.2738 103.226 13.9064 104.119 13.2167C106.264 11.5621 106.503 8.23309 104.609 6.30444C104.146 5.82119 103.586 5.43871 102.966 5.18132C102.346 4.92393 101.678 4.79726 101.005 4.80935C98.2943 4.80935 95.5807 4.80935 92.8671 4.80935C92.4295 4.80935 92.4244 4.80935 92.4244 4.37827V0.543386C92.4244 0.11978 92.4244 0.112305 92.8697 0.112305H97.3589Z" fill="url(#paint1_linear_652_1198)"/>
<path d="M113.593 9.53119V0.934465C113.593 0.483449 113.593 0.480957 114.043 0.480957C115.364 0.480957 116.684 0.480957 118.004 0.480957C118.296 0.480957 118.407 0.565678 118.407 0.869678C118.407 6.6407 118.407 12.4109 118.407 18.1802C118.407 18.4768 118.313 18.5789 118.009 18.5764C116.668 18.5631 115.327 18.5631 113.985 18.5764C113.656 18.5764 113.583 18.4543 113.585 18.1528C113.602 15.2823 113.605 12.4084 113.593 9.53119Z" fill="#545454"/>
<path d="M12.8115 6.96977C12.7576 7.10417 12.7394 7.25002 12.7587 7.39338C12.7587 10.9351 12.7587 14.4751 12.7587 18.0134C12.7587 18.5716 12.7587 18.5716 12.1828 18.5716H8.23432C7.79169 18.5716 7.78665 18.5716 7.78665 18.1455C7.78665 13.549 7.78665 8.95075 7.78665 4.35088C7.7834 3.56408 8.0189 2.79447 8.46261 2.14191C8.90632 1.48938 9.53773 0.984045 10.2749 0.691505C11.0121 0.398964 11.821 0.332723 12.5967 0.50138C13.3724 0.670035 14.079 1.0658 14.6247 1.63731C16.6367 3.79521 18.6185 5.97803 20.6127 8.15088C21.7395 9.38018 22.8687 10.6078 24.0004 11.8338C24.0608 11.8986 24.1035 11.9907 24.2192 12.0032C24.3122 11.8836 24.2695 11.754 24.2695 11.617C24.2695 8.09856 24.2695 4.57929 24.2695 1.05921C24.2695 0.486098 24.2695 0.486098 24.8606 0.486098H28.8189C29.2491 0.486098 29.2517 0.486098 29.2517 0.924655C29.2517 5.54446 29.2517 10.1643 29.2517 14.7841C29.2464 15.5735 28.9986 16.3425 28.5412 16.9889C28.0839 17.6353 27.4385 18.1283 26.6913 18.4022C25.9496 18.674 25.143 18.722 24.3736 18.5403C23.6041 18.3584 22.9063 17.9549 22.3682 17.3805L16.1538 10.6178L13.0454 7.23391L12.8115 6.96977Z" fill="#545454"/>
<path d="M31.6927 9.47368V0.538078C31.6927 0.0397171 31.6927 0.0397171 32.1956 0.0397171C35.3066 0.0397171 38.4176 0.0397171 41.5286 0.0397171C43.992 0.00178378 46.3747 0.909405 48.1781 2.5726C49.9813 4.23581 51.0654 6.52565 51.2036 8.96286C51.3205 10.9943 50.7717 13.0089 49.6386 14.7059C48.5055 16.403 46.849 17.6915 44.9162 18.3794C43.9216 18.7443 42.8708 18.9358 41.8103 18.9451C38.5836 18.9451 35.3569 18.9451 32.1303 18.9451C31.7103 18.9451 31.6927 18.9276 31.6927 18.5015C31.691 15.4947 31.691 12.4854 31.6927 9.47368ZM36.5315 9.5011C36.5315 10.9339 36.5315 12.3667 36.5315 13.797C36.5315 14.091 36.6144 14.1932 36.9212 14.1907C38.4829 14.1782 40.0423 14.1732 41.604 14.1907C42.8594 14.2148 44.0728 13.7438 44.9776 12.8814C45.8826 12.019 46.4046 10.8358 46.429 9.59204C46.4533 8.34829 45.9779 7.1459 45.1075 6.24938C44.2372 5.35286 43.0428 4.83563 41.7876 4.81151C40.1731 4.81151 38.561 4.81151 36.9464 4.81151C36.5389 4.81151 36.5365 4.81151 36.5365 5.23761L36.5315 9.5011Z" fill="#545454"/>
<defs>
<linearGradient id="paint0_linear_652_1198" x1="81.1461" y1="0.050293" x2="76.0372" y2="16.6854" gradientUnits="userSpaceOnUse">
<stop stop-color="#3463F8"/>
<stop offset="1" stop-color="#214FDF"/>
</linearGradient>
<linearGradient id="paint1_linear_652_1198" x1="101.546" y1="0.112304" x2="92.5313" y2="17.1733" gradientUnits="userSpaceOnUse">
<stop stop-color="#3463F8"/>
<stop offset="1" stop-color="#214FDF"/>
</linearGradient>
</defs>
</svg>
