<svg id="Слой_1" data-name="Слой 1" xmlns="http://www.w3.org/2000/svg" xmlns:xlink="http://www.w3.org/1999/xlink" viewBox="0 0 240 240"><defs><style>.cls-1{fill:url(#Безымянный_градиент_7);}.cls-2{fill:url(#Безымянный_градиент_7-2);}.cls-3{fill:url(#Безымянный_градиент_7-3);}.cls-4{fill:url(#Безымянный_градиент_7-4);}</style><linearGradient id="Безымянный_градиент_7" x1="40.42" y1="122.34" x2="40.42" y2="1.37" gradientUnits="userSpaceOnUse"><stop offset="0" stop-color="#00a4ff"/><stop offset="1" stop-color="#142163"/></linearGradient><linearGradient id="Безымянный_градиент_7-2" x1="119.82" y1="40.51" x2="238.48" y2="40.51" xlink:href="#Безымянный_градиент_7"/><linearGradient id="Безымянный_градиент_7-3" x1="199.74" y1="118.95" x2="201.56" y2="241.9" xlink:href="#Безымянный_градиент_7"/><linearGradient id="Безымянный_градиент_7-4" x1="120.27" y1="199.55" x2="0.2" y2="199.55" xlink:href="#Безымянный_градиент_7"/></defs><title>logo</title><path class="cls-1" d="M50,159.09l-.34-.62h0A80,80,0,0,1,80.84,50.15L60.61,19.85C51.44,25,45.27,30,37.63,37.66A116.64,116.64,0,0,0,18.32,176.56h0a18.36,18.36,0,0,1-3,21.93L0,213.84l25.62,25.68,15.79-15.89a54.77,54.77,0,0,0,8.24-10.94A54.73,54.73,0,0,0,50,159.09Z"/><path class="cls-2" d="M202.32,37.72A116,116,0,0,0,63.73,18.36h0a18.16,18.16,0,0,1-9,2.35,18.2,18.2,0,0,1-12.91-5.36L26.54,0,.91,25.68,16.77,41.51A54.22,54.22,0,0,0,54.76,57a54.12,54.12,0,0,0,27-7.18h0A79.61,79.61,0,0,1,189.85,81L220.68,61.6A104.62,104.62,0,0,0,202.32,37.72Z"/><path class="cls-3" d="M202.37,202.53A116.64,116.64,0,0,0,221.68,63.63h0a18.36,18.36,0,0,1,3-21.93L240,26.35,214.38.67,198.58,16.56a54.71,54.71,0,0,0-8.27,65.16h0A80,80,0,0,1,159.16,190l20.86,30C189.19,214.9,194.73,210.19,202.37,202.53Z"/><path class="cls-4" d="M223.33,198.49a54.39,54.39,0,0,0-65-8.29h0a79.14,79.14,0,0,1-38.37,9.87A80,80,0,0,1,50,159.1h0a54.73,54.73,0,0,1-.37,53.59,116,116,0,0,0,126.71,9h0a18.25,18.25,0,0,1,21.88,3L213.56,240l25.62-25.68Z"/></svg>