<svg
   role="img"
   viewBox="0 0 24 24"
   xmlns:inkscape="http://www.inkscape.org/namespaces/inkscape"
   xmlns:sodipodi="http://sodipodi.sourceforge.net/DTD/sodipodi-0.dtd"
   xmlns:xlink="http://www.w3.org/1999/xlink"
   xmlns="http://www.w3.org/2000/svg"
   xmlns:svg="http://www.w3.org/2000/svg"
   xmlns:rdf="http://www.w3.org/1999/02/22-rdf-syntax-ns#"
   xmlns:cc="http://creativecommons.org/ns#"
   xmlns:dc="http://purl.org/dc/elements/1.1/">
    <style
       id="style2641">.cls-1{fill:url(#clr7);}.cls-2{fill:url(#clr7-2);}.cls-3{fill:url(#clr7-3);}.cls-4{fill:url(#clr7-4);}</style>
    <linearGradient
       id="clr7"
       x1="40.42"
       y1="122.34"
       x2="40.42"
       y2="1.37"
       gradientUnits="userSpaceOnUse">
      <stop
         offset="0"
         stop-color="#00a4ff"
         id="stop2643" />
      <stop
         offset="1"
         stop-color="#142163"
         id="stop2645" />
    </linearGradient>
    <linearGradient
       id="clr7-2"
       x1="119.82"
       y1="40.51"
       x2="238.48"
       y2="40.51"
       xlink:href="#clr7"
       gradientTransform="scale(0.1)" />
    <linearGradient
       id="clr7-3"
       x1="199.74"
       y1="118.95"
       x2="201.56"
       y2="241.9"
       xlink:href="#clr7"
       gradientTransform="scale(0.1)" />
    <linearGradient
       id="clr7-4"
       x1="120.27"
       y1="199.55"
       x2="0.2"
       y2="199.55"
       xlink:href="#clr7"
       gradientTransform="scale(0.1)" />
    <linearGradient
       inkscape:collect="always"
       xlink:href="#clr7"
       id="linearGradient2806"
       gradientUnits="userSpaceOnUse"
       x1="40.42"
       y1="122.34"
       x2="40.42"
       y2="1.37"
       gradientTransform="scale(0.1)" />
  <title>Bastyon</title>
  <path
     class="cls-1"
     d="M 5,15.909 4.966,15.847 v 0 A 8,8 0 0 1 8.084,5.015 L 6.061,1.985 C 5.144,2.5 4.527,3 3.763,3.766 a 11.664,11.664 0 0 0 -1.931,13.89 v 0 a 1.836,1.836 0 0 1 -0.3,2.193 L 0,21.384 2.562,23.952 4.141,22.363 A 5.477,5.477 0 0 0 4.965,21.269 5.473,5.473 0 0 0 5,15.909 Z"
     id="path2655"
     style="fill:url(#linearGradient2806);stroke-width:0.1" />
  <path
     class="cls-2"
     d="M 20.232,3.772 A 11.6,11.6 0 0 0 6.373,1.836 v 0 A 1.816,1.816 0 0 1 5.473,2.071 1.82,1.82 0 0 1 4.182,1.535 L 2.654,0 0.091,2.568 1.677,4.151 A 5.422,5.422 0 0 0 5.476,5.7 5.412,5.412 0 0 0 8.176,4.982 v 0 A 7.961,7.961 0 0 1 18.985,8.1 L 22.068,6.16 A 10.462,10.462 0 0 0 20.232,3.772 Z"
     id="path2657"
     style="fill:url(#clr7-2);stroke-width:0.1" />
  <path
     class="cls-3"
     d="m 20.237,20.253 a 11.664,11.664 0 0 0 1.931,-13.89 v 0 a 1.836,1.836 0 0 1 0.3,-2.193 L 24,2.635 21.438,0.067 19.858,1.656 a 5.471,5.471 0 0 0 -0.827,6.516 v 0 A 8,8 0 0 1 15.916,19 l 2.086,3 c 0.917,-0.51 1.471,-0.981 2.235,-1.747 z"
     id="path2659"
     style="fill:url(#clr7-3);stroke-width:0.1" />
  <path
     class="cls-4"
     d="m 22.333,19.849 a 5.439,5.439 0 0 0 -6.5,-0.829 v 0 A 7.914,7.914 0 0 1 11.996,20.007 8,8 0 0 1 5,15.91 v 0 a 5.473,5.473 0 0 1 -0.037,5.359 11.6,11.6 0 0 0 12.671,0.9 v 0 a 1.825,1.825 0 0 1 2.188,0.3 L 21.356,24 23.918,21.432 Z"
     id="path2661"
     style="fill:url(#clr7-4);stroke-width:0.1" />
</svg>
