<?xml version="1.0" encoding="utf-8"?>
<!-- Generator: Adobe Illustrator 28.1.0, SVG Export Plug-In . SVG Version: 6.00 Build 0)  -->
<svg version="1.1"
	 id="Layer_1" xmlns:inkscape="http://www.inkscape.org/namespaces/inkscape" xmlns:rdf="http://www.w3.org/1999/02/22-rdf-syntax-ns#" xmlns:sodipodi="http://sodipodi.sourceforge.net/DTD/sodipodi-0.dtd" xmlns:svg="http://www.w3.org/2000/svg" xmlns:cc="http://creativecommons.org/ns#" xmlns:dc="http://purl.org/dc/elements/1.1/"
	 xmlns="http://www.w3.org/2000/svg" xmlns:xlink="http://www.w3.org/1999/xlink" x="0px" y="0px" width="24px" height="24px"
	 viewBox="0 0 24 24" style="enable-background:new 0 0 24 24;" xml:space="preserve">
<style type="text/css">
	.st0{fill:none;}
	.st1{fill:#CCCBCB;}
	.st2{fill:#FFFFFF;}
	.st3{fill:#E0203C;}
	.st4{fill:#1B2E5A;}
</style>
<g>
	<g>
		<g>
			<path class="st0" d="M8.4,16.5l1.2-5.3L6.5,6.6l4.4,1.1l1.6-2.8l-0.9,0.6L7.4,3.1C7.1,2.9,6.8,2.8,6.5,2.7
				c-0.3-0.1-0.6-0.2-1-0.2c0,0,0,0,0,0c-0.5,0-0.9,0.2-1.3,0.4c-0.5,0.4-0.9,1-0.9,1.7c0,0.1,0,14.7,0,14.8c0,0.4,0.1,0.9,0.4,1.2
				c0.4,0.6,1,0.9,1.8,0.9c0.1,0,0.2,0,0.3,0c0.1,0,0.2,0,0.3,0C6.8,21.3,7.4,21,7.4,21l6.3-3.6l1.8-0.1l-3.1-2.8L8.4,16.5z"/>
			<path class="st0" d="M13.9,8.9l2.8,1.7l-1.8,2.1l0.6,3.7l3.6-2c0.3-0.2,0.5-0.3,0.7-0.5c0.1-0.1,0.3-0.2,0.4-0.3
				c0.4-0.4,0.6-0.9,0.6-1.5c0-0.4-0.1-0.8-0.4-1.2c-0.1-0.2-0.2-0.3-0.4-0.4c-0.5-0.4-0.9-0.7-0.9-0.7L13,6.3L13.9,8.9z"/>
			<path class="st1" d="M21.9,9.8L21.9,9.8c-0.2-0.3-0.4-0.5-0.7-0.8c-0.6-0.6-1.2-0.9-1.3-1L8.3,1.4C8,1.2,7.7,1,7.3,0.9
				C6.8,0.6,6.2,0.5,5.6,0.5c0,0-0.1,0-0.1,0c-0.8,0-1.6,0.3-2.3,0.8C2.6,1.7,2.2,2.2,1.9,2.7C1.6,3.3,1.5,3.9,1.5,4.6
				c0,0.1,0,4.4,0,7.7l0,4.4c0,1.6,0,2.8,0,2.8c0,0.8,0.2,1.6,0.7,2.3c0.8,1.1,2,1.8,3.4,1.8c0.2,0,0.4,0,0.5,0l0.1,0
				c0.1,0,0.3,0,0.4-0.1c0.9-0.2,1.7-0.6,1.8-0.7L19.9,16c0.3-0.2,0.6-0.4,0.8-0.6c0.2-0.2,0.5-0.4,0.7-0.6c0.7-0.8,1.1-1.7,1.1-2.8
				C22.5,11.3,22.3,10.5,21.9,9.8z"/>
			<path class="st2" d="M5.6,23.2c-1.3,0-2.4-0.6-3.2-1.7c-0.4-0.6-0.7-1.4-0.7-2.2c0,0,0-14.8,0-14.8c0-0.6,0.1-1.2,0.4-1.8
				c0.3-0.5,0.7-1,1.1-1.3c0.6-0.5,1.4-0.7,2.2-0.8c0,0,0.1,0,0.1,0c0.6,0,1.1,0.1,1.6,0.4c0.3,0.1,0.7,0.3,1,0.5l11.6,6.7
				c0.1,0,0.7,0.4,1.2,1c0.2,0.2,0.4,0.5,0.6,0.7l0,0c0.4,0.6,0.6,1.3,0.6,2.1c0,1-0.4,1.9-1,2.6c-0.2,0.2-0.4,0.4-0.7,0.6
				c-0.2,0.2-0.5,0.4-0.8,0.5L8.2,22.4c-0.1,0.1-0.8,0.5-1.7,0.7c-0.1,0-0.2,0.1-0.4,0.1l-0.1,0C5.9,23.2,5.8,23.2,5.6,23.2z"/>
			<path class="st3" d="M19.9,10.5c-0.5-0.4-0.9-0.7-0.9-0.7L13,6.3l0.9,2.6l2.8,1.7l-1.8,2.1l0.6,3.7l3.6-2
				c0.3-0.2,0.5-0.3,0.7-0.5c0.1-0.1,0.3-0.2,0.4-0.3c0.4-0.4,0.6-0.9,0.6-1.5c0-0.4-0.1-0.8-0.4-1.2C20.1,10.7,20,10.6,19.9,10.5z"
				/>
			<path class="st4" d="M8.4,16.5l1.2-5.3L6.5,6.6l4.4,1.1l1.6-2.8l-0.9,0.6L7.4,3.1C7.1,2.9,6.8,2.8,6.5,2.7
				c-0.3-0.1-0.6-0.2-1-0.2c0,0,0,0,0,0c-0.5,0-0.9,0.2-1.3,0.4c-0.5,0.4-0.9,1-0.9,1.7c0,0.1,0,14.7,0,14.8c0,0.4,0.1,0.9,0.4,1.2
				c0.4,0.6,1,0.9,1.8,0.9c0.1,0,0.2,0,0.3,0c0.1,0,0.2,0,0.3,0C6.8,21.3,7.4,21,7.4,21l6.3-3.6l1.8-0.1l-3.1-2.8L8.4,16.5z"/>
		</g>
	</g>
</g>
</svg>
