<svg width="170.56" height="170.17" xmlns="http://www.w3.org/2000/svg" data-name="Слой 1">

 <title>pocketnet logo</title>
 <g>
  <title>Layer 1</title>
  <path id="svg_1" fill="#ffffff" d="m35.55,112.8l-0.24,-0.44l0,0a56.65,56.65 0 0 1 22.14,-76.8l-14.38,-21.49a69.19,69.19 0 0 0 -16.33,12.63a82.55,82.55 0 0 0 -13.74,98.49l0,0a12.93,12.93 0 0 1 1.67,6.37a13,13 0 0 1 -3.8,9.18l-10.87,10.88l18.21,18.21l11.22,-11.27a38.84,38.84 0 0 0 5.86,-7.76a38.73,38.73 0 0 0 0.27,-38l-0.01,0z" class="cls-1"/>
  <path id="svg_2" fill="#ffffff" d="m143.78,26.74a82.55,82.55 0 0 0 -98.49,-13.74l0,0a12.93,12.93 0 0 1 -6.37,1.67a13,13 0 0 1 -9.18,-3.8l-10.88,-10.87l-18.21,18.21l11.27,11.22a38.58,38.58 0 0 0 27,11a38.53,38.53 0 0 0 19.2,-5.09l0,0a56.65,56.65 0 0 1 76.8,22.14l21.91,-13.77a74.2,74.2 0 0 0 -13.05,-16.97z" class="cls-2"/>
  <path id="svg_3" fill="#ffffff" d="m145.81,142.6a82.55,82.55 0 0 0 13.73,-98.49l0,0a13,13 0 0 1 2.13,-15.55l10.89,-10.88l-18.21,-18.2l-11.23,11.26a38.72,38.72 0 0 0 -5.88,46.2l0,0a56.65,56.65 0 0 1 -22.14,76.8l14.83,21.26c6.52,-3.63 10.45,-7 15.88,-12.4z" class="cls-3"/>
  <path id="svg_4" fill="#ffffff" d="m158.71,139.73a38.72,38.72 0 0 0 -46.2,-5.88l0,0a56.89,56.89 0 0 1 -77,-22l0,0a38.73,38.73 0 0 1 -0.27,38a82.59,82.59 0 0 0 90,6.35l0,0a13,13 0 0 1 15.55,2.13l10.88,10.89l18.33,-18.22l-11.29,-11.27z" class="cls-4"/>
  <g>

   <title fill="#ffffff">pocketnet logo</title>
   <path fill="#ffffff" d="m35.55,112.775l-0.24,-0.44l0,0a56.65,56.65 0 0 1 22.14,-76.8l-14.38,-21.49a69.19,69.19 0 0 0 -16.33,12.63a82.55,82.55 0 0 0 -13.74,98.49l0,0a12.93,12.93 0 0 1 1.67,6.37a13,13 0 0 1 -3.8,9.18l-10.87,10.88l18.21,18.21l11.22,-11.27a38.84,38.84 0 0 0 5.86,-7.76a38.73,38.73 0 0 0 0.27,-38l-0.01,0z" class="cls-1"/>
   <path fill="#ffffff" d="m143.78,26.715a82.55,82.55 0 0 0 -98.49,-13.74l0,0a12.93,12.93 0 0 1 -6.37,1.67a13,13 0 0 1 -9.18,-3.8l-10.88,-10.87l-18.21,18.21l11.27,11.22a38.58,38.58 0 0 0 27,11a38.53,38.53 0 0 0 19.2,-5.09l0,0a56.65,56.65 0 0 1 76.8,22.14l21.91,-13.77a74.2,74.2 0 0 0 -13.05,-16.97z" class="cls-2"/>
   <path fill="#ffffff" d="m143.81,143.575a82.55,82.55 0 0 0 13.73,-98.49l0,0a13,13 0 0 1 2.13,-15.55l10.89,-10.88l-18.21,-18.2l-11.23,11.26a38.72,38.72 0 0 0 -5.88,46.2l0,0a56.65,56.65 0 0 1 -22.14,76.8l14.83,21.26c6.52,-3.63 10.45,-7 15.88,-12.4z" class="cls-3"/>
   <path fill="#ffffff" d="m158.71,140.705a38.72,38.72 0 0 0 -46.2,-5.88l0,0a56.89,56.89 0 0 1 -77,-22l0,0a38.73,38.73 0 0 1 -0.27,38a82.59,82.59 0 0 0 90,6.35l0,0a13,13 0 0 1 15.55,2.13l10.88,10.89l18.33,-18.22l-11.29,-11.27z" class="cls-4"/>
  </g>
 </g>
</svg>