<svg id="Слой_1" data-name="Слой 1" xmlns="http://www.w3.org/2000/svg" xmlns:xlink="http://www.w3.org/1999/xlink" viewBox="0 0 686.06 103.23"><defs><style>.cls-1{fill:url(#Безымянный_градиент_7);}.cls-2{fill:url(#Безымянный_градиент_7-2);}.cls-3{fill:url(#Безымянный_градиент_7-3);}.cls-4{fill:url(#Безымянный_градиент_7-4);}</style><linearGradient id="Безымянный_градиент_7" x1="17.43" y1="52.62" x2="17.43" y2="0.59" gradientUnits="userSpaceOnUse"><stop offset="0" stop-color="#00a4ff"/><stop offset="1" stop-color="#142163"/></linearGradient><linearGradient id="Безымянный_градиент_7-2" x1="51.65" y1="17.43" x2="102.81" y2="17.43" xlink:href="#Безымянный_градиент_7"/><linearGradient id="Безымянный_градиент_7-3" x1="86.11" y1="51.16" x2="86.89" y2="104.04" xlink:href="#Безымянный_градиент_7"/><linearGradient id="Безымянный_градиент_7-4" x1="51.85" y1="85.83" x2="0.09" y2="85.83" xlink:href="#Безымянный_градиент_7"/></defs><title>pocketnet logo</title><path class="cls-1" d="M21.57,68.43l-.15-.27h0A34.37,34.37,0,0,1,34.85,21.57l-8.72-13a42,42,0,0,0-9.9,7.66A50.08,50.08,0,0,0,7.9,75.94h0a7.84,7.84,0,0,1,1,3.87,7.85,7.85,0,0,1-2.3,5.57L0,92l11,11,6.81-6.84a23.56,23.56,0,0,0,3.55-4.71,23.49,23.49,0,0,0,.16-23.05Z"/><path class="cls-2" d="M87.22,16.22A50.08,50.08,0,0,0,27.47,7.9h0a7.84,7.84,0,0,1-3.87,1A7.85,7.85,0,0,1,18,6.61L11.44,0,.39,11l6.84,6.81a23.4,23.4,0,0,0,16.38,6.65,23.37,23.37,0,0,0,11.65-3.09h0A34.37,34.37,0,0,1,81.84,34.85L95.14,26.5A45,45,0,0,0,87.22,16.22Z"/><path class="cls-3" d="M87.24,87.11a50.08,50.08,0,0,0,8.33-59.75h0a7.88,7.88,0,0,1,1.29-9.43l6.61-6.6-11-11L85.61,7.12a23.49,23.49,0,0,0-3.57,28h0A34.37,34.37,0,0,1,68.61,81.74l9,12.91A40.1,40.1,0,0,0,87.24,87.11Z"/><path class="cls-4" d="M96.28,85.37a23.49,23.49,0,0,0-28-3.57h0A34.51,34.51,0,0,1,21.57,68.43h0a23.49,23.49,0,0,1-.16,23.05A50.1,50.1,0,0,0,76,95.33h0a7.88,7.88,0,0,1,9.43,1.29l6.6,6.61,11-11Z"/><path d="M174.92,60.94V85.57H163.69V17.65h20.6q11.7,0,18.14,5.45t6.44,15.35a21.2,21.2,0,0,1-6.73,16.2q-6.73,6.3-18.19,6.3Zm0-34V51.76h7.29q7.25,0,11-3.36T197,38.92q0-12-13.92-12Z"/><path d="M248.38,86.71q-14.68,0-23.52-9.52T216,52.42q0-16.39,9-26.14t24.44-9.76q14.3,0,23,9.47t8.74,24.77q0,16.63-9,26.29T248.38,86.71Zm.52-60.29a18.9,18.9,0,0,0-15.18,7q-5.85,7-5.85,18.33t5.68,18.24a18.33,18.33,0,0,0,14.87,6.92q9.76,0,15.39-6.58t5.64-18.42q0-12.17-5.47-18.8T248.9,26.42Z"/><path d="M341.07,82.73q-7.67,4-19.09,4-14.78,0-23.68-9.33t-8.9-24.49q0-16.29,10-26.33t25.32-10q9.85,0,16.34,2.79V30.49a29.17,29.17,0,0,0-15.16-4.07q-11,0-17.88,7.06t-6.84,18.85q0,11.23,6.39,17.88t16.81,6.65a30.11,30.11,0,0,0,16.67-4.55Z"/><path d="M405.34,85.57H390.66L367,54.5a17.08,17.08,0,0,1-1.61-2.37h-.19V85.57H354V17.65h11.27V49.58h.19A15.58,15.58,0,0,1,367,47.26l22.78-29.6h13.5L376.64,50.24Z"/><path d="M451.33,85.57H413.2V17.65h36.61v9.57H424.48V46.45h23.35V56H424.48V76.05h26.85Z"/><path d="M507.46,27.22H487.94V85.57H476.67V27.22H457.2V17.65h50.25Z"/><path d="M575,85.57H562.68L530.24,35.65a22.1,22.1,0,0,1-2-3.93h-.28a69.94,69.94,0,0,1,.38,9.33V85.57H517.4V17.65h13.12l31.35,48.74q2,3,2.56,4.17h.19a60.34,60.34,0,0,1-.47-9.14V17.65H575Z"/><path d="M629.94,85.57H591.81V17.65h36.61v9.57H603.08V46.45h23.35V56H603.08V76.05h26.85Z"/><path d="M686.06,27.22H666.55V85.57H655.28V27.22H635.81V17.65h50.25Z"/></svg>