<svg width="23" height="25" viewBox="0 0 23 25" fill="none" xmlns="http://www.w3.org/2000/svg">
<mask id="path-1-inside-1_162_19475" fill="white">
<path fill-rule="evenodd" clip-rule="evenodd" d="M0 0.500266C0 0.172643 0.309825 -0.0664529 0.626747 0.0165971L5.06129 1.17868C5.28119 1.2363 5.43454 1.43502 5.43454 1.66235V4.10946C5.43454 4.3856 5.6584 4.60946 5.93454 4.60946H8.08085C8.35699 4.60946 8.58085 4.3856 8.58085 4.10946V1.77649C8.58085 1.50035 8.80471 1.27649 9.08085 1.27649H13.5154C13.7915 1.27649 14.0154 1.50035 14.0154 1.77649V4.10946C14.0154 4.3856 14.2392 4.60946 14.5154 4.60946H16.6617C16.9378 4.60946 17.1617 4.3856 17.1617 4.10946V1.66235C17.1617 1.43502 17.3151 1.2363 17.535 1.17868L21.9695 0.016597C22.2864 -0.066453 22.5962 0.172643 22.5962 0.500266V8.6242H0V0.500266ZM2.28823 10.0483V23.5626C2.28823 23.8388 2.51208 24.0626 2.78823 24.0626H8.5448V21.4414C8.5448 19.8683 9.82001 18.5931 11.3931 18.5931C12.9661 18.5931 14.2413 19.8683 14.2413 21.4414V24.0626H19.808C20.0842 24.0626 20.308 23.8388 20.308 23.5626V10.0483H2.28823Z"/>
</mask>
<path d="M0.626747 0.0165971L1.00699 -1.43441L1.00699 -1.43441L0.626747 0.0165971ZM5.06129 1.17868L5.44153 -0.272328L5.44152 -0.272328L5.06129 1.17868ZM17.535 1.17868L17.1547 -0.272328L17.1547 -0.272328L17.535 1.17868ZM21.9695 0.016597L22.3497 1.4676L22.3497 1.4676L21.9695 0.016597ZM22.5962 8.6242V10.1242H24.0962V8.6242H22.5962ZM0 8.6242H-1.5V10.1242H0V8.6242ZM2.28823 10.0483V8.54833H0.788227V10.0483H2.28823ZM8.5448 24.0626V25.5626H10.0448V24.0626H8.5448ZM14.2413 24.0626H12.7413V25.5626H14.2413V24.0626ZM20.308 10.0483H21.808V8.54833H20.308V10.0483ZM1.00699 -1.43441C-0.260701 -1.76661 -1.5 -0.810225 -1.5 0.500266H1.5C1.5 1.15551 0.88035 1.6337 0.246507 1.4676L1.00699 -1.43441ZM5.44152 -0.272328L1.00699 -1.43441L0.246507 1.4676L4.68105 2.62968L5.44152 -0.272328ZM6.93454 1.66235C6.93454 0.753036 6.32113 -0.0418242 5.44153 -0.272328L4.68105 2.62968C4.24124 2.51443 3.93454 2.117 3.93454 1.66235H6.93454ZM6.93454 4.10946V1.66235H3.93454V4.10946H6.93454ZM5.93454 3.10946C6.48683 3.10946 6.93454 3.55718 6.93454 4.10946H3.93454C3.93454 5.21403 4.82997 6.10946 5.93454 6.10946V3.10946ZM8.08085 3.10946H5.93454V6.10946H8.08085V3.10946ZM7.08085 4.10946C7.08085 3.55718 7.52857 3.10946 8.08085 3.10946V6.10946C9.18542 6.10946 10.0809 5.21403 10.0809 4.10946H7.08085ZM7.08085 1.77649V4.10946H10.0809V1.77649H7.08085ZM9.08085 -0.22351C7.97628 -0.22351 7.08085 0.671922 7.08085 1.77649H10.0809C10.0809 2.32877 9.63314 2.77649 9.08085 2.77649V-0.22351ZM13.5154 -0.22351H9.08085V2.77649H13.5154V-0.22351ZM15.5154 1.77649C15.5154 0.671921 14.62 -0.22351 13.5154 -0.22351V2.77649C12.9631 2.77649 12.5154 2.32877 12.5154 1.77649H15.5154ZM15.5154 4.10946V1.77649H12.5154V4.10946H15.5154ZM14.5154 3.10946C15.0677 3.10946 15.5154 3.55718 15.5154 4.10946H12.5154C12.5154 5.21403 13.4108 6.10946 14.5154 6.10946V3.10946ZM16.6617 3.10946H14.5154V6.10946H16.6617V3.10946ZM15.6617 4.10946C15.6617 3.55718 16.1094 3.10946 16.6617 3.10946V6.10946C17.7663 6.10946 18.6617 5.21403 18.6617 4.10946H15.6617ZM15.6617 1.66235V4.10946H18.6617V1.66235H15.6617ZM17.1547 -0.272328C16.2751 -0.0418234 15.6617 0.753039 15.6617 1.66235H18.6617C18.6617 2.117 18.355 2.51443 17.9152 2.62968L17.1547 -0.272328ZM21.5893 -1.43441L17.1547 -0.272328L17.9152 2.62968L22.3497 1.4676L21.5893 -1.43441ZM24.0962 0.500266C24.0962 -0.810228 22.8569 -1.76661 21.5893 -1.43441L22.3497 1.4676C21.7159 1.6337 21.0962 1.15551 21.0962 0.500266H24.0962ZM24.0962 8.6242V0.500266H21.0962V8.6242H24.0962ZM0 10.1242H22.5962V7.1242H0V10.1242ZM-1.5 0.500266V8.6242H1.5V0.500266H-1.5ZM0.788227 10.0483V23.5626H3.78823V10.0483H0.788227ZM0.788227 23.5626C0.788227 24.6672 1.68366 25.5626 2.78823 25.5626V22.5626C3.34051 22.5626 3.78823 23.0103 3.78823 23.5626H0.788227ZM2.78823 25.5626H8.5448V22.5626H2.78823V25.5626ZM10.0448 24.0626V21.4414H7.0448V24.0626H10.0448ZM10.0448 21.4414C10.0448 20.6968 10.6484 20.0931 11.3931 20.0931V17.0931C8.99158 17.0931 7.0448 19.0399 7.0448 21.4414H10.0448ZM11.3931 20.0931C12.1377 20.0931 12.7413 20.6968 12.7413 21.4414H15.7413C15.7413 19.0399 13.7945 17.0931 11.3931 17.0931V20.0931ZM12.7413 21.4414V24.0626H15.7413V21.4414H12.7413ZM14.2413 25.5626H19.808V22.5626H14.2413V25.5626ZM19.808 25.5626C20.9126 25.5626 21.808 24.6672 21.808 23.5626H18.808C18.808 23.0103 19.2557 22.5626 19.808 22.5626V25.5626ZM21.808 23.5626V10.0483H18.808V23.5626H21.808ZM20.308 8.54833H2.28823V11.5483H20.308V8.54833Z" fill="#F2C94C" mask="url(#path-1-inside-1_162_19475)"/>
</svg>
