<svg width="16" height="18" viewBox="0 0 16 18" fill="none" xmlns="http://www.w3.org/2000/svg">
<mask id="path-1-inside-1_157_17891" fill="white">
<path fill-rule="evenodd" clip-rule="evenodd" d="M0 1.074C0 0.746373 0.309825 0.507277 0.626746 0.590327L3.44278 1.32828C3.66268 1.3859 3.81603 1.58462 3.81603 1.81194V3.26644C3.81603 3.54258 4.03989 3.76644 4.31603 3.76644H5.52532C5.80146 3.76644 6.02532 3.54258 6.02532 3.26644V1.92609C6.02532 1.64994 6.24917 1.42609 6.52532 1.42609H9.34135C9.61749 1.42609 9.84135 1.64995 9.84135 1.92609V3.26644C9.84135 3.54258 10.0652 3.76644 10.3413 3.76644H11.5506C11.8268 3.76644 12.0506 3.54258 12.0506 3.26644V1.81194C12.0506 1.58462 12.204 1.3859 12.4239 1.32828L15.2399 0.590327C15.5568 0.507277 15.8667 0.746373 15.8667 1.074V6.58551H0V1.074ZM1.60024 7.58551C1.60452 7.61185 1.60675 7.63889 1.60675 7.66644V16.9261C1.60675 17.2022 1.83061 17.4261 2.10675 17.4261H6V15.5855C6 14.4809 6.89543 13.5855 8 13.5855C9.10457 13.5855 10 14.4809 10 15.5855V17.4261H13.7599C14.0361 17.4261 14.2599 17.2022 14.2599 16.9261V7.66644C14.2599 7.63889 14.2621 7.61185 14.2664 7.58551H1.60024Z"/>
</mask>
<path d="M0.626746 0.590327L0.880239 -0.37701L0.626746 0.590327ZM3.44278 1.32828L3.69627 0.360938L3.69627 0.360938L3.44278 1.32828ZM12.4239 1.32828L12.6774 2.29561L12.6774 2.29561L12.4239 1.32828ZM15.2399 0.590327L15.4934 1.55766L15.4934 1.55766L15.2399 0.590327ZM15.8667 6.58551V7.58551H16.8667V6.58551H15.8667ZM0 6.58551H-1V7.58551H0V6.58551ZM1.60024 7.58551V6.58551H0.424336L0.613221 7.74614L1.60024 7.58551ZM6 17.4261V18.4261H7V17.4261H6ZM10 17.4261H9V18.4261H10V17.4261ZM14.2664 7.58551L15.2534 7.74613L15.4423 6.58551H14.2664V7.58551ZM0.880239 -0.37701C-0.0705265 -0.62616 -1 0.0911286 -1 1.074H1C1 1.40162 0.690176 1.64071 0.373253 1.55766L0.880239 -0.37701ZM3.69627 0.360938L0.880239 -0.37701L0.373253 1.55766L3.18929 2.29561L3.69627 0.360938ZM4.81603 1.81194C4.81603 1.12996 4.35598 0.533816 3.69627 0.360938L3.18929 2.29561C2.96938 2.23799 2.81603 2.03927 2.81603 1.81194H4.81603ZM4.81603 3.26644V1.81194H2.81603V3.26644H4.81603ZM4.31603 2.76644C4.59218 2.76644 4.81603 2.9903 4.81603 3.26644H2.81603C2.81603 4.09487 3.48761 4.76644 4.31603 4.76644V2.76644ZM5.52532 2.76644H4.31603V4.76644H5.52532V2.76644ZM5.02532 3.26644C5.02532 2.9903 5.24917 2.76644 5.52532 2.76644V4.76644C6.35375 4.76644 7.02532 4.09486 7.02532 3.26644H5.02532ZM5.02532 1.92609V3.26644H7.02532V1.92609H5.02532ZM6.52532 0.426087C5.69689 0.426087 5.02532 1.09766 5.02532 1.92609H7.02532C7.02532 2.20223 6.80146 2.42609 6.52532 2.42609V0.426087ZM9.34135 0.426087H6.52532V2.42609H9.34135V0.426087ZM10.8413 1.92609C10.8413 1.09766 10.1698 0.426087 9.34135 0.426087V2.42609C9.06521 2.42609 8.84135 2.20223 8.84135 1.92609H10.8413ZM10.8413 3.26644V1.92609H8.84135V3.26644H10.8413ZM10.3413 2.76644C10.6175 2.76644 10.8413 2.9903 10.8413 3.26644H8.84135C8.84135 4.09487 9.51292 4.76644 10.3413 4.76644V2.76644ZM11.5506 2.76644H10.3413V4.76644H11.5506V2.76644ZM11.0506 3.26644C11.0506 2.9903 11.2745 2.76644 11.5506 2.76644V4.76644C12.3791 4.76644 13.0506 4.09487 13.0506 3.26644H11.0506ZM11.0506 1.81194V3.26644H13.0506V1.81194H11.0506ZM12.1704 0.360938C11.5107 0.533816 11.0506 1.12996 11.0506 1.81194H13.0506C13.0506 2.03927 12.8973 2.23799 12.6774 2.29561L12.1704 0.360938ZM14.9864 -0.37701L12.1704 0.360938L12.6774 2.29561L15.4934 1.55766L14.9864 -0.37701ZM16.8667 1.074C16.8667 0.0911282 15.9372 -0.62616 14.9864 -0.37701L15.4934 1.55766C15.1765 1.64071 14.8667 1.40162 14.8667 1.074H16.8667ZM16.8667 6.58551V1.074H14.8667V6.58551H16.8667ZM0 7.58551H15.8667V5.58551H0V7.58551ZM-1 1.074V6.58551H1V1.074H-1ZM0.613221 7.74614C0.608898 7.71958 0.606751 7.6929 0.606751 7.66644H2.60675C2.60675 7.58487 2.60015 7.50412 2.58725 7.42488L0.613221 7.74614ZM0.606751 7.66644V16.9261H2.60675V7.66644H0.606751ZM0.606751 16.9261C0.606751 17.7545 1.27832 18.4261 2.10675 18.4261V16.4261C2.38289 16.4261 2.60675 16.6499 2.60675 16.9261H0.606751ZM2.10675 18.4261H6V16.4261H2.10675V18.4261ZM7 17.4261V15.5855H5V17.4261H7ZM7 15.5855C7 15.0332 7.44772 14.5855 8 14.5855V12.5855C6.34315 12.5855 5 13.9287 5 15.5855H7ZM8 14.5855C8.55228 14.5855 9 15.0332 9 15.5855H11C11 13.9287 9.65685 12.5855 8 12.5855V14.5855ZM9 15.5855V17.4261H11V15.5855H9ZM10 18.4261H13.7599V16.4261H10V18.4261ZM13.7599 18.4261C14.5883 18.4261 15.2599 17.7545 15.2599 16.9261H13.2599C13.2599 16.6499 13.4838 16.4261 13.7599 16.4261V18.4261ZM15.2599 16.9261V7.66644H13.2599V16.9261H15.2599ZM15.2599 7.66644C15.2599 7.6929 15.2578 7.71958 15.2534 7.74613L13.2794 7.42489C13.2665 7.50413 13.2599 7.58487 13.2599 7.66644H15.2599ZM14.2664 6.58551H1.60024V8.58551H14.2664V6.58551Z" fill="#C7C8D9" mask="url(#path-1-inside-1_157_17891)"/>
<g clip-path="url(#clip0_157_17891)">
<path fill-rule="evenodd" clip-rule="evenodd" d="M0 1.074C0 0.746373 0.309825 0.507277 0.626746 0.590327L3.44278 1.32828C3.66268 1.3859 3.81603 1.58462 3.81603 1.81194V3.26644C3.81603 3.54258 4.03989 3.76644 4.31603 3.76644H5.52532C5.80146 3.76644 6.02532 3.54258 6.02532 3.26644V1.92609C6.02532 1.64994 6.24917 1.42609 6.52532 1.42609H9.34135C9.61749 1.42609 9.84135 1.64995 9.84135 1.92609V3.26644C9.84135 3.54258 10.0652 3.76644 10.3413 3.76644H11.5506C11.8268 3.76644 12.0506 3.54258 12.0506 3.26644V1.81194C12.0506 1.58462 12.204 1.3859 12.4239 1.32828L15.2399 0.590327C15.5568 0.507277 15.8667 0.746373 15.8667 1.074V6.58527H0V1.074ZM1.6002 7.58527C1.60451 7.61169 1.60675 7.6388 1.60675 7.66644V16.9261C1.60675 17.2022 1.83061 17.4261 2.10675 17.4261H6V15.5853C6 14.4807 6.89543 13.5853 8 13.5853C9.10457 13.5853 10 14.4807 10 15.5853V17.4261H13.7599C14.0361 17.4261 14.2599 17.2022 14.2599 16.9261V7.66644C14.2599 7.6388 14.2622 7.61169 14.2665 7.58527H1.6002Z" fill="#C7C8D9"/>
</g>
<defs>
<clipPath id="clip0_157_17891">
<rect width="8" height="16" fill="white" transform="translate(0 1)"/>
</clipPath>
</defs>
</svg>
