<svg width="23" height="25" viewBox="0 0 23 25" fill="none" xmlns="http://www.w3.org/2000/svg">
<path fill-rule="evenodd" clip-rule="evenodd" d="M0 1.01125C0 0.683629 0.309825 0.444533 0.626747 0.527583L5.06129 1.68966C5.28119 1.74729 5.43454 1.94601 5.43454 2.17333V4.62045C5.43454 4.89659 5.6584 5.12045 5.93454 5.12045H8.08085C8.35699 5.12045 8.58085 4.89659 8.58085 4.62045V2.28748C8.58085 2.01133 8.80471 1.78748 9.08085 1.78748H13.5154C13.7915 1.78748 14.0154 2.01133 14.0154 2.28748V4.62045C14.0154 4.89659 14.2392 5.12045 14.5154 5.12045H16.6617C16.9378 5.12045 17.1617 4.89659 17.1617 4.62045V2.17333C17.1617 1.94601 17.3151 1.74729 17.535 1.68966L21.9695 0.527583C22.2864 0.444533 22.5962 0.683629 22.5962 1.01125V9.13518H0V1.01125ZM2.28823 10.5593V24.0736C2.28823 24.3497 2.51208 24.5736 2.78823 24.5736H8.5448V21.9524C8.5448 20.3793 9.82001 19.1041 11.3931 19.1041C12.9661 19.1041 14.2413 20.3793 14.2413 21.9524V24.5736H19.808C20.0842 24.5736 20.308 24.3497 20.308 24.0736V10.5593H2.28823Z" fill="#F2C94C"/>
</svg>
