<svg width="16" height="18" viewBox="0 0 16 18" fill="none" xmlns="http://www.w3.org/2000/svg">
<path fill-rule="evenodd" clip-rule="evenodd" d="M0 1.074C0 0.746373 0.309825 0.507277 0.626746 0.590327L3.44278 1.32828C3.66268 1.3859 3.81603 1.58462 3.81603 1.81194V3.26644C3.81603 3.54258 4.03989 3.76644 4.31603 3.76644H5.52532C5.80146 3.76644 6.02532 3.54258 6.02532 3.26644V1.92609C6.02532 1.64994 6.24917 1.42609 6.52532 1.42609H9.34135C9.61749 1.42609 9.84135 1.64995 9.84135 1.92609V3.26644C9.84135 3.54258 10.0652 3.76644 10.3413 3.76644H11.5506C11.8268 3.76644 12.0506 3.54258 12.0506 3.26644V1.81194C12.0506 1.58462 12.204 1.3859 12.4239 1.32828L15.2399 0.590327C15.5568 0.507277 15.8667 0.746373 15.8667 1.074V6.58551H0V1.074ZM1.60024 7.58551C1.60452 7.61185 1.60675 7.63889 1.60675 7.66644V16.9261C1.60675 17.2022 1.83061 17.4261 2.10675 17.4261H6V15.5855C6 14.4809 6.89543 13.5855 8 13.5855C9.10457 13.5855 10 14.4809 10 15.5855V17.4261H13.7599C14.0361 17.4261 14.2599 17.2022 14.2599 16.9261V7.66644C14.2599 7.63889 14.2621 7.61185 14.2664 7.58551H1.60024Z" fill="#F2994A"/>
</svg>
