<?xml version="1.0" standalone="no"?>
<!DOCTYPE svg PUBLIC "-//W3C//DTD SVG 20010904//EN"
 "http://www.w3.org/TR/2001/REC-SVG-20010904/DTD/svg10.dtd">
<svg version="1.0" xmlns="http://www.w3.org/2000/svg"
 width="1000.000000pt" height="640.000000pt" viewBox="0 0 1000.000000 640.000000"
 preserveAspectRatio="xMidYMid meet">
<metadata>
Created by potrace 1.15, written by Peter Selinger 2001-2017
</metadata>
<g transform="translate(0.000000,640.000000) scale(0.100000,-0.100000)"
fill="#FFFFFF" stroke="none">
<path d="M115 6391 c10 -17 99 -62 180 -90 229 -81 522 -65 800 46 173 68 118
72 -75 5 -145 -51 -266 -74 -394 -75 -160 -1 -322 36 -433 98 -45 25 -90 34
-78 16z"/>
<path d="M405 6393 c15 -15 119 -33 230 -40 71 -4 132 -1 210 12 140 22 171
39 55 29 -116 -9 -317 -9 -420 0 -56 6 -82 5 -75 -1z"/>
<path d="M1315 6378 c-58 -38 -271 -137 -362 -167 -161 -53 -239 -64 -402 -58
-110 4 -163 11 -216 27 -80 25 -233 99 -281 135 -36 28 -54 32 -54 12 0 -13
10 -20 112 -80 245 -141 540 -164 843 -66 96 32 435 195 435 210 0 16 -44 8
-75 -13z"/>
<path d="M1508 6392 c-6 -15 -244 -156 -368 -218 -391 -194 -718 -193 -1060 5
-81 46 -80 46 -80 27 0 -37 264 -156 414 -187 288 -59 578 20 986 268 160 97
160 97 160 105 0 11 -47 10 -52 0z"/>
<path d="M1695 6386 c-128 -83 -460 -273 -553 -317 -330 -156 -623 -180 -910
-73 -53 20 -101 40 -107 44 -5 4 -36 21 -67 39 -54 30 -58 31 -58 13 0 -16 24
-32 103 -71 275 -135 552 -155 847 -60 130 43 320 137 526 262 77 46 171 101
209 122 39 21 74 42 80 46 15 14 -48 9 -70 -5z"/>
<path d="M1970 6371 c-67 -25 -182 -84 -370 -191 -492 -278 -977 -386 -1333
-296 -80 20 -124 37 -254 93 -7 3 -13 -1 -13 -9 0 -19 111 -70 223 -102 282
-82 615 -47 1001 104 103 40 382 178 506 250 191 110 321 159 430 160 25 0 52
5 60 10 10 7 -15 9 -80 9 -78 -1 -109 -6 -170 -28z"/>
<path d="M2585 6365 c-149 -72 -229 -97 -395 -126 -258 -45 -326 -69 -645
-219 -169 -79 -251 -112 -420 -164 -387 -120 -729 -126 -1038 -18 -74 26 -88
28 -85 15 4 -21 139 -68 270 -94 387 -76 816 10 1373 276 223 106 333 142 545
175 116 19 251 56 321 89 35 16 93 41 129 56 81 34 95 45 50 44 -19 0 -66 -16
-105 -34z"/>
<path d="M2775 6331 c-71 -37 -164 -89 -205 -115 -168 -104 -259 -138 -464
-172 -199 -33 -304 -62 -504 -140 -404 -158 -672 -222 -975 -231 -226 -7 -368
12 -606 83 -17 5 -23 4 -19 -6 9 -28 208 -81 378 -101 128 -14 379 -7 505 15
223 40 454 107 720 211 229 89 315 112 549 150 151 24 260 65 403 151 107 65
250 140 393 207 l35 16 -40 0 c-30 0 -72 -17 -170 -68z"/>
<path d="M3180 6385 c-135 -29 -309 -102 -414 -173 -97 -66 -157 -110 -256
-188 -162 -127 -171 -130 -426 -158 -203 -23 -393 -65 -569 -126 -105 -37
-366 -108 -490 -133 -322 -67 -617 -56 -930 33 -82 23 -95 24 -95 7 0 -8 41
-23 108 -39 489 -123 726 -104 1445 116 253 77 309 89 602 122 191 21 225 37
438 207 208 166 384 256 580 299 82 17 134 22 262 22 147 -1 167 -3 243 -28
96 -31 160 -65 215 -112 81 -68 112 -134 153 -319 68 -310 200 -516 502 -784
103 -92 197 -159 272 -195 56 -27 76 -31 145 -31 68 0 88 5 134 29 64 33 125
92 207 201 81 107 196 214 265 247 116 56 267 60 709 18 160 -16 262 -20 355
-17 282 12 396 78 950 552 277 236 476 368 670 441 l50 19 -37 3 c-67 6 -306
-125 -486 -265 -80 -62 -270 -219 -282 -233 -3 -3 -32 -28 -65 -55 -33 -28
-62 -52 -65 -55 -30 -31 -216 -175 -293 -227 -234 -158 -366 -177 -872 -128
-578 56 -673 27 -920 -280 -104 -129 -150 -174 -210 -201 -150 -71 -326 16
-618 303 -220 217 -311 372 -381 655 -24 95 -54 196 -67 223 -50 107 -180 199
-346 245 -61 17 -101 20 -250 19 -98 -1 -203 -7 -233 -14z"/>
<path d="M3860 6396 c0 -3 24 -16 53 -29 73 -34 151 -117 192 -202 18 -38 47
-126 65 -195 84 -328 186 -530 348 -688 96 -95 165 -145 260 -190 73 -35 82
-37 178 -37 99 0 101 1 156 37 30 20 80 65 111 100 30 35 88 101 129 148 177
202 268 224 728 175 312 -33 553 -38 648 -12 139 37 285 130 504 318 163 141
298 257 323 278 91 74 267 190 385 254 72 39 80 47 47 47 -44 0 -253 -127
-417 -255 -79 -61 -82 -64 -245 -206 -297 -260 -440 -360 -586 -407 -83 -26
-361 -22 -668 12 -280 30 -331 31 -434 12 -139 -27 -206 -75 -367 -265 -122
-145 -143 -164 -205 -193 -62 -28 -149 -29 -223 -4 -73 25 -222 125 -296 199
-55 55 -156 178 -156 190 0 3 -16 31 -35 63 -32 53 -43 78 -96 219 -11 28 -35
109 -54 180 -52 197 -79 263 -138 338 -41 52 -138 117 -176 117 -17 0 -31 -2
-31 -4z"/>
<path d="M4131 6344 c59 -81 102 -180 179 -413 80 -246 114 -327 176 -424 143
-222 425 -374 552 -297 18 11 65 55 104 97 229 246 318 299 547 325 91 10 136
9 297 -6 255 -24 518 -31 637 -17 188 22 267 69 491 294 236 236 382 348 586
450 71 35 81 43 58 45 -16 2 -58 -14 -114 -43 -193 -102 -338 -217 -574 -454
-235 -235 -289 -260 -583 -268 -127 -4 -236 0 -385 13 -377 34 -514 22 -681
-61 -88 -45 -157 -104 -306 -264 -32 -35 -73 -72 -89 -82 -114 -70 -374 71
-512 276 -61 91 -89 156 -176 418 -99 301 -182 467 -232 467 -13 0 -6 -14 25
-56z"/>
<path d="M4230 6394 c0 -4 13 -28 28 -53 43 -70 93 -187 170 -396 123 -338
200 -460 335 -531 63 -33 81 -38 142 -39 62 0 77 4 132 35 38 21 109 81 182
152 250 245 340 268 736 189 393 -77 572 -74 750 16 101 51 158 97 355 286
131 126 304 277 355 310 19 12 35 25 35 30 0 9 -47 9 -52 -1 -1 -4 -25 -25
-53 -47 -73 -58 -223 -192 -360 -323 -249 -238 -371 -296 -610 -295 -137 1
-210 10 -455 60 -150 30 -189 34 -275 31 -172 -8 -261 -55 -445 -233 -156
-152 -201 -180 -290 -180 -194 0 -318 153 -466 577 -79 229 -170 418 -201 418
-7 0 -13 -3 -13 -6z"/>
<path d="M4360 6397 c0 -2 16 -37 36 -78 20 -41 52 -112 71 -159 102 -247 172
-368 274 -468 106 -105 203 -131 290 -80 24 15 99 83 165 151 99 101 134 131
190 158 66 33 73 34 179 34 105 -1 118 -3 266 -52 218 -71 299 -87 449 -87
254 0 390 69 733 376 87 78 174 153 193 167 37 29 42 41 17 41 -10 0 -76 -52
-148 -116 -353 -313 -424 -362 -590 -413 -181 -56 -376 -36 -688 71 -114 39
-129 42 -232 43 -108 0 -113 -1 -187 -38 -64 -31 -98 -59 -216 -176 -147 -147
-184 -170 -249 -155 -123 29 -277 214 -378 456 -77 186 -147 328 -162 328 -7
0 -13 -2 -13 -3z"/>
<path d="M4480 6394 c0 -11 182 -328 223 -389 61 -89 114 -143 165 -165 112
-50 180 -11 384 221 74 85 146 129 209 129 37 0 83 -21 270 -123 112 -61 206
-93 334 -112 301 -45 503 15 755 223 115 96 234 217 216 220 -9 2 -60 -38
-123 -97 -250 -233 -408 -316 -624 -328 -231 -14 -428 41 -659 181 -85 52
-171 73 -229 57 -54 -16 -133 -83 -226 -190 -90 -105 -153 -157 -204 -167
-116 -23 -197 64 -401 431 -12 22 -31 57 -43 78 -11 20 -27 37 -34 37 -7 0
-13 -3 -13 -6z"/>
<path d="M4630 6392 c0 -5 25 -42 55 -83 119 -159 189 -209 264 -189 44 11 75
34 208 154 48 43 108 89 133 102 l45 23 -34 1 c-39 0 -96 -40 -216 -154 -38
-36 -90 -75 -113 -87 -38 -19 -49 -20 -81 -10 -45 13 -121 88 -189 183 -41 60
-72 85 -72 60z"/>
<path d="M5455 6390 c3 -5 13 -10 21 -10 9 0 82 -43 162 -96 181 -119 278
-169 379 -194 250 -63 546 36 863 290 l25 20 -24 0 c-13 0 -42 -15 -65 -33
-202 -163 -447 -267 -626 -267 -164 0 -306 53 -500 185 -63 43 -130 86 -148
97 -35 19 -98 25 -87 8z"/>
<path d="M5766 6391 c22 -22 165 -92 234 -115 217 -72 407 -48 615 77 54 32
65 43 49 45 -12 2 -44 -10 -70 -27 -135 -82 -298 -121 -437 -103 -100 13 -154
30 -273 88 -84 41 -142 58 -118 35z"/>
<path d="M8960 6396 c0 -2 30 -21 68 -42 87 -49 200 -158 267 -260 46 -69 235
-408 235 -421 0 -8 83 -146 109 -183 58 -80 128 -154 185 -194 69 -49 138 -86
161 -86 30 0 14 19 -37 43 -114 52 -230 163 -320 307 -19 30 -64 109 -98 175
-163 309 -236 427 -318 511 -86 89 -182 154 -227 154 -14 0 -25 -2 -25 -4z"/>
<path d="M9191 6393 c0 -5 24 -28 53 -53 96 -84 199 -228 302 -425 143 -271
277 -450 394 -525 53 -34 60 -36 60 -15 0 8 -13 21 -30 30 -50 26 -158 134
-214 214 -48 68 -138 221 -219 371 -96 179 -282 410 -329 410 -10 0 -18 -3
-17 -7z"/>
<path d="M9330 6397 c0 -1 25 -29 56 -62 77 -82 156 -186 255 -340 134 -209
198 -295 278 -375 55 -55 75 -71 78 -58 3 10 -16 35 -48 65 -63 58 -152 174
-221 286 -166 270 -335 487 -379 487 -11 0 -19 -1 -19 -3z"/>
<path d="M9490 6394 c0 -3 25 -34 56 -67 31 -34 86 -102 123 -152 206 -275
244 -324 281 -362 45 -47 50 -50 50 -28 0 8 -22 39 -49 67 -27 29 -96 118
-153 198 -154 217 -266 350 -293 350 -8 0 -15 -3 -15 -6z"/>
<path d="M9665 6358 c22 -23 47 -49 55 -58 9 -8 68 -76 131 -150 133 -154 149
-171 149 -146 0 9 -45 69 -101 134 -187 218 -230 262 -252 262 -19 0 -16 -5
18 -42z"/>
<path d="M9880 6300 c58 -55 108 -100 113 -100 4 0 7 6 7 14 0 22 -182 186
-205 185 -15 0 8 -27 85 -99z"/>
<path d="M9980 6390 c0 -5 5 -10 10 -10 6 0 10 5 10 10 0 6 -4 10 -10 10 -5 0
-10 -4 -10 -10z"/>
<path d="M8465 6356 c-134 -26 -338 -115 -419 -183 -15 -13 -41 -30 -57 -39
-27 -13 -221 -169 -299 -239 -19 -18 -62 -56 -95 -86 -212 -191 -380 -313
-545 -397 -181 -91 -230 -104 -435 -109 -145 -4 -200 -1 -375 22 -252 33 -446
42 -532 25 -81 -15 -180 -66 -245 -124 -28 -26 -96 -106 -151 -179 -147 -196
-212 -247 -314 -247 -96 0 -185 47 -374 195 -501 392 -636 561 -673 840 -24
177 -55 248 -144 333 -113 106 -253 146 -457 129 -182 -14 -345 -60 -476 -133
-98 -55 -167 -109 -297 -235 -203 -195 -242 -212 -527 -229 -258 -15 -372 -37
-735 -140 -306 -86 -505 -117 -685 -105 -98 7 -326 40 -508 75 -122 24 -122
24 -122 7 0 -10 59 -24 203 -50 525 -95 630 -89 1198 69 312 86 391 100 739
123 216 15 261 37 465 236 186 181 320 265 496 313 181 49 432 55 538 14 124
-48 215 -140 250 -250 11 -37 27 -112 35 -168 33 -224 119 -366 346 -573 214
-194 461 -384 565 -435 138 -69 247 -57 351 38 30 28 102 112 158 186 136 180
225 251 353 281 77 18 253 12 468 -16 261 -35 500 -43 612 -22 233 44 478 189
796 469 233 206 244 216 357 304 151 118 295 200 432 245 121 39 295 50 402
25 151 -36 267 -108 360 -224 77 -97 111 -153 236 -387 61 -115 136 -246 166
-291 65 -99 209 -238 289 -280 67 -36 171 -71 181 -61 10 10 -6 27 -25 27 -21
0 -174 73 -210 101 -122 93 -247 263 -376 514 -99 191 -116 221 -188 328 -103
152 -236 252 -392 293 -83 22 -254 27 -340 10z"/>
<path d="M8495 6219 c-166 -20 -370 -132 -555 -300 -30 -28 -107 -101 -170
-163 -349 -340 -615 -490 -953 -540 -145 -22 -279 -20 -592 9 -396 37 -507 33
-620 -19 -78 -36 -129 -87 -221 -227 -99 -150 -160 -220 -223 -257 -63 -37
-166 -37 -262 0 -109 43 -290 161 -430 282 -19 17 -46 40 -60 51 -473 395
-554 494 -586 717 -18 130 -52 204 -133 287 -43 45 -82 72 -137 99 -69 33 -88
37 -174 40 -119 5 -220 -18 -341 -78 -84 -42 -192 -108 -237 -145 -81 -66
-180 -155 -253 -226 -91 -89 -174 -156 -228 -184 -49 -26 -173 -30 -292 -11
-192 31 -325 15 -678 -86 -547 -156 -724 -168 -1190 -83 -157 29 -160 29 -160
12 0 -13 91 -32 330 -67 344 -51 510 -34 985 100 376 105 536 127 713 96 106
-18 200 -20 254 -5 61 16 168 96 295 218 468 454 832 555 1088 303 84 -81 109
-134 129 -267 33 -221 102 -318 431 -600 441 -378 569 -464 746 -501 169 -35
266 27 424 271 89 137 152 202 232 242 54 26 68 28 198 31 98 3 206 -3 360
-19 297 -31 570 -32 705 -1 340 75 564 213 945 582 252 244 409 350 585 396
79 21 238 24 295 5 223 -74 367 -222 530 -543 201 -396 387 -583 655 -657 88
-25 100 -26 100 -7 0 8 -16 16 -41 20 -69 11 -196 65 -273 117 -145 97 -276
264 -406 519 -76 150 -127 234 -193 317 -161 206 -367 301 -592 272z"/>
<path d="M8340 6056 c-126 -35 -232 -113 -410 -300 -322 -339 -406 -408 -641
-527 -198 -100 -371 -141 -594 -141 -144 0 -210 7 -520 52 -77 11 -196 23
-265 27 -231 11 -308 -27 -451 -222 -143 -193 -168 -223 -243 -279 -90 -69
-156 -90 -239 -76 -115 18 -210 80 -500 325 -161 136 -221 184 -402 316 -229
169 -279 226 -380 437 -115 240 -146 287 -225 340 -108 73 -235 68 -409 -14
-136 -64 -209 -121 -407 -320 -171 -172 -198 -195 -269 -230 l-79 -39 -251 3
c-338 4 -474 -12 -890 -107 -361 -82 -496 -101 -713 -101 -132 0 -355 18 -429
35 -16 4 -23 1 -23 -9 0 -9 13 -17 33 -20 17 -3 66 -11 107 -18 44 -7 170 -12
305 -13 255 0 301 6 619 76 563 124 555 123 926 124 298 2 318 3 370 23 84 33
176 109 327 269 152 159 234 225 363 290 144 71 263 91 352 57 56 -22 149
-113 181 -178 14 -28 55 -112 90 -186 111 -231 182 -306 521 -540 34 -23 224
-178 307 -250 180 -156 271 -222 369 -268 46 -22 69 -26 145 -27 80 0 96 3
148 29 77 39 181 144 285 289 103 142 160 202 221 230 73 34 301 30 581 -11
118 -17 269 -36 335 -41 256 -22 491 28 741 155 201 103 321 197 499 390 178
194 275 286 357 341 111 74 174 96 278 96 167 0 303 -58 438 -187 92 -88 158
-177 251 -340 140 -244 279 -408 438 -517 87 -60 248 -122 376 -143 28 -5 37
-4 37 7 0 10 -26 19 -81 30 -306 62 -541 267 -759 662 -193 348 -422 517 -700
514 -41 0 -95 -6 -120 -13z"/>
<path d="M3135 5891 c-131 -33 -257 -134 -485 -391 -214 -240 -242 -254 -483
-226 -413 46 -508 45 -722 -10 -55 -14 -122 -31 -150 -38 -27 -7 -120 -34
-205 -59 -212 -62 -373 -104 -510 -130 -98 -19 -149 -22 -348 -22 -127 0 -232
-3 -232 -6 0 -13 48 -20 186 -26 250 -11 489 31 929 162 345 103 447 124 625
132 92 4 168 0 290 -15 277 -34 294 -35 354 -18 75 22 148 81 267 216 235 266
377 380 493 398 133 21 222 -36 351 -221 156 -227 224 -291 495 -472 190 -127
256 -176 408 -308 278 -241 374 -312 501 -370 56 -26 79 -31 146 -31 93 -1
136 14 233 81 75 53 120 112 198 257 98 182 178 236 351 236 91 0 192 -14 448
-61 496 -90 702 -78 995 62 280 134 429 254 648 524 151 186 250 264 363 285
43 8 76 6 169 -10 319 -57 399 -111 613 -421 117 -169 148 -209 252 -317 171
-180 340 -276 566 -322 116 -24 119 -24 119 -6 0 9 -17 16 -49 20 -217 29
-434 141 -597 308 -99 102 -161 180 -293 368 -108 155 -141 194 -212 252 -106
87 -316 150 -504 152 -102 1 -114 -1 -170 -28 -71 -35 -202 -161 -317 -306
-146 -183 -246 -272 -435 -385 -221 -133 -400 -192 -613 -202 -151 -7 -251 4
-584 63 -390 70 -509 70 -618 -2 -63 -42 -102 -93 -165 -212 -62 -119 -112
-182 -184 -232 -121 -85 -211 -100 -327 -53 -117 46 -242 134 -442 308 -197
173 -270 229 -444 346 -93 63 -178 121 -190 129 -123 84 -231 202 -351 385
-106 159 -252 245 -370 216z"/>
<path d="M8150 5678 c-47 -23 -143 -113 -220 -207 -192 -232 -241 -279 -405
-390 -320 -216 -512 -294 -751 -308 -170 -9 -296 13 -534 96 -192 66 -282 85
-400 85 -86 0 -114 -4 -152 -21 -81 -38 -147 -116 -229 -273 -57 -110 -148
-203 -244 -250 -63 -31 -78 -35 -155 -35 -68 0 -96 5 -140 24 -115 50 -261
163 -455 350 -151 146 -246 214 -590 424 -226 138 -310 198 -458 331 -151 135
-207 167 -297 174 -128 9 -199 -41 -439 -308 -110 -123 -198 -201 -261 -233
-62 -31 -179 -29 -317 6 -164 42 -259 57 -353 57 -211 0 -368 -39 -1025 -255
-110 -36 -267 -85 -350 -108 -136 -38 -160 -42 -263 -42 -80 0 -112 -3 -112
-12 0 -17 97 -27 177 -18 85 9 259 58 623 176 411 132 463 148 588 180 240 60
406 65 607 19 280 -65 349 -69 440 -25 67 33 176 130 275 245 111 129 222 236
271 260 129 66 233 33 409 -131 124 -115 315 -254 490 -354 256 -148 414 -261
564 -403 262 -249 386 -339 520 -377 185 -54 401 66 515 285 114 220 184 280
336 288 99 5 203 -15 380 -73 344 -114 498 -136 695 -101 195 35 442 154 705
340 116 81 165 130 325 321 157 188 237 255 306 255 17 0 62 -13 100 -28 89
-37 105 -41 227 -52 75 -7 116 -17 155 -36 64 -31 158 -123 272 -264 114 -143
327 -353 427 -423 114 -80 252 -143 386 -176 142 -36 207 -44 207 -25 0 15 -5
16 -120 34 -316 51 -567 227 -894 628 -184 226 -260 277 -437 292 -113 9 -133
14 -226 54 -76 32 -114 33 -173 4z"/>
<path d="M8127 5505 c-53 -14 -105 -58 -165 -140 -144 -200 -238 -281 -530
-456 -431 -260 -773 -360 -1035 -304 -92 19 -155 49 -278 133 -160 108 -258
126 -379 70 -73 -33 -142 -98 -246 -227 -171 -213 -267 -290 -384 -304 -142
-18 -308 75 -575 324 -287 266 -415 351 -950 627 -452 232 -475 241 -576 215
-70 -18 -121 -59 -220 -178 -119 -141 -174 -191 -255 -231 -63 -32 -83 -36
-170 -41 -85 -4 -121 0 -254 27 -374 77 -462 84 -664 49 -223 -38 -431 -116
-796 -299 -298 -149 -414 -186 -569 -179 -56 3 -81 1 -81 -7 0 -24 111 -31
219 -14 104 17 214 61 456 182 338 168 502 232 716 279 86 20 132 23 264 23
148 -1 175 -4 358 -42 239 -50 322 -58 413 -43 134 23 226 89 376 269 138 165
171 186 283 180 55 -2 84 -10 130 -34 33 -17 164 -84 290 -149 254 -130 446
-231 514 -271 135 -78 287 -195 486 -374 243 -219 323 -277 435 -317 72 -25
169 -30 235 -12 84 23 195 121 335 295 85 107 181 197 238 226 37 18 63 23
127 23 75 0 84 -3 145 -38 36 -21 100 -62 142 -91 239 -165 560 -152 966 40
141 66 252 129 457 258 168 106 277 201 345 301 57 85 142 176 184 197 49 25
93 20 193 -22 44 -19 105 -34 155 -41 46 -5 106 -16 133 -24 64 -19 158 -80
232 -153 481 -472 737 -625 1111 -667 49 -6 62 -4 62 7 0 10 -27 17 -97 27
-319 42 -563 183 -928 531 -265 253 -304 278 -482 304 -65 9 -142 27 -185 44
-96 38 -124 42 -181 27z"/>
<path d="M8080 5318 c-28 -13 -103 -81 -195 -173 l-150 -151 -240 -144 c-535
-319 -877 -459 -1130 -462 -146 -1 -192 20 -307 145 -50 54 -103 104 -119 112
-37 19 -127 19 -195 -1 -73 -21 -145 -78 -299 -234 -193 -196 -252 -231 -384
-231 -115 0 -185 31 -331 147 -36 29 -81 68 -100 89 -42 44 -295 274 -365 332
-93 76 -289 196 -430 264 -238 114 -471 184 -655 196 -167 11 -251 -27 -350
-157 -82 -107 -128 -144 -206 -166 -94 -25 -261 -14 -479 31 -320 67 -523 81
-715 50 -235 -38 -406 -117 -780 -359 -294 -190 -370 -221 -538 -221 -79 0
-112 -3 -112 -12 0 -19 126 -28 204 -14 130 22 217 66 544 274 100 65 184 117
187 117 2 0 27 14 56 31 82 48 231 108 337 135 74 20 133 27 247 31 171 6 292
-5 500 -47 244 -49 352 -63 450 -57 157 9 212 41 329 191 41 53 83 94 113 112
46 28 54 29 168 29 319 0 736 -168 1100 -443 102 -78 149 -119 376 -338 203
-194 361 -271 504 -245 104 19 166 62 350 242 180 175 233 214 323 235 102 24
141 6 252 -116 109 -118 157 -143 290 -148 153 -6 319 33 550 130 151 64 468
230 552 289 14 11 28 19 31 19 10 0 219 129 280 174 34 24 115 98 179 165 121
126 182 171 231 171 16 0 72 -18 125 -39 54 -21 144 -51 202 -66 140 -36 244
-87 365 -179 514 -392 695 -491 984 -540 122 -21 171 -21 171 -1 0 11 -12 15
-44 15 -64 0 -246 37 -329 67 -156 56 -368 179 -562 328 -336 258 -366 276
-558 331 -67 19 -162 50 -212 69 -125 47 -159 51 -215 23z"/>
<path d="M8025 5125 c-22 -15 -107 -76 -190 -135 -82 -59 -233 -156 -335 -215
-102 -60 -201 -118 -220 -130 -34 -22 -100 -59 -210 -118 -129 -70 -312 -183
-400 -248 -148 -108 -181 -129 -239 -146 -115 -33 -193 -3 -381 147 -162 129
-221 160 -310 160 -97 0 -163 -37 -308 -174 -126 -118 -212 -180 -276 -197
-71 -19 -182 -7 -256 29 -95 46 -160 99 -347 283 -204 200 -294 277 -421 362
-419 281 -802 352 -1108 207 -37 -18 -91 -58 -140 -104 -43 -42 -104 -88 -134
-103 -48 -24 -65 -27 -145 -26 -76 1 -129 11 -330 63 -349 91 -399 100 -580
106 -194 7 -295 -10 -462 -78 -165 -68 -242 -118 -644 -424 -224 -171 -362
-220 -541 -190 -39 6 -48 4 -48 -7 0 -18 49 -27 145 -27 173 0 280 56 625 325
159 124 294 213 405 266 191 92 305 114 532 106 171 -6 237 -19 588 -112 145
-38 202 -48 292 -52 151 -8 180 4 295 114 142 136 275 188 483 187 197 -1 392
-62 617 -192 200 -116 311 -205 538 -430 198 -197 263 -250 370 -301 71 -34
81 -36 175 -36 89 0 106 3 151 27 64 34 132 88 257 204 55 51 124 105 152 119
70 34 155 34 224 1 42 -20 227 -155 283 -206 10 -9 48 -31 85 -50 58 -30 78
-35 138 -35 89 0 150 28 278 123 125 94 237 166 397 255 213 118 227 125 380
215 80 47 170 100 200 117 74 42 102 61 295 199 l167 119 61 -6 c132 -11 569
-195 795 -334 378 -234 610 -338 848 -382 160 -29 224 -34 224 -18 0 9 -38 18
-127 30 -267 37 -494 129 -833 336 -320 196 -747 382 -912 397 -57 6 -67 4
-103 -21z"/>
<path d="M8060 4976 c-86 -25 -371 -175 -605 -321 -55 -34 -178 -108 -273
-165 -262 -154 -301 -187 -587 -487 -115 -122 -195 -154 -307 -123 -47 13
-156 87 -288 195 -58 48 -137 102 -177 122 -67 33 -76 35 -150 32 -90 -5 -120
-17 -318 -139 -204 -126 -301 -155 -416 -125 -116 29 -193 88 -429 328 -297
302 -406 390 -593 477 -124 58 -215 80 -354 87 -237 12 -399 -37 -594 -179
-99 -71 -141 -88 -229 -88 -96 0 -197 18 -445 80 -239 59 -326 74 -506 91
-291 26 -545 -33 -769 -179 -63 -41 -138 -109 -295 -267 -214 -217 -277 -268
-375 -301 -68 -23 -202 -23 -279 0 -66 19 -71 20 -71 3 0 -22 68 -38 186 -44
205 -10 261 22 554 317 227 228 291 279 445 351 175 82 382 112 620 91 146
-13 339 -48 475 -86 216 -61 399 -92 490 -83 75 6 151 41 244 111 157 118 304
161 531 153 99 -4 159 -11 205 -25 252 -76 394 -178 751 -539 148 -149 246
-240 284 -262 186 -112 341 -94 589 66 38 24 106 65 152 90 77 41 90 45 155
45 90 0 159 -32 274 -127 241 -198 296 -229 405 -230 97 0 151 26 236 115 34
36 108 114 165 173 132 138 236 217 474 358 105 61 222 131 260 155 294 180
529 299 611 310 75 9 166 -21 344 -113 652 -339 932 -452 1287 -522 132 -26
263 -38 263 -23 0 6 -15 13 -32 16 -282 42 -312 48 -479 96 -99 29 -245 83
-384 140 -44 19 -251 120 -460 225 -436 219 -473 232 -585 201z"/>
<path d="M8055 4833 c-93 -22 -344 -127 -547 -229 -210 -105 -433 -260 -550
-380 -69 -72 -101 -114 -204 -268 -85 -129 -175 -232 -231 -267 -126 -78 -317
-7 -642 240 -43 33 -108 76 -143 96 -88 48 -122 47 -218 -8 -196 -111 -301
-148 -445 -154 -224 -10 -335 57 -647 393 -161 172 -218 226 -316 301 -159
119 -364 170 -586 145 -180 -20 -274 -48 -445 -132 -204 -101 -217 -105 -331
-103 -102 1 -270 40 -510 117 -300 97 -480 123 -663 95 -275 -41 -439 -137
-702 -410 -281 -292 -371 -364 -517 -413 -108 -37 -231 -33 -340 9 -12 5 -18
2 -18 -8 0 -29 95 -52 210 -51 93 1 114 5 186 33 142 55 216 117 539 449 192
198 336 291 533 344 61 16 109 21 237 22 210 1 218 0 685 -144 204 -63 333
-83 440 -69 63 8 99 22 230 88 85 43 178 85 205 94 156 51 398 70 533 42 214
-43 347 -141 678 -499 233 -253 374 -336 572 -336 131 0 299 54 464 150 83 48
133 59 180 39 18 -7 105 -65 193 -128 285 -205 375 -250 507 -259 65 -4 83 -1
122 18 79 38 166 139 315 365 111 168 232 283 438 419 134 87 247 146 478 249
275 122 303 130 422 125 87 -4 107 -8 176 -41 43 -20 99 -50 125 -68 386 -263
807 -425 1277 -493 183 -26 255 -30 255 -14 0 12 -19 17 -82 22 -118 9 -363
51 -503 85 -294 72 -632 224 -895 401 -78 53 -193 110 -253 126 -50 13 -169
17 -212 7z"/>
<path d="M8040 4703 c-161 -28 -391 -103 -522 -169 -169 -85 -379 -259 -489
-404 -28 -36 -92 -152 -145 -259 -157 -319 -209 -378 -350 -396 -96 -12 -280
56 -492 181 -121 72 -281 150 -357 174 -91 28 -167 27 -287 -4 -54 -15 -141
-37 -194 -51 -125 -32 -244 -34 -340 -4 -143 44 -249 122 -450 333 -241 253
-366 348 -531 405 -211 71 -496 30 -938 -134 -166 -62 -222 -55 -628 74 -301
97 -438 125 -607 124 -290 -2 -514 -128 -770 -433 -189 -224 -263 -299 -357
-361 -111 -72 -155 -84 -308 -84 -103 0 -145 5 -203 22 -58 17 -72 19 -72 8 0
-32 196 -70 324 -62 201 11 337 103 581 392 114 136 233 258 303 313 177 138
376 194 605 173 132 -13 261 -44 537 -130 340 -105 339 -104 420 -104 66 0 92
6 210 50 264 99 445 142 627 150 158 7 227 -4 333 -53 135 -62 206 -120 435
-350 277 -279 361 -337 540 -374 80 -17 206 -7 325 25 52 14 128 35 169 45 90
24 203 26 268 4 73 -24 216 -93 336 -163 247 -142 372 -191 489 -191 183 2
249 71 421 442 79 169 156 274 292 397 238 216 602 373 900 388 141 7 180 -5
343 -102 9 -5 53 -37 97 -70 119 -89 189 -133 300 -188 269 -134 628 -220
1058 -253 76 -6 87 -4 87 10 0 9 -8 16 -17 16 -10 0 -72 5 -138 10 -491 41
-909 168 -1175 359 -235 168 -324 220 -411 240 -43 10 -170 12 -219 4z"/>
<path d="M7980 4590 c-95 -13 -200 -42 -335 -95 -179 -70 -283 -135 -382 -237
-112 -117 -175 -232 -253 -458 -69 -201 -122 -304 -194 -375 -103 -102 -198
-131 -337 -101 -86 18 -125 35 -389 164 -385 188 -546 216 -799 142 -112 -32
-181 -37 -291 -20 -98 16 -216 55 -303 99 -134 70 -210 134 -457 387 -230 234
-355 294 -618 294 -173 0 -314 -26 -565 -105 -151 -48 -252 -60 -378 -45 -127
14 -166 25 -439 115 -267 87 -346 105 -477 105 -190 0 -340 -60 -508 -203
-114 -97 -121 -104 -235 -247 -129 -161 -290 -316 -384 -369 -187 -106 -369
-117 -593 -37 -40 14 -43 14 -43 -2 0 -35 255 -89 366 -78 242 25 401 134 674
466 123 149 180 208 279 284 143 110 274 156 444 156 137 0 222 -18 452 -96
247 -84 355 -113 468 -123 147 -14 207 -5 441 64 230 69 338 88 496 88 279 0
384 -58 700 -387 209 -218 356 -313 577 -373 149 -40 282 -39 427 5 231 69
387 35 811 -173 272 -133 292 -140 430 -140 102 0 114 2 168 30 34 17 80 52
108 83 79 87 121 170 214 432 86 240 158 351 303 467 125 100 362 202 561 243
257 52 382 8 771 -274 58 -42 146 -96 195 -121 206 -103 506 -171 900 -205
172 -14 215 -13 215 5 0 12 -13 15 -59 15 -146 0 -506 45 -676 85 -246 58
-383 119 -569 252 -233 168 -320 220 -426 256 -86 29 -195 39 -290 27z"/>
<path d="M7820 4455 c-214 -41 -367 -136 -501 -313 -73 -95 -122 -196 -158
-325 -91 -325 -134 -421 -225 -512 -34 -33 -81 -70 -106 -82 -145 -72 -363
-39 -655 97 -400 187 -520 213 -854 184 -340 -29 -473 -13 -651 76 -108 54
-200 127 -373 297 -247 241 -356 317 -522 365 -68 19 -102 23 -220 22 -156 -2
-234 -15 -409 -71 -205 -66 -253 -76 -376 -77 -163 -1 -244 17 -536 122 -226
81 -290 95 -434 96 -106 1 -136 -3 -199 -23 -149 -49 -292 -166 -459 -376
-226 -284 -411 -424 -630 -476 -73 -18 -107 -20 -207 -16 -66 3 -151 13 -190
22 -38 9 -80 19 -92 22 -16 4 -23 1 -23 -9 0 -11 30 -22 103 -39 84 -20 127
-24 242 -23 129 1 147 3 235 32 206 68 357 188 569 452 247 306 409 409 643
410 113 0 202 -20 450 -104 262 -88 314 -102 430 -115 113 -13 238 1 366 40
217 67 262 79 357 95 117 19 277 14 370 -11 168 -45 277 -123 504 -359 169
-175 336 -293 494 -347 157 -54 251 -59 552 -32 302 27 433 4 724 -128 196
-89 340 -146 413 -165 219 -57 390 -23 506 100 89 94 137 198 208 449 69 243
132 363 252 484 139 140 280 200 518 223 114 10 271 1 348 -21 87 -24 242
-116 357 -212 222 -183 329 -242 551 -307 178 -51 392 -82 676 -96 113 -6 132
-5 132 8 0 12 -26 16 -142 22 -397 19 -675 75 -885 179 -89 44 -140 78 -266
179 -191 152 -279 208 -397 248 -55 19 -91 23 -240 26 -123 2 -197 -1 -250
-11z"/>
<path d="M7858 4344 c-338 -52 -469 -205 -597 -697 -81 -308 -159 -436 -316
-512 -122 -60 -301 -65 -500 -14 -106 26 -139 39 -340 127 -367 160 -446 172
-880 127 -180 -18 -359 -12 -470 16 -110 29 -275 118 -355 191 -14 13 -46 41
-70 62 -25 22 -103 96 -175 165 -166 159 -258 232 -348 275 -180 87 -343 87
-617 0 -245 -77 -329 -96 -440 -97 -152 -3 -187 5 -464 98 -276 93 -401 120
-511 112 -181 -13 -311 -107 -575 -412 -223 -259 -423 -394 -651 -440 -119
-25 -308 -16 -442 19 -114 30 -107 30 -107 12 0 -15 5 -17 140 -48 136 -32
351 -32 465 0 226 64 423 206 640 462 292 344 435 417 712 365 76 -14 127 -30
398 -125 165 -57 242 -72 365 -73 126 -1 205 15 441 87 219 67 291 80 410 74
195 -11 306 -79 614 -378 248 -239 382 -327 572 -376 81 -20 119 -24 252 -24
86 0 197 5 246 11 50 6 162 11 250 12 233 2 326 -20 580 -138 260 -120 429
-165 624 -165 174 0 275 37 369 133 102 106 148 212 247 572 83 302 210 465
410 527 136 42 404 51 525 17 141 -39 217 -86 440 -274 296 -249 362 -277 780
-329 70 -9 430 -36 478 -36 28 0 42 4 42 13 0 11 -34 16 -146 21 -244 11 -553
48 -693 83 -143 35 -194 67 -496 311 -208 168 -300 222 -420 247 -86 18 -269
18 -387 -1z"/>
<path d="M7945 4273 c-69 -16 -203 -77 -272 -123 -77 -53 -159 -143 -196 -217
-49 -97 -72 -175 -112 -372 -49 -245 -75 -310 -159 -399 -86 -92 -195 -133
-400 -153 -198 -20 -391 8 -566 81 -296 125 -376 151 -513 169 -111 15 -270
14 -497 -5 -400 -33 -608 3 -850 149 -67 41 -129 94 -295 257 -263 259 -334
309 -491 345 -152 35 -282 12 -581 -104 -170 -66 -236 -81 -353 -81 -129 0
-206 23 -393 116 -84 42 -170 83 -192 91 -74 26 -164 33 -245 19 -167 -30
-272 -99 -505 -331 -268 -267 -347 -330 -509 -406 -151 -70 -218 -84 -411 -84
-164 1 -235 10 -355 45 -45 13 -50 13 -50 -4 0 -16 118 -46 259 -67 101 -14
288 -7 380 16 142 35 306 118 427 216 39 32 156 142 260 246 254 252 350 316
523 344 104 17 189 -4 369 -92 194 -95 222 -106 298 -124 152 -35 297 -13 533
80 221 86 275 99 421 99 104 0 134 -4 178 -21 120 -48 193 -104 382 -290 249
-244 287 -276 410 -338 222 -112 418 -140 779 -110 400 33 586 14 826 -85 346
-143 428 -163 650 -163 125 0 169 5 263 26 275 63 361 174 437 566 69 354 150
484 373 602 114 60 170 78 264 86 178 14 311 -44 543 -236 288 -239 425 -325
585 -370 71 -20 610 -102 768 -117 60 -5 72 -4 72 8 0 12 -19 17 -77 22 -198
18 -703 97 -779 122 -154 51 -267 122 -481 301 -320 270 -496 340 -718 286z"/>
<path d="M7940 4115 c-132 -38 -260 -150 -328 -288 -35 -72 -58 -150 -102
-340 -39 -169 -78 -281 -118 -339 -92 -134 -212 -190 -467 -218 -227 -25 -440
-2 -645 69 -63 21 -180 62 -260 90 -80 28 -188 57 -240 66 -119 19 -300 19
-455 1 -299 -35 -359 -40 -495 -40 -83 0 -171 5 -205 13 -141 31 -289 107
-410 210 -27 24 -133 125 -235 225 -102 100 -210 198 -240 218 -142 94 -270
129 -401 109 -85 -14 -147 -37 -269 -102 -254 -134 -351 -167 -460 -155 -77 9
-135 30 -279 101 -288 142 -441 162 -607 81 -77 -38 -213 -139 -344 -255 -294
-260 -531 -389 -793 -431 -103 -17 -314 -7 -437 20 -52 11 -107 23 -122 26
-21 5 -28 3 -28 -8 0 -11 29 -21 107 -38 269 -57 437 -54 648 11 197 61 435
206 620 377 68 64 238 198 304 241 88 56 151 76 241 75 101 -2 181 -24 335
-96 221 -102 260 -117 332 -128 119 -17 246 16 393 100 215 124 336 165 457
156 173 -14 272 -76 543 -341 302 -296 401 -364 611 -416 120 -30 329 -28 619
6 184 22 255 26 390 22 199 -5 261 -19 521 -113 351 -126 524 -153 797 -123
222 24 337 65 430 153 90 85 139 194 187 416 78 364 155 494 355 597 53 27 60
28 195 27 148 -1 230 -16 309 -56 54 -27 168 -111 231 -169 231 -215 389 -294
715 -359 80 -16 199 -41 265 -55 221 -48 358 -75 377 -75 28 0 17 24 -13 28
-25 4 -557 116 -729 153 -235 52 -387 135 -589 322 -197 183 -304 230 -541
242 -87 4 -128 1 -170 -10z"/>
<path d="M8050 3990 c-105 -23 -200 -90 -276 -196 -57 -80 -87 -157 -154 -394
-77 -272 -130 -368 -244 -442 -127 -82 -316 -113 -646 -105 -247 6 -339 22
-523 88 -61 23 -148 54 -192 70 -214 76 -413 77 -840 4 -413 -70 -594 -71
-757 -4 -130 53 -240 146 -423 354 -128 147 -276 289 -345 334 -184 119 -350
103 -605 -59 -244 -154 -293 -178 -396 -187 -81 -8 -140 8 -316 88 -254 115
-354 140 -485 119 -90 -14 -155 -45 -298 -146 -61 -44 -148 -105 -193 -137
-155 -108 -378 -231 -515 -283 -146 -55 -234 -69 -422 -68 -169 1 -228 8 -394
50 -19 4 -26 2 -26 -8 0 -11 29 -21 98 -36 374 -83 655 -41 997 150 110 61
312 193 480 314 265 190 381 191 779 5 146 -69 204 -85 285 -79 95 7 192 50
371 164 192 121 267 154 369 161 175 12 320 -85 587 -392 190 -219 345 -346
469 -384 184 -57 353 -53 760 19 243 43 357 53 511 47 155 -5 241 -24 382 -82
237 -98 431 -135 705 -135 408 0 616 69 728 243 46 71 69 131 115 297 62 221
103 331 152 405 184 275 502 271 822 -10 225 -198 403 -279 790 -360 183 -38
237 -52 416 -106 176 -53 184 -55 184 -36 0 15 -341 115 -520 153 -289 61
-426 102 -553 165 -73 37 -215 129 -249 162 -50 48 -166 138 -219 170 -122 72
-299 110 -409 87z"/>
<path d="M8113 3826 c-127 -40 -254 -210 -378 -506 -46 -111 -146 -302 -185
-355 -67 -90 -120 -125 -236 -156 -67 -19 -115 -22 -325 -26 -267 -6 -463 6
-612 36 -51 10 -182 48 -292 84 -256 84 -294 91 -458 84 -147 -6 -228 -24
-457 -102 -216 -74 -327 -98 -455 -98 -165 -1 -297 40 -450 138 -64 41 -247
219 -361 350 -214 248 -328 336 -474 366 -122 25 -269 -31 -458 -174 -59 -45
-116 -90 -127 -100 -28 -27 -113 -81 -153 -97 -70 -28 -154 -5 -407 109 -325
146 -555 101 -1031 -202 -280 -177 -417 -237 -590 -259 -73 -9 -116 -9 -196 1
-161 19 -307 41 -385 56 -88 18 -83 18 -83 0 0 -8 1 -15 3 -15 1 0 81 -13 177
-29 367 -62 485 -62 664 -1 93 31 259 115 371 188 397 257 569 324 786 308
112 -8 162 -24 336 -101 290 -130 332 -128 528 24 258 200 332 244 447 263 54
10 76 9 133 -5 124 -31 212 -98 385 -293 356 -403 529 -524 791 -553 155 -17
290 6 571 99 331 110 489 130 668 84 30 -7 137 -41 238 -74 211 -69 325 -94
509 -110 176 -16 593 -8 684 14 135 31 214 80 282 174 51 70 79 125 196 377
59 127 125 257 148 290 83 122 167 184 260 192 99 9 178 -30 448 -217 123 -86
366 -187 610 -254 50 -13 189 -50 310 -81 182 -47 312 -88 438 -140 11 -5 17
-3 17 8 0 29 -208 99 -555 187 -447 113 -662 200 -876 353 -221 158 -338 200
-456 163z"/>
<path d="M8193 3626 c-128 -40 -206 -136 -367 -450 -104 -202 -124 -232 -208
-312 -70 -68 -128 -101 -233 -133 -131 -41 -431 -39 -885 5 -165 16 -229 29
-490 95 -159 41 -171 42 -325 43 -155 1 -163 0 -250 -31 -50 -17 -124 -47
-165 -66 -324 -151 -464 -182 -640 -142 -156 36 -365 142 -500 253 -80 67
-231 220 -351 357 -130 150 -171 190 -234 230 -72 46 -117 58 -196 53 -112 -8
-246 -82 -459 -253 -167 -134 -245 -170 -370 -170 -81 0 -93 4 -250 76 -149
69 -213 84 -345 82 -237 -2 -458 -85 -935 -347 -195 -108 -275 -136 -400 -143
-107 -6 -166 4 -410 67 -172 44 -180 45 -180 27 0 -24 450 -126 558 -127 147
0 238 36 647 258 395 215 680 283 907 216 29 -9 103 -39 163 -66 180 -82 239
-92 355 -60 74 20 159 73 304 186 212 167 306 216 422 224 68 4 80 2 137 -26
67 -33 159 -122 337 -326 191 -218 341 -342 537 -441 187 -94 341 -128 486
-107 103 15 155 33 384 133 230 101 306 121 443 122 111 0 179 -12 397 -68
205 -53 331 -73 563 -91 569 -43 746 -27 916 85 124 81 182 157 303 400 156
311 252 416 391 428 66 6 159 -20 215 -62 44 -32 186 -107 290 -153 105 -46
319 -117 490 -162 357 -95 504 -143 650 -211 109 -51 105 -50 105 -33 0 37
-292 149 -610 234 -305 82 -343 93 -520 155 -101 36 -255 110 -370 179 -140
84 -214 101 -307 72z"/>
<path d="M8249 3410 c-82 -24 -178 -125 -314 -330 -165 -250 -285 -359 -458
-417 -108 -37 -159 -44 -322 -43 -196 0 -431 23 -820 81 -456 67 -487 71 -605
66 -145 -5 -208 -26 -462 -154 -262 -131 -300 -145 -428 -151 -132 -6 -231 18
-370 87 -264 132 -363 213 -698 569 -79 84 -173 173 -208 198 -71 50 -162 84
-227 84 -98 0 -221 -57 -345 -158 -162 -132 -249 -190 -352 -231 -59 -23 -78
-25 -200 -25 -120 0 -153 4 -300 37 -192 44 -327 55 -451 38 -221 -32 -394
-100 -695 -274 -373 -215 -422 -224 -654 -115 -71 33 -244 92 -303 103 -30 6
-37 4 -37 -9 0 -9 6 -16 14 -16 36 0 205 -57 331 -112 130 -56 145 -61 215
-61 81 0 165 26 264 82 28 16 67 38 86 49 19 11 83 47 141 80 437 249 691 298
1089 207 369 -84 514 -54 793 165 159 123 227 168 293 190 171 59 302 -3 529
-254 253 -279 406 -412 595 -516 197 -109 322 -150 461 -150 122 0 210 29 454
149 121 60 256 121 300 136 77 26 86 27 225 22 133 -5 291 -23 525 -62 460
-75 888 -103 1065 -69 156 31 304 115 417 238 63 69 66 73 189 261 86 133 176
230 243 265 56 28 71 26 365 -56 318 -90 345 -97 566 -163 107 -32 260 -78
340 -101 163 -48 257 -86 394 -160 104 -55 106 -56 106 -37 0 11 -33 32 -141
90 -73 38 -188 84 -280 111 -46 13 -142 42 -214 64 -71 22 -202 61 -290 87
-88 25 -214 62 -280 82 -66 19 -142 41 -170 48 -27 7 -102 26 -165 43 -140 37
-177 43 -211 32z"/>
<path d="M3193 3271 c-23 -11 -95 -70 -159 -131 -95 -90 -132 -118 -198 -150
-139 -67 -233 -79 -700 -90 -405 -9 -483 -16 -635 -51 -194 -45 -313 -107
-658 -342 -123 -84 -171 -102 -254 -94 -64 6 -111 28 -250 119 -87 57 -167 95
-249 117 -89 25 -90 25 -90 7 0 -10 20 -19 58 -27 82 -18 166 -58 293 -140
172 -110 253 -130 361 -89 53 20 94 45 244 150 175 122 295 188 424 235 174
63 300 76 905 95 371 12 449 25 589 98 48 25 104 69 176 138 123 118 167 144
241 144 132 0 347 -143 509 -340 154 -188 331 -338 525 -447 260 -146 391
-194 545 -201 171 -7 232 14 495 171 82 50 191 110 240 134 83 40 99 44 190
49 123 8 317 -7 625 -45 366 -46 717 -74 842 -67 221 13 370 58 517 156 80 54
144 115 344 325 131 138 230 181 392 172 66 -4 169 -25 390 -81 165 -42 350
-87 410 -101 238 -53 395 -118 563 -232 112 -75 122 -81 122 -60 0 20 -198
148 -305 197 -139 65 -143 66 -710 205 -400 99 -494 114 -592 96 -135 -25
-178 -57 -450 -343 -239 -251 -476 -328 -911 -300 -97 6 -359 33 -582 58 -313
36 -443 47 -575 48 -216 1 -199 8 -590 -225 -285 -169 -447 -176 -755 -32
-116 55 -316 172 -392 229 -76 57 -262 243 -338 338 -97 120 -254 242 -380
295 -77 32 -173 38 -227 12z"/>
<path d="M3229 3145 c-64 -23 -191 -98 -336 -197 -40 -27 -93 -58 -117 -68
-47 -21 -226 -44 -426 -55 -262 -14 -482 -39 -654 -75 -134 -28 -386 -129
-531 -213 -36 -21 -131 -77 -173 -102 -283 -171 -337 -195 -430 -195 -74 0
-128 27 -247 123 -93 75 -156 112 -247 147 -62 23 -68 24 -68 8 0 -7 30 -24
67 -38 81 -30 148 -73 267 -168 190 -153 274 -143 636 76 287 174 438 247 632
306 179 54 350 77 788 106 215 14 337 29 385 47 22 9 96 53 165 99 69 45 169
106 223 135 94 49 101 51 158 46 110 -10 216 -86 495 -357 252 -245 375 -342
616 -486 233 -139 412 -195 556 -174 114 16 170 41 391 174 266 159 394 207
631 236 169 20 300 13 742 -40 509 -62 743 -56 986 26 131 44 229 102 392 234
164 132 287 213 354 232 66 18 145 11 298 -26 175 -43 224 -51 403 -72 329
-37 489 -99 719 -278 66 -52 96 -70 96 -59 0 32 -182 169 -309 233 -151 75
-296 111 -596 145 -77 9 -214 35 -304 57 -136 33 -176 39 -240 36 -123 -6
-159 -27 -506 -299 -159 -125 -282 -181 -477 -218 -218 -41 -385 -37 -828 20
-458 58 -692 59 -915 4 -163 -40 -214 -62 -440 -195 -289 -170 -324 -184 -465
-183 -118 1 -192 23 -350 104 -252 128 -478 297 -735 549 -184 181 -202 198
-308 273 -124 89 -213 114 -298 82z"/>
<path d="M3235 3002 c-27 -11 -89 -44 -136 -74 -198 -129 -226 -135 -749 -174
-347 -25 -520 -60 -716 -144 -97 -41 -295 -155 -409 -235 -457 -319 -505 -347
-620 -352 -79 -4 -81 -4 -137 34 -31 21 -94 74 -140 119 -104 101 -166 149
-243 185 -67 32 -85 35 -85 15 0 -7 14 -16 30 -20 17 -3 55 -22 86 -41 57 -36
81 -57 209 -175 221 -206 305 -205 615 5 74 50 212 144 306 208 431 293 597
342 1304 387 277 18 393 51 554 157 110 73 170 97 223 89 116 -16 256 -113
520 -363 295 -278 585 -495 813 -605 118 -58 172 -76 268 -89 158 -22 293 28
485 179 161 127 286 197 445 248 191 62 247 69 552 69 234 -1 308 -5 500 -28
520 -62 771 -59 974 12 82 29 204 97 385 216 165 107 219 134 273 135 142 2
811 -21 843 -28 212 -51 351 -129 513 -288 52 -52 96 -94 98 -94 2 0 4 8 4 18
0 19 -116 136 -199 201 -117 91 -225 142 -381 182 -76 19 -128 22 -495 29
-250 5 -424 5 -445 -1 -41 -11 -70 -27 -225 -129 -224 -146 -283 -180 -375
-212 -186 -64 -476 -74 -840 -28 -316 40 -385 45 -635 45 -285 0 -347 -8 -540
-66 -150 -46 -269 -109 -415 -219 -139 -105 -215 -154 -285 -184 -61 -25 -82
-29 -170 -30 -99 0 -143 9 -240 49 -132 54 -326 171 -500 303 -63 48 -239 194
-266 221 -197 198 -426 387 -533 440 -100 50 -153 58 -221 33z"/>
<path d="M3310 2873 c-55 -9 -140 -37 -245 -78 -148 -58 -222 -72 -480 -90
-551 -38 -785 -95 -1018 -248 -86 -57 -184 -133 -252 -196 -85 -79 -403 -348
-452 -383 -90 -64 -152 -91 -226 -96 -113 -8 -137 6 -322 192 -134 136 -171
167 -227 194 -37 17 -72 32 -78 32 -20 0 -9 -28 13 -34 63 -15 131 -69 272
-212 92 -92 167 -160 194 -174 92 -46 211 -35 323 31 104 61 149 98 449 365
445 394 595 449 1384 504 203 14 282 30 425 87 124 50 237 83 282 83 72 0 195
-77 363 -229 33 -29 78 -70 100 -90 22 -19 92 -83 155 -141 137 -124 315 -283
448 -398 220 -190 358 -250 557 -239 148 8 279 67 497 225 177 129 352 225
512 281 277 98 538 107 1062 37 636 -86 887 -65 1171 94 80 45 218 100 292
116 357 76 455 93 596 104 214 16 385 -17 515 -101 70 -45 182 -153 262 -254
31 -38 70 -86 87 -105 l30 -35 1 28 c0 15 -3 27 -7 27 -5 0 -37 37 -73 81
-184 230 -298 318 -475 365 -58 16 -104 19 -260 18 -199 -1 -222 -4 -600 -84
-163 -34 -203 -48 -363 -127 -176 -86 -232 -106 -345 -128 -199 -38 -349 -32
-852 33 -251 32 -304 36 -515 37 -261 0 -320 -8 -506 -70 -187 -62 -355 -153
-569 -309 -132 -96 -289 -178 -377 -197 -91 -19 -239 -7 -321 26 -72 29 -180
97 -258 162 -65 53 -418 368 -563 502 -240 221 -373 328 -461 374 -34 17 -107
27 -145 20z"/>
<path d="M3245 2719 c-22 -5 -67 -18 -100 -29 -124 -39 -248 -52 -600 -60
-362 -9 -444 -18 -599 -67 -216 -68 -405 -193 -588 -389 -26 -27 -106 -124
-178 -215 -257 -321 -356 -400 -500 -398 -107 1 -211 66 -402 251 -119 115
-198 177 -252 198 -22 8 -26 7 -26 -8 1 -11 20 -26 53 -41 35 -17 94 -66 182
-151 202 -196 307 -264 422 -276 155 -16 260 59 501 356 295 364 409 469 628
578 202 101 316 121 744 133 415 11 480 18 679 79 136 42 252 7 437 -131 123
-91 479 -434 534 -513 28 -41 188 -222 228 -258 196 -177 507 -229 775 -129
128 48 200 93 452 284 228 174 417 253 698 293 95 13 169 15 385 11 285 -5
411 -18 664 -68 306 -60 462 -71 643 -44 158 24 313 75 515 172 341 163 454
197 655 197 150 0 232 -23 337 -93 84 -57 125 -99 265 -271 98 -120 187 -220
198 -220 3 0 5 8 5 18 0 9 -29 46 -63 82 -35 36 -92 103 -128 150 -170 225
-313 326 -504 357 -201 32 -377 -10 -733 -174 -255 -117 -370 -158 -526 -185
-173 -29 -333 -21 -616 31 -370 68 -433 75 -760 75 -325 1 -415 -9 -598 -65
-183 -56 -290 -118 -580 -336 -223 -169 -384 -233 -580 -233 -181 0 -301 35
-426 124 -70 50 -111 93 -251 261 -109 131 -157 180 -347 361 -288 275 -485
380 -643 343z"/>
<path d="M2555 2569 c-595 -43 -961 -222 -1212 -589 -34 -50 -123 -199 -123
-206 0 -3 -28 -48 -63 -102 -79 -120 -142 -195 -203 -238 -101 -72 -275 -101
-414 -70 -117 27 -153 55 -233 187 -69 113 -125 159 -245 200 -66 23 -62 22
-62 4 0 -8 12 -18 28 -21 50 -13 157 -72 188 -106 17 -18 50 -65 74 -105 75
-128 149 -177 300 -195 68 -8 103 -7 174 5 200 35 301 124 476 422 127 215
185 297 279 389 225 223 470 330 875 381 153 20 800 31 932 17 157 -18 286
-77 428 -198 75 -64 220 -217 302 -319 26 -33 77 -96 112 -140 99 -123 259
-275 336 -317 113 -63 170 -80 288 -85 238 -12 396 50 948 372 409 239 569
289 925 288 250 -1 404 -20 927 -113 59 -11 188 -27 285 -36 304 -28 459 1
698 133 66 37 172 95 235 130 252 138 421 152 614 50 59 -32 225 -184 279
-257 136 -184 263 -330 286 -330 25 0 8 29 -50 85 -33 33 -99 112 -146 175
-229 304 -400 420 -623 420 -130 0 -270 -52 -473 -174 -235 -142 -372 -193
-547 -206 -194 -13 -380 6 -825 84 -538 95 -881 94 -1160 -5 -95 -33 -315
-140 -378 -183 -21 -14 -40 -26 -42 -26 -3 0 -35 -19 -72 -42 -92 -56 -313
-177 -398 -217 -217 -103 -377 -140 -518 -121 -205 29 -350 130 -562 390 -311
382 -443 509 -625 600 -139 69 -164 73 -550 76 -190 1 -399 -2 -465 -7z"/>
<path d="M2345 2500 c-347 -38 -596 -182 -822 -475 -47 -61 -107 -164 -201
-340 -133 -252 -220 -368 -305 -409 -86 -40 -376 -93 -454 -82 -82 11 -163 66
-335 226 -59 55 -157 118 -196 126 -51 10 -37 -10 29 -41 40 -20 106 -70 197
-152 91 -83 159 -134 202 -156 60 -30 71 -32 156 -30 118 3 341 51 420 91 106
54 169 139 330 447 127 245 207 359 333 478 154 145 324 230 546 273 98 20
392 26 540 11 44 -4 130 -12 190 -18 186 -17 337 -39 410 -60 224 -65 430
-248 659 -583 196 -287 378 -413 643 -446 261 -33 581 72 1058 345 571 328
802 368 1485 260 440 -69 674 -95 925 -102 310 -8 347 3 608 179 157 105 258
160 316 173 58 12 170 7 224 -11 132 -43 243 -145 430 -395 105 -141 233 -279
257 -279 22 0 6 23 -68 97 -43 43 -130 148 -194 233 -121 161 -170 216 -241
273 -102 83 -192 117 -308 117 -135 0 -222 -38 -439 -191 -133 -93 -223 -140
-309 -158 -158 -34 -640 1 -1153 85 -433 70 -594 79 -805 44 -198 -32 -429
-120 -653 -250 -429 -247 -662 -348 -892 -385 -117 -19 -173 -19 -283 0 -155
27 -277 91 -397 208 -76 73 -111 117 -209 257 -100 143 -173 231 -265 320
-183 176 -318 239 -588 275 -318 42 -687 62 -841 45z"/>
<path d="M2365 2429 c-249 -36 -473 -161 -643 -359 -118 -139 -194 -268 -307
-525 -82 -186 -131 -269 -199 -333 -86 -82 -175 -115 -366 -137 -30 -4 -133
-18 -227 -31 -237 -33 -259 -27 -359 95 -55 69 -109 106 -197 139 -69 26 -67
26 -67 7 0 -8 6 -15 13 -15 16 0 146 -64 167 -82 8 -7 38 -40 65 -73 60 -72
70 -81 115 -101 47 -20 119 -19 285 5 77 11 165 23 195 26 338 38 437 118 596
476 72 163 135 285 200 385 65 101 81 121 174 215 125 126 264 205 447 256 90
24 114 27 288 27 208 1 306 -12 518 -65 288 -72 511 -187 639 -328 48 -52 121
-160 209 -305 32 -53 85 -121 131 -167 67 -68 93 -86 190 -133 189 -92 364
-131 583 -130 316 2 518 70 1020 342 427 232 682 284 1125 232 220 -26 373
-37 690 -50 146 -6 328 -18 405 -27 77 -9 212 -16 300 -16 235 -1 325 28 541
173 167 113 196 125 289 124 69 0 89 -5 146 -32 118 -57 195 -137 377 -392
102 -143 184 -230 251 -268 39 -22 41 -22 41 -4 0 12 -11 24 -29 31 -61 26
-154 131 -299 339 -154 220 -282 325 -430 352 -110 19 -179 -3 -335 -109 -178
-121 -243 -151 -375 -177 -86 -16 -228 -18 -362 -4 -214 23 -447 39 -650 45
-123 4 -312 18 -440 32 -298 35 -540 36 -684 4 -200 -43 -415 -135 -721 -306
-223 -125 -341 -173 -551 -226 -122 -31 -139 -33 -309 -33 -160 0 -193 3 -291
26 -321 76 -463 178 -626 449 -145 241 -242 339 -438 442 -294 155 -795 249
-1095 206z"/>
<path d="M2395 2339 c-136 -14 -267 -62 -380 -139 -59 -41 -173 -164 -228
-248 -40 -61 -207 -381 -207 -397 0 -7 -92 -191 -120 -240 -86 -153 -244 -283
-413 -340 -113 -38 -407 -75 -597 -75 -135 0 -187 15 -336 100 -58 33 -107 60
-110 60 -2 0 -4 -6 -4 -14 0 -21 228 -143 302 -162 50 -13 92 -15 203 -11 263
12 426 36 574 88 160 55 278 148 376 295 32 48 105 187 162 308 152 325 215
427 337 546 140 137 300 196 561 207 286 11 607 -59 807 -178 97 -57 229 -188
333 -329 302 -410 424 -493 856 -580 311 -62 501 -65 711 -11 146 38 280 93
665 272 155 72 300 129 417 165 170 52 200 53 946 55 746 2 685 5 1125 -52 50
-6 146 -9 215 -6 146 5 228 27 305 82 97 69 180 121 215 135 96 39 223 -6 346
-123 45 -42 114 -128 183 -227 61 -87 133 -183 160 -212 68 -73 201 -151 201
-116 0 7 -26 26 -58 43 -82 42 -154 120 -262 280 -175 259 -325 384 -477 393
-73 5 -116 -8 -186 -55 -29 -20 -80 -56 -115 -79 -77 -53 -155 -83 -247 -96
-80 -12 -151 -7 -419 27 -105 13 -258 28 -341 34 -156 10 -1218 7 -1340 -4
-207 -19 -418 -93 -870 -305 -233 -110 -351 -156 -492 -192 -74 -18 -116 -22
-268 -22 -189 -1 -238 5 -469 55 -225 49 -344 100 -464 197 -84 67 -130 119
-277 312 -144 190 -210 262 -301 332 -223 171 -647 266 -1019 227z"/>
<path d="M2510 2241 c-208 -30 -361 -110 -505 -263 -106 -112 -181 -229 -282
-438 -110 -229 -115 -238 -190 -353 -110 -167 -245 -283 -375 -322 -29 -9
-133 -23 -231 -31 -97 -8 -246 -28 -330 -45 -256 -51 -344 -50 -511 7 -83 28
-86 28 -86 11 0 -15 131 -59 228 -78 81 -15 162 -8 392 35 111 21 247 39 340
45 232 16 319 53 464 199 99 100 179 220 263 392 163 338 221 435 329 550 161
171 332 251 564 266 279 19 574 -100 789 -318 45 -45 129 -150 189 -232 262
-367 391 -439 962 -537 122 -21 166 -23 450 -23 283 0 327 2 430 22 172 32
254 62 485 176 419 207 567 244 1080 271 148 8 333 22 410 30 396 45 579 41
870 -16 55 -11 116 -24 135 -29 81 -22 281 -50 355 -50 112 0 195 26 311 96
94 56 101 59 163 58 128 -1 221 -73 356 -274 163 -241 259 -328 398 -360 32
-7 38 -6 35 7 -2 9 -22 21 -49 27 -114 29 -203 111 -341 314 -162 238 -260
315 -403 316 -52 0 -70 -5 -130 -38 -38 -22 -101 -55 -139 -75 l-70 -36 -150
1 c-131 1 -169 5 -291 32 -353 80 -542 100 -779 82 -83 -6 -180 -15 -216 -20
-85 -12 -288 -27 -525 -40 -443 -24 -625 -71 -1010 -260 -382 -188 -456 -205
-925 -204 -293 0 -338 2 -460 23 -321 54 -501 110 -625 193 -111 74 -168 138
-350 393 -43 61 -111 142 -149 180 -149 148 -375 268 -573 304 -81 15 -237 21
-303 12z"/>
<path d="M2485 2085 c-276 -75 -416 -213 -700 -695 -215 -364 -368 -528 -575
-613 -100 -41 -185 -57 -373 -67 -186 -10 -206 -13 -408 -60 -142 -33 -256
-41 -368 -27 -50 7 -62 6 -59 -5 7 -19 62 -28 178 -29 89 -1 133 5 286 40 147
33 213 43 355 51 200 12 260 21 356 54 89 30 135 54 208 109 157 116 270 262
463 597 143 248 289 431 405 510 69 46 182 96 252 111 76 16 271 16 350 0 134
-27 268 -97 338 -175 65 -71 146 -181 217 -292 108 -169 222 -282 355 -351
202 -104 435 -167 775 -209 63 -8 309 -19 545 -26 603 -16 571 -23 1099 227
271 127 419 173 721 219 55 9 183 29 285 45 380 62 628 75 870 46 128 -15 227
-38 500 -118 279 -81 388 -85 499 -16 72 45 171 53 249 19 64 -27 146 -112
233 -240 121 -179 240 -274 374 -299 77 -14 85 -14 85 4 0 10 -10 15 -28 15
-42 0 -131 28 -182 58 -66 38 -147 124 -228 243 -134 197 -215 258 -356 267
-68 4 -74 2 -160 -42 -84 -43 -95 -46 -165 -46 -77 1 -225 35 -466 109 -369
113 -717 119 -1275 21 -30 -5 -140 -23 -245 -40 -311 -49 -447 -91 -730 -222
-522 -244 -520 -243 -1110 -225 -644 21 -1006 89 -1293 244 -140 76 -206 147
-376 404 -100 154 -154 218 -226 274 -133 102 -279 145 -489 144 -81 0 -156
-6 -186 -14z"/>
<path d="M2615 1900 c-187 -49 -354 -144 -478 -273 -57 -58 -188 -230 -277
-362 -144 -213 -314 -404 -449 -505 -68 -51 -196 -119 -266 -140 -23 -7 -144
-15 -290 -20 -248 -7 -251 -8 -412 -48 -193 -49 -268 -62 -368 -63 -57 -1 -75
-4 -75 -15 0 -11 18 -14 78 -14 81 0 179 16 315 51 184 48 203 50 457 58 224
7 263 11 320 31 252 86 444 263 730 675 125 180 198 273 265 341 102 104 274
204 426 247 111 32 180 40 259 28 173 -25 260 -93 385 -303 110 -184 185 -280
273 -350 139 -110 264 -158 547 -208 294 -52 418 -64 875 -90 96 -5 263 -23
370 -39 107 -16 231 -32 275 -36 157 -13 306 23 524 127 379 181 442 204 886
328 478 134 639 164 875 164 175 0 261 -12 410 -59 95 -30 122 -41 310 -132
205 -98 274 -117 399 -109 283 20 266 20 324 -7 53 -24 102 -73 239 -237 110
-132 203 -180 361 -188 87 -4 97 -3 97 13 0 15 -7 17 -43 13 -107 -12 -244 33
-327 108 -24 22 -76 81 -117 132 -92 115 -135 156 -193 185 -58 28 -165 33
-286 14 -76 -13 -101 -13 -165 -2 -89 16 -128 31 -329 128 -263 127 -434 170
-675 170 -228 0 -368 -26 -822 -149 -171 -46 -360 -100 -420 -120 -135 -45
-357 -136 -488 -202 -200 -100 -302 -135 -425 -146 -81 -8 -252 6 -390 30
-159 28 -335 44 -565 54 -223 9 -410 29 -660 71 -336 55 -490 121 -634 268
-63 66 -96 113 -233 334 -98 159 -189 233 -317 257 -83 15 -217 11 -296 -10z"/>
<path d="M2700 1680 c-197 -25 -335 -91 -525 -251 -88 -75 -176 -168 -342
-365 -296 -349 -458 -482 -660 -544 -62 -19 -99 -21 -309 -24 -254 -3 -273 -6
-584 -75 -74 -16 -168 -35 -207 -41 -53 -9 -73 -16 -73 -27 0 -11 7 -13 27 -9
16 3 48 8 73 12 25 3 133 26 240 49 242 54 347 66 570 64 150 -2 186 1 251 19
207 56 386 196 644 501 245 289 382 427 505 511 163 110 295 152 485 154 117
1 134 -2 170 -21 71 -40 109 -83 166 -188 133 -248 290 -373 559 -444 191 -51
679 -104 1205 -131 234 -12 289 -24 540 -111 l180 -62 125 -1 c160 -1 258 24
420 107 372 192 660 324 945 434 367 142 587 190 833 180 228 -8 341 -50 587
-215 277 -187 308 -200 510 -212 77 -4 155 -13 173 -19 62 -19 125 -64 230
-162 160 -151 242 -189 408 -189 105 0 154 8 154 24 0 8 -44 11 -142 11 -129
0 -148 2 -198 24 -70 31 -114 64 -235 179 -89 84 -128 110 -212 143 -16 6 -97
14 -180 19 -151 8 -154 9 -235 48 -46 22 -153 88 -238 145 -180 121 -244 155
-355 190 -124 38 -231 51 -374 44 -250 -12 -470 -73 -876 -241 -320 -133 -406
-172 -585 -265 -401 -207 -425 -215 -615 -216 l-140 0 -195 67 c-107 37 -226
74 -265 83 -40 9 -169 19 -300 25 -126 5 -275 14 -330 20 -55 5 -131 12 -170
15 -129 11 -479 55 -560 71 -243 47 -420 141 -529 281 -24 31 -73 106 -107
167 -76 134 -130 190 -202 211 -69 19 -177 25 -257 15z"/>
<path d="M2490 1384 c-76 -16 -203 -75 -280 -130 -72 -50 -122 -95 -325 -293
-318 -311 -416 -391 -579 -470 -154 -76 -191 -82 -501 -92 -148 -4 -288 -12
-310 -17 -289 -64 -495 -118 -495 -130 0 -16 1 -16 245 43 291 71 333 77 595
79 257 2 299 9 435 68 185 81 286 162 665 532 257 252 363 327 529 376 64 19
92 21 205 18 202 -7 258 -38 424 -234 79 -94 206 -175 337 -216 65 -20 197
-38 350 -48 88 -6 250 -18 360 -26 110 -8 301 -21 425 -29 336 -23 497 -41
575 -66 38 -12 149 -55 245 -96 241 -103 337 -134 440 -140 144 -9 266 33 495
171 562 339 974 552 1198 621 271 82 499 69 724 -43 98 -48 159 -92 333 -237
91 -76 185 -151 210 -167 56 -36 145 -63 234 -73 97 -10 126 -22 272 -115 228
-144 350 -190 505 -190 108 0 199 17 199 38 0 11 -7 13 -27 8 -61 -15 -246
-19 -301 -6 -69 15 -201 72 -260 111 -24 16 -46 29 -49 29 -4 0 -16 8 -27 19
-12 10 -57 39 -101 65 -80 46 -178 75 -255 76 -83 1 -219 82 -387 229 -186
163 -291 229 -453 285 -191 64 -382 67 -592 7 -170 -49 -312 -112 -583 -259
-289 -156 -400 -218 -500 -280 -244 -149 -293 -177 -364 -207 -114 -48 -171
-59 -275 -52 -104 7 -181 31 -406 127 -280 120 -374 144 -615 155 -71 3 -177
10 -235 15 -174 16 -481 39 -740 56 -280 17 -370 35 -500 96 -78 37 -97 52
-230 188 -153 156 -198 188 -298 209 -71 15 -232 13 -312 -5z"/>
<path d="M7700 1296 c-271 -57 -453 -161 -1164 -665 -327 -232 -465 -288 -650
-262 -111 16 -176 40 -446 171 -343 166 -376 176 -695 212 -170 19 -249 22
-765 23 -316 1 -593 5 -615 9 -204 40 -335 93 -515 210 -58 38 -116 75 -129
83 -42 27 -164 63 -211 63 -94 0 -208 -43 -353 -132 -91 -56 -135 -89 -399
-300 -230 -183 -353 -270 -463 -326 -137 -69 -159 -72 -470 -82 -179 -5 -311
-14 -365 -24 -384 -72 -460 -90 -460 -104 0 -10 7 -12 23 -9 71 18 455 88 527
97 46 5 157 10 245 10 196 0 325 13 408 41 121 40 330 175 537 347 36 30 74
62 85 71 47 39 265 201 320 238 152 102 286 150 393 139 78 -7 134 -32 277
-123 227 -145 330 -189 511 -219 84 -14 174 -16 588 -15 727 3 1033 -26 1261
-117 28 -11 142 -65 255 -120 319 -155 447 -192 595 -171 166 23 230 57 580
304 582 411 764 522 970 588 270 87 507 53 729 -104 81 -58 156 -132 344 -336
98 -108 164 -154 244 -172 76 -17 187 -61 298 -117 227 -115 398 -160 560
-150 52 3 111 10 130 15 19 6 54 15 78 21 26 7 42 16 42 26 0 10 -6 13 -17 10
-63 -19 -161 -37 -239 -42 -162 -12 -272 18 -552 150 -97 45 -215 93 -262 106
-138 36 -149 45 -399 318 -155 171 -280 258 -446 314 -75 26 -109 31 -205 34
-72 2 -140 -2 -180 -10z"/>
<path d="M7640 1194 c-52 -14 -144 -49 -205 -79 -151 -74 -247 -146 -490 -370
-246 -226 -309 -278 -456 -376 -200 -134 -363 -183 -525 -159 -113 17 -206 55
-509 204 -148 74 -309 147 -356 164 -221 78 -491 115 -844 115 -255 0 -407
-13 -680 -58 -449 -75 -641 -43 -935 155 -114 76 -172 101 -251 107 -72 6
-132 -9 -224 -55 -79 -39 -346 -218 -515 -344 -198 -146 -229 -167 -319 -212
-136 -69 -187 -76 -500 -74 -302 2 -332 -1 -641 -68 -85 -19 -162 -34 -172
-34 -10 0 -18 -7 -18 -15 0 -19 21 -19 90 -1 59 15 331 69 415 82 28 5 185 9
350 9 l300 0 78 27 c114 41 204 92 346 198 287 214 512 365 619 416 59 29 93
38 148 42 93 6 125 -5 259 -91 349 -224 514 -249 1055 -157 517 88 1132 52
1478 -87 37 -14 187 -85 333 -158 378 -187 494 -221 662 -192 224 39 444 180
812 522 217 201 284 256 405 332 149 92 269 135 431 154 181 20 323 -21 461
-136 63 -51 120 -118 308 -357 54 -70 121 -143 147 -163 77 -56 359 -190 508
-240 168 -57 377 -79 525 -56 116 18 270 63 270 80 0 15 6 16 -165 -29 -116
-31 -125 -31 -280 -27 -132 4 -175 9 -245 30 -239 70 -536 209 -631 294 -20
18 -79 89 -130 156 -213 282 -312 377 -455 438 -75 32 -85 33 -219 36 -124 3
-151 0 -235 -23z"/>
<path d="M7745 1134 c-99 -25 -237 -87 -324 -147 -110 -74 -223 -176 -466
-421 -269 -271 -359 -348 -482 -410 -118 -60 -213 -79 -362 -73 -208 8 -336
52 -696 237 -337 174 -473 223 -728 267 -144 25 -529 25 -677 0 -159 -27 -270
-53 -393 -91 -220 -69 -321 -87 -477 -88 -156 -1 -266 23 -430 93 -317 134
-378 150 -514 129 -169 -25 -315 -96 -620 -298 -217 -144 -325 -201 -427 -226
-80 -20 -210 -20 -349 -1 -122 17 -314 19 -415 5 -135 -19 -385 -83 -385 -98
0 -17 17 -15 135 17 231 62 453 77 677 45 280 -40 440 4 728 199 219 149 250
168 341 215 162 82 242 109 354 118 101 8 187 -13 382 -96 249 -106 309 -122
483 -127 165 -6 270 10 477 73 319 97 466 119 783 119 211 -1 262 -4 365 -23
210 -39 341 -89 680 -257 426 -211 568 -255 784 -242 159 10 306 68 456 179
39 28 203 185 365 348 238 239 313 308 389 359 200 133 319 175 469 169 83 -3
106 -8 162 -35 108 -51 231 -172 341 -335 132 -194 239 -316 348 -397 126 -93
341 -187 522 -227 102 -23 326 -24 440 -1 108 21 301 75 313 87 23 23 -11 20
-116 -9 -228 -62 -384 -80 -543 -61 -244 29 -520 152 -681 303 -36 33 -136
155 -223 271 -184 245 -288 351 -389 399 -60 28 -78 32 -172 34 -58 1 -114 -1
-125 -3z"/>
<path d="M7685 997 c-222 -74 -368 -188 -595 -467 -256 -314 -396 -435 -595
-516 -17 -7 -15 -9 13 -12 23 -2 52 7 103 35 144 77 285 211 499 474 181 221
317 343 463 412 185 88 344 90 472 5 86 -57 161 -144 300 -348 184 -270 289
-369 503 -474 128 -64 261 -106 330 -105 67 0 55 7 -68 37 -102 24 -244 84
-354 149 -109 65 -249 206 -345 348 -192 283 -278 380 -394 441 -65 34 -79 38
-167 41 -79 3 -106 0 -165 -20z"/>
<path d="M7714 862 c-72 -22 -179 -78 -252 -134 -75 -58 -143 -134 -288 -325
-124 -163 -293 -348 -341 -374 -28 -15 -30 -29 -4 -29 44 0 205 175 422 457
106 137 169 204 247 261 125 92 251 138 356 130 130 -11 181 -58 386 -354 109
-157 201 -262 300 -344 89 -72 240 -153 277 -148 24 3 19 7 -41 36 -171 81
-335 221 -454 388 -35 49 -96 135 -136 192 -91 129 -163 204 -224 233 -64 30
-167 35 -248 11z"/>
<path d="M7692 689 c-51 -15 -136 -73 -204 -142 -74 -73 -74 -72 -251 -292
-75 -93 -153 -189 -173 -212 -31 -36 -34 -43 -17 -43 20 0 60 46 256 291 311
391 458 459 642 297 26 -23 86 -94 135 -157 48 -64 112 -143 141 -176 115
-128 266 -255 303 -255 29 0 17 14 -53 63 -95 67 -229 206 -361 374 -62 79
-133 162 -159 185 -76 68 -170 92 -259 67z"/>
<path d="M7618 468 c-73 -39 -192 -162 -321 -330 -53 -70 -97 -130 -97 -133 0
-18 33 1 57 32 15 21 30 40 33 43 3 3 38 48 78 101 78 104 209 237 257 261
122 63 216 34 333 -104 24 -29 56 -67 71 -83 14 -17 53 -62 86 -100 92 -107
141 -155 159 -155 26 0 19 13 -35 65 -28 28 -103 111 -167 185 -197 228 -227
250 -334 250 -51 0 -74 -6 -120 -32z"/>
<path d="M4206 480 c-148 -17 -216 -34 -630 -154 -407 -119 -640 -111 -1091
34 -179 58 -252 68 -365 51 -148 -23 -232 -58 -643 -269 -98 -50 -204 -99
-235 -109 -72 -21 -86 -33 -40 -33 47 0 145 42 347 147 247 129 311 159 403
191 164 58 321 66 443 23 121 -44 363 -109 455 -124 272 -45 448 -25 860 98
337 100 470 125 668 125 326 0 596 -61 827 -186 44 -23 118 -64 165 -89 222
-121 382 -188 432 -183 29 3 22 7 -56 37 -121 46 -239 103 -436 211 -243 133
-379 181 -606 215 -130 19 -391 27 -498 15z"/>
<path d="M4270 359 c-123 -12 -254 -46 -443 -115 -338 -124 -412 -139 -697
-138 -234 0 -364 15 -645 75 -248 53 -417 55 -571 8 -85 -26 -290 -107 -381
-151 -54 -26 -63 -33 -45 -36 13 -2 42 5 65 16 146 68 353 145 437 161 152 29
241 24 508 -29 318 -63 527 -86 712 -77 174 9 292 31 460 89 497 169 509 172
745 171 169 -1 285 -16 455 -58 140 -36 233 -72 452 -180 136 -66 206 -95 225
-93 26 3 25 5 -22 27 -27 13 -122 59 -210 102 -89 42 -189 89 -224 103 -88 35
-259 83 -366 101 -78 13 -337 38 -354 34 -3 -1 -49 -6 -101 -10z"/>
<path d="M4280 223 c-120 -19 -255 -56 -431 -119 -114 -40 -226 -77 -249 -80
-54 -9 -61 -24 -10 -24 37 0 164 40 333 104 114 44 295 85 422 95 256 22 523
-31 844 -168 71 -30 126 -41 106 -22 -13 12 -239 106 -330 136 -92 31 -213 61
-302 74 -67 10 -327 13 -383 4z"/>
<path d="M7618 217 c-20 -8 -55 -29 -77 -46 -45 -36 -151 -150 -151 -163 0
-23 30 -1 96 71 150 161 248 160 434 -4 46 -41 93 -75 104 -75 16 0 16 2 5 16
-28 34 -192 165 -231 185 -52 26 -132 33 -180 16z"/>
<path d="M9845 69 c-71 -21 -155 -42 -185 -45 -30 -4 -62 -10 -70 -15 -21 -12
123 -11 152 0 13 5 76 24 141 42 73 21 117 38 117 46 0 18 -7 17 -155 -28z"/>
<path d="M4180 84 c-77 -16 -208 -63 -217 -77 -8 -14 46 -3 147 28 166 51 363
50 590 -2 127 -29 226 -41 216 -25 -3 5 -18 12 -33 15 -16 3 -104 21 -198 41
-149 32 -186 36 -305 35 -75 0 -164 -7 -200 -15z"/>
<path d="M2050 45 c-8 -2 -58 -9 -110 -16 -138 -17 -147 -32 -15 -23 141 10
447 9 645 -1 85 -4 152 -4 148 0 -22 23 -585 57 -668 40z"/>
<path d="M388 20 c-190 -9 -127 -20 108 -19 141 0 217 4 199 9 -41 12 -179 16
-307 10z"/>
</g>
</svg>