<?xml version="1.0" encoding="utf-8"?>
<!-- Generator: Adobe Illustrator 28.1.0, SVG Export Plug-In . SVG Version: 6.00 Build 0)  -->
<svg version="1.1" id="Layer_1" xmlns="http://www.w3.org/2000/svg" xmlns:xlink="http://www.w3.org/1999/xlink" x="0px" y="0px"
	 width="170.6px" height="170.2px" viewBox="0 0 170.6 170.2" style="enable-background:new 0 0 170.6 170.2;" xml:space="preserve"
	>
<style type="text/css">
	.st0{fill:#FFFFFF;}
</style>
<g>
	<path class="st0" d="M156.1,69.6l-0.1-0.1c-1.3-2-2.9-3.8-4.7-5.5c-4.2-4.1-8.4-6.6-9.2-7.1l-83-47.9c-2.5-1.4-4.9-2.6-7.3-3.6
		c-4-1.9-8.2-2.8-12.5-2.8c-0.3,0-0.6,0-0.8,0c-6,0.2-11.8,2.2-16.7,5.8c-3.6,2.7-6.5,6.1-8.6,10.1c-2.1,4.1-3.3,8.8-3.3,13.5
		c0,0.5,0,31.6-0.1,54.9l0,31.3c0,11.7,0,19.8,0,20c0,5.9,1.8,11.6,5.1,16.5c5.5,8,14.5,12.8,24.3,12.8c1.5,0,2.8-0.2,3.6-0.3
		l0.6-0.1c0.9-0.1,1.9-0.3,2.8-0.5c6.7-1.5,12-4.4,13-5l83-47.9c2.2-1.3,4.2-2.6,6-4c1.8-1.2,3.4-2.7,5-4.4c5-5.4,7.8-12.5,7.8-19.8
		C160.8,79.9,159.2,74.4,156.1,69.6z M151.7,104.1c-1.5,1.6-3,3-4.7,4.1c-1.7,1.3-3.7,2.6-5.9,3.9l-83,47.9c-1,0.6-6.1,3.4-12.5,4.8
		c-0.9,0.2-1.8,0.4-2.7,0.5l-0.5,0.1c-0.7,0.1-1.9,0.3-3.3,0.3c-9.1,0-17.6-4.5-22.7-12c-3.1-4.6-4.8-9.9-4.8-15.5
		c0-0.3,0.1-105.8,0.1-106.3c0-4.4,1.1-8.7,3.1-12.6c1.9-3.7,4.7-6.9,8-9.4c4.6-3.4,10-5.3,15.6-5.4c0.2,0,0.5,0,0.7,0
		c4,0,7.9,0.9,11.7,2.7c2.4,0.9,4.7,2.1,7.2,3.5l83,47.9c0.5,0.3,4.7,2.8,8.9,6.9c1.7,1.6,3.2,3.3,4.4,5.2l0.1,0.1
		c2.9,4.4,4.4,9.6,4.4,14.9C158.9,92.4,156.3,99,151.7,104.1z"/>
	<path class="st0" d="M141.7,74.1c-3.3-3.2-6.6-5.2-6.6-5.2L92.5,44.3L99,62.8l19.8,11.9l-13.2,15l4,26.7l25.5-14.7
		c1.9-1.1,3.5-2.2,4.9-3.2c1.1-0.7,2-1.5,2.8-2.5c2.5-2.7,4.1-6.4,4.1-10.4c0-3.1-0.9-6-2.5-8.4C143.6,76,142.7,75,141.7,74.1z"/>
	<path class="st0" d="M59.6,117.2L68,78.9l-22.1-33l31.4,7.9L88.9,34l-6.4,4.5L52.1,21c-2.2-1.3-4.1-2.2-6-2.9
		c-2.1-1-4.4-1.7-6.9-1.7c-0.1,0-0.1,0-0.1,0c-3.4,0-6.5,1.2-9,3.1c-3.8,2.8-6.3,7.3-6.3,12.4c0,0.7-0.1,105.7-0.1,106.3
		c0,3.2,1,6.2,2.7,8.7c2.8,4.1,7.5,6.7,12.8,6.7c0.7,0,1.4-0.1,2-0.2c0.6-0.1,1.2-0.2,1.8-0.3c5.1-1.1,9.1-3.5,9.1-3.5l45.3-26.1
		l13.2-0.6l-22.2-20L59.6,117.2z"/>
</g>
</svg>
